<?xml version="1.0" standalone="yes"?>
<svg xmlns="http://www.w3.org/2000/svg" width="1500" height="1500">
<path style="fill:#020102; stroke:none;" d="M0 0L0 1500L402 1500L402 942L402 772C402 754.289 402.445 736.582 402.015 719C401.843 712.004 403.678 702.873 401.682 696.148C400.266 691.377 391.759 692.842 388 693.286C377.511 694.523 356.862 697.552 347.344 692.181C343.348 689.926 344.002 684.922 344 681L344 649C344 645.849 345.216 639.261 342.397 637.028C339.779 634.954 334.122 636 331 636C321.282 636 311.718 637.001 302 637C297.703 637 290.878 638.003 288.179 633.721C284.724 628.241 287 616.304 287 610L287 548C287 542.154 289.684 527.29 285.972 522.603C283.853 519.927 277.98 521 275 521L243 521C237.52 521 230.12 522.104 229.133 514.96C227.318 501.811 229 487.28 229 474L229 390L229 359C229 355.022 228.176 349.95 231.032 346.724C234.049 343.316 238.899 344 243 344L273 344C276.316 344 283.632 345.351 285.972 342.397C288.046 339.779 287 334.121 287 331L287 302C287 297.941 285.618 290.745 289.318 287.938C298.097 281.278 319.735 286.874 330 286.996C333.303 287.035 339.639 288.157 342.397 285.972C345.478 283.532 344 275.476 344 272L344 243C344 238.786 343.306 233.498 346.769 230.344C349.976 227.422 354.997 228.002 359 228C368.666 227.996 378.334 227.954 388 228.001C391.598 228.018 399.526 230.486 401.731 226.681C403.325 223.933 402.015 219.06 402.001 216C401.955 206.334 401.999 196.666 402 187C402 182.507 401.078 175.949 405.279 172.938C409.626 169.822 416.975 171 422 171L462 171C514.24 171 566.675 172 619 172C663.352 172 707.72 171 752 171L787 171C792.615 171 799.711 170.009 804.941 172.514C808.87 174.395 808.973 178.147 808.999 182C809.072 192.632 812.104 203.46 810.871 213.961C810.414 217.85 807.045 223.581 810.028 227.258C812.664 230.507 819.49 228.101 823 228.015C833.078 227.768 842.991 228.876 853 228.996C857.331 229.048 862.766 228.192 865.566 232.344C867.884 235.78 867 241.071 867 245L867 275L867 359C867 370.654 864.089 386.779 867.434 397.941C869.095 403.485 876.51 402 881 402L910 402C913.389 402 918.713 401.046 921.682 403.028C924.937 405.2 924 410.659 924 414C924.001 424.915 926.069 435.176 925.999 446C925.981 448.782 923.651 454.925 925.372 457.146C928.098 460.663 937.104 459 941 459C954.719 459 968.685 457.871 982 461L983 517C996.334 517 1009.74 518.089 1023 517.995C1029.33 517.951 1036.3 515.334 1039.85 522.44C1042.4 527.541 1039.42 531.955 1039.05 537.039C1038.35 546.887 1038.84 557.124 1039 566.996C1039.66 605.824 1039 644.723 1039 684L1039 1102L1039 1222L1039 1251C1039 1254.71 1038.05 1259.42 1041 1262L1041 1263L1041 1264C1038.86 1265.74 1038.25 1268.83 1035.66 1270.14C1027.59 1274.22 1010.98 1271 1002 1271C997.766 1271 985.918 1268.95 983.028 1272.6C980.456 1275.85 982 1284.07 982 1288L982 1330L982 1441C982 1460.1 979.51 1481.2 983 1500L1500 1500L1500 0L0 0z"/>
<path style="fill:#f5ecf4; stroke:none;" d="M408.667 171.333L409.333 171.667L408.667 171.333z"/>
<path style="fill:#7984a7; stroke:none;" d="M402 705L403 705L404 691L362 691C357.906 691 349.673 692.486 347.607 687.772C343.294 677.93 347.534 658.775 347.259 648C347.16 644.095 349.304 637.895 345.436 635.028C342.287 632.693 334.766 633.399 330.91 633.193C317.291 632.464 303.609 633.646 290 633L290 551C290 543.533 293.169 526.607 288.972 520.318C286.8 517.063 281.341 518 278 518L246 518C240.371 518 232.722 519.469 232.059 511.995C228.571 472.684 232 431.484 232 392L232 362C232 358.421 230.899 352.441 233.028 349.332C235.42 345.837 243.369 347.987 247.001 347.999C257.326 348.033 277.798 351.9 286.852 346.682C291.488 344.01 290 336.496 290 332L290 290L332 290C336.273 290 344.163 291.558 346.435 286.852C351.243 276.895 347.087 257.879 347.17 247C347.199 243.165 345.596 235.663 349.318 233.179C352.377 231.138 357.516 232 361 232L390 232C394.217 232.007 401.252 233.913 403.972 229.652C405.916 226.608 405 221.441 405 218L405 189C405 184.816 403.423 176.88 408.148 174.742C415.821 171.271 432.482 174.568 441 174.846C463.832 175.59 487.016 175 510 175C575.612 175 641.375 176.593 707 174.985C727.99 174.471 749.004 175.316 770 174.836C779.196 174.625 794.157 172.061 802.927 174.773C807.836 176.291 806.002 184.121 806 188C805.996 198.318 801.885 219.91 807.179 228.852C809.562 232.877 815.021 232 819 232L850 232C853.99 232 861.405 230.586 863.397 235.148C867.424 244.372 864 261.937 864 272L864 360L864 391C864 393.98 862.927 399.853 865.603 401.972C868.543 404.301 875.469 403 879 403L916 403L916 402L883 402C879.066 402 872.645 403.188 869.434 400.397C866.134 397.53 867 391.888 867 388L867 358L867 271C867 260.216 870.242 243.281 866.436 233.189C864.328 227.599 856.709 229 852 229C840.286 228.999 825.371 230.789 814.019 228.768C806.983 227.515 807.656 215.414 811 211L811 210C806.902 202.632 809.004 191.236 809 183C808.998 179.339 809.715 174.496 805.853 172.517C798.549 168.776 785.926 170.935 778 171.116C758.716 171.556 739.27 171.993 720 172L500 172C477.327 172 454.925 170.799 432.285 171.139C424.369 171.258 412.539 168.788 405.279 172.564C400.696 174.947 402 182.756 402 187L402 215C402.005 218.13 403.198 222.979 401.802 225.848C399.666 230.241 391.908 227.954 388.015 228.025C378.018 228.206 367.999 228.07 358 228.003C354.205 227.978 349.047 227.332 346.148 230.344C343.101 233.511 344 239.006 344 243L344 272C344 275.694 345.272 282.521 342.397 285.397C339.671 288.122 333.495 287.015 330 286.999C320.338 286.956 310.707 285.996 301 286C297.342 286.001 291.572 285.265 288.603 287.938C285.978 290.302 287 295.848 287 299L287 330C287 333.691 288.284 340.569 284.682 342.972C281.713 344.954 276.389 344 273 344L244 344C238.427 344 230.29 342.717 229.144 350.09C227.075 363.409 229 378.513 229 392L229 476L229 507C229 510.451 227.937 516.24 230.318 519.107C232.774 522.063 238.626 521 242 521L273 521C276.989 521 284.405 519.586 286.397 524.148C289.202 530.573 287 542.037 287 549L287 607C287 613.731 284.172 628.878 288.179 634.486C290.922 638.326 298.009 636.849 302 636.849C311.363 636.849 320.612 636 330 636C333.389 636 338.713 635.046 341.682 637.028C345.437 639.534 344 647.146 344 651C344 660.901 339.99 681.794 344.858 690.428C347.369 694.881 355.744 693.998 360 694C369.753 694.004 379.297 693.754 389 693.089C392.23 692.868 397.874 692.081 400.397 694.603C402.821 697.028 402 701.887 402 705z"/>
<path style="fill:#f5ecf4; stroke:none;" d="M420.667 171.333L421.333 171.667L420.667 171.333M431 171L432 172L431 171M442 171L443 172L442 171M454 171L454 172L460 172L454 171M470 171L470 172L476 172L470 171M726 171L726 172L730 172L726 171M736 171L736 172L739 172L736 171M757 171L757 172L762 172L757 171M775.667 171.333L776.333 171.667L775.667 171.333M799 171L800 172L799 171z"/>
<path style="fill:#d94970; stroke:none;" d="M290 290L290 332C290 337.046 291.243 343.856 285.941 346.682C276.543 351.692 256.538 348.211 246 347.986C242.55 347.913 234.563 345.3 232.603 349.319C230.849 352.915 232 359.085 232 363L232 396C232 434.466 228.574 474.691 232.059 512.981C232.684 519.857 240.918 518 246 518L277 518C280.966 518 286.588 517.121 288.972 521.148C293.173 528.243 290 544.844 290 553L290 633C303.561 634.935 318.049 632.388 331.816 633.574C335.616 633.902 341.407 632.898 344.697 635.028C349.025 637.829 347.039 643.852 347.128 648C347.348 658.249 346.87 668.543 347.116 678.83C347.187 681.797 346.023 686.779 348.028 689.258C351.756 693.865 369.446 691 375 691C394.054 691 412.946 692 432 692C440.336 692 449.937 693.29 458 691C461.056 695.933 465.859 694.026 471 694.001C481.999 693.948 493 694 504 694C508.546 694 517.099 692.296 518.682 698.059C521.955 709.978 518.519 725.639 519.039 738C519.229 742.497 520.72 748.14 514.956 749.682C503.241 752.816 487.139 750 475 750C471.534 750 463.614 748.529 461.179 751.603C457.682 756.019 460 768.578 460 774L460 835C460 1056.51 461 1278.35 461 1500L924 1500L924 1416C924 1408.84 927.203 1391.4 922.972 1385.51C920.159 1381.6 911.148 1384 907 1384L858 1384L694 1384L653 1384C648.785 1384 640.828 1385.5 637.473 1382.4C634.516 1379.66 635.994 1373.59 636 1370C636.016 1359.67 636.028 1349.33 635.999 1339C635.988 1334.94 635.049 1329.66 640.034 1328.32C648.014 1326.17 658.745 1328 667 1328L724 1328L910 1328C913.597 1328 919.56 1329.03 922.397 1326.26C924.986 1323.72 924 1318.27 924 1315L924 1285C924 1281.44 922.904 1275.52 925.028 1272.43C927.629 1268.65 935.079 1270 939 1270C952.118 1270 967.21 1267.95 980 1271C986.709 1258.11 982 1233.45 982 1219L982 1092L982 682L982 566L982 534C982 530.173 983.348 523.67 981.687 520.188C979.373 515.338 961.824 518 957 518C934.125 518 911.854 520.009 889 520C883.797 519.998 869.288 521.48 866.742 515.852C864.774 511.501 866 504.679 866 500C866 487.497 867.241 474.493 866.687 462.089C866.543 458.875 864.323 456.27 864.058 452.996C859.926 402.079 864 349.105 864 298L864 253C864 247.851 865.702 239.002 863.397 234.318C861.515 230.493 853.471 232 850 232L820 232C815.761 232 810.588 232.74 807.742 228.852C801.791 220.719 805.984 197.888 806 188C806.006 184.345 808.235 176.363 803.848 174.643C797.77 172.259 788.485 175.374 782 174.826C757.455 172.754 731.606 173.883 707 174.961C684.69 175.938 662.277 174.41 640 174.125C595.007 173.55 550.029 175 505 175C479.395 175 453.49 172.566 428 174.829C421.751 175.384 413.172 171.758 407.318 174.742C403.368 176.756 405 185.357 405 189C405 198.893 409.064 220.272 403.972 228.796C401.25 233.353 394.447 232.001 390 232L360 232C356.779 232 351.315 231.032 348.603 233.179C345.557 235.592 347.067 243.588 347.065 247.089C347.059 256.898 351.193 278.27 345.983 286.852C343.185 291.462 335.55 290 331 290L290 290z"/>
<path style="fill:#f5ecf4; stroke:none;" d="M809 199L809 209L811 209L811 199L809 199M809 211L809 218L811 218L811 211L809 211M402 223L403 224L402 223M402 226L403 227L402 226M364.667 228.333L365.333 228.667L364.667 228.333M383 228L384 229L383 228M817 228L817 229L821 229L817 228M827 228L827 229L833 229L827 228M841 228L841 229L847 229L841 228M320 286L321 287L320 286M322.667 286.333L323.333 286.667L322.667 286.333M866 295L867 296L866 295z"/>
<path style="fill:#71739c; stroke:none;" d="M864 402C864 419.391 860.077 442.346 865 459L866 459C864.097 447.047 866 433.19 866 421C866 417.157 864.792 410.668 867.028 407.318C869.321 403.882 875.48 405 879 405L910 405C913.415 405 918.92 404.093 921.227 407.318C923.234 410.123 922.001 415.724 922 419L922 448C922 451.574 920.693 458.648 923.603 461.357C926.17 463.746 932.744 462.005 936 462L967 462C970.633 462 975.758 461.186 978.397 464.318C981.027 467.44 980 473.219 980 477L980 506C980 509.389 979.047 514.713 981.028 517.682C983.2 520.937 988.659 520 992 520L1024 520C1028.35 520 1036.14 518.633 1037.68 524.109C1041.97 539.305 1038 561.171 1038 577L1038 692L1038 1066L1038 1206L1038 1247C1038 1252.28 1039.41 1259.99 1037.4 1264.94C1035.42 1269.82 1030.1 1268.11 1026 1268.01C1015.35 1267.76 1004.66 1268 994 1268C990.197 1268 981.569 1266.46 980.028 1271.23C978.199 1276.89 980 1286 980 1292L980 1340L980 1500L982 1500L982 1345L982 1297C982 1290.27 980.531 1281.56 982.318 1275.06C983.846 1269.5 991.59 1271 996 1271L1028 1271C1032.05 1271 1036.93 1271.66 1038.49 1266.94C1043.21 1252.57 1039 1230.16 1039 1215L1039 1098L1039 709L1039 574L1039 536C1039 531.595 1040.38 524.344 1038.4 520.318C1036.51 516.493 1028.47 518 1025 518L995 518C991.694 518 986.188 518.981 983.603 516.397C980.869 513.663 982 507.503 982 504L982 474C982 470.927 983.047 465.306 980.972 462.742C978.411 459.576 970.586 461 967 461L938 461C934.516 461 929.377 461.862 926.318 459.821C922.566 457.318 924 449.855 924 446L924 417C924 413.406 925.04 407.613 922.821 404.514C919.891 400.423 911.263 402.993 907 403C893.281 403.022 877.372 405.184 864 402z"/>
<path style="fill:#7984a7; stroke:none;" d="M920 402L920 403L923 403L920 402M923.333 403.667L923.667 404.333L923.333 403.667z"/>
<path style="fill:#020102; stroke:none;" d="M867 519C892.803 519.214 918.347 518 944 518C952.833 518 969.753 521.298 977.682 517.397C981.365 515.584 980 508.333 980 505L980 475C980 471.694 980.981 466.188 978.397 463.603C975.812 461.019 970.306 462 967 462L937 462C933.075 462 925.477 463.734 923.028 459.812C921.089 456.708 922 451.494 922 448L922 420C922.001 416.595 923.823 409.253 921.357 406.603C918.779 403.833 912.391 405 909 405L879 405C875.879 405 870.221 403.954 867.603 406.028C863.058 409.628 866 428.479 866 434C866 462.297 867 490.516 867 519z"/>
<path style="fill:#f5ecf4; stroke:none;" d="M924 432L924 435L926 435L926 432L924 432z"/>
<path style="fill:#7984a7; stroke:none;" d="M924 435L924 452L926 452L926 435L924 435z"/>
<path style="fill:#f5ecf4; stroke:none;" d="M924 452L924 454L926 454L926 452L924 452z"/>
<path style="fill:#7984a7; stroke:none;" d="M924 457C925.949 462.543 933.094 461 938 461L979 461L979 459C962.337 459 939.618 462.984 924 457M980.667 461.333L981.333 461.667L980.667 461.333z"/>
<path style="fill:#71739c; stroke:none;" d="M866 464L866 517L867 517L867 481L866 464z"/>
<path style="fill:#7984a7; stroke:none;" d="M982 466L982 517L983 517C983 502.689 987.508 479.127 982 466M983 517L983 518L1014 518L983 517z"/>
<path style="fill:#f5ecf4; stroke:none;" d="M1014.67 517.333L1015.33 517.667L1014.67 517.333z"/>
<path style="fill:#7984a7; stroke:none;" d="M1029 517L1029 518L1034 518L1029 517z"/>
<path style="fill:#f5ecf4; stroke:none;" d="M1034.67 517.333L1035.33 517.667L1034.67 517.333z"/>
<path style="fill:#71739c; stroke:none;" d="M636 522L658 521L705 521L864 521C860.257 518.393 854.495 519.998 850 520L817 520L687 520C674.678 520 662.318 520.287 650 519.985C645.124 519.866 639.255 517.393 636 522z"/>
<path style="fill:#020102; stroke:none;" d="M865 521L769 521L707 521L655 521C650.942 521 640.605 518.726 637.603 521.618C633.66 525.419 637 543.405 637 549C637 554.38 634.154 572.448 638.603 575.972C641.385 578.175 647.672 577 651 577L685 577L814 577L851 577C854.651 577 861.439 578.276 864.258 575.397C867.33 572.258 866 564.994 866 561C866 547.595 866.053 534.339 865 521M982 1268C995.666 1268 1009.33 1267.93 1023 1268C1026.82 1268.02 1034.43 1270.46 1036.97 1266.68C1038.96 1263.72 1038 1258.38 1038 1255L1038 1225L1038 1114L1038 692L1038 566L1038 534C1038 530.723 1039.18 524.466 1036.97 521.742C1034.77 519.018 1029.06 520 1026 520L994 520C990.424 520 983.645 518.679 982.318 523.148C978.454 536.162 982 555.395 982 569L982 670L982 783L982 980L982 1268z"/>
<path style="fill:#7984a7; stroke:none;" d="M1039 522L1039 531L1041 531L1041 522L1039 522z"/>
<path style="fill:#71739c; stroke:none;" d="M635 523L635 526L636 526L635 523M636 529C632.567 540.613 632.705 563.309 636 575L637 575C637 561.997 641.01 540.939 636 529z"/>
<path style="fill:#f5ecf4; stroke:none;" d="M1039 531L1039 533L1041 533L1041 531L1039 531M1039 573L1039 577L1041 577L1041 573L1039 573z"/>
<path style="fill:#71739c; stroke:none;" d="M521 578L521 579L633 579L605 578L547 578L521 578z"/>
<path style="fill:#7984a7; stroke:none;" d="M1039 577L1039 599L1041 599L1041 577L1039 577z"/>
<path style="fill:#020102; stroke:none;" d="M521 692C534.62 693.447 548.306 693 562 693C566.134 693 574.274 694.48 576.397 689.772C582.935 675.27 569.873 651.921 578.028 638.148C580.412 634.121 586.034 635 590 635L621 635C624.989 635 632.405 636.414 634.397 631.852C636.689 626.601 635 617.666 635 612C635 605.026 638.347 586.127 633.972 580.603C631.254 577.171 620.938 579 617 579L568 579L534 579C530.827 578.995 524.238 577.325 521.782 579.782C517.94 583.623 521 602.437 521 608L521 692z"/>
<path style="fill:#f5ecf4; stroke:none;" d="M1039 599L1039 617L1041 617L1041 599L1039 599z"/>
<path style="fill:#7984a7; stroke:none;" d="M692 637C706.521 630.847 729.318 635 745 635L863 635C852.734 630.692 835.158 634 824 634L733 634C723.091 634 699.136 629.713 692 637z"/>
<path style="fill:#f5ecf4; stroke:none;" d="M694.318 636.028C689.103 639.508 692 657.318 692 663L692 744L692 830C692 837.885 688.607 856.058 693.028 862.682C695.066 865.737 699.85 864.999 703 865L732 865L826 865L852 865.001C855.126 865.015 859.843 866.177 862.682 864.593C867.825 861.722 865 843.268 865 838L865 758L865 669C865 661.839 868.457 642.266 863.972 636.603C861.975 634.082 856.803 635 854 635L826 635L730 635C721.49 635 701.443 631.273 694.318 636.028z"/>
<path style="fill:#7984a7; stroke:none;" d="M864 635L865 636L864 635z"/>
<path style="fill:#f5ecf4; stroke:none;" d="M301.667 636.333L302.333 636.667L301.667 636.333M313 636L313 637L317 637L313 636z"/>
<path style="fill:#7984a7; stroke:none;" d="M865 637L865 863L866 863L866 704L866 658L865 637z"/>
<path style="fill:#71739c; stroke:none;" d="M403 692L403 1500L405 1500L405 884L405 743L405 708L406.603 694.603L421 693L459 693L443 692L403 692z"/>
<path style="fill:#7984a7; stroke:none;" d="M753.148 692.742C748.789 694.714 750 701.12 750 705L750 740L750 789C750 793.364 748.212 802.938 751.603 806.258C756.897 811.44 776.881 808 784 808C789.894 808 799.352 809.789 804.772 807.258C809.077 805.246 808 798.865 808 795L808 760L808 710C808 705.593 809.781 696.08 805.566 693.179C799.122 688.744 781.692 692 774 692C768.025 692 758.67 690.244 753.148 692.742z"/>
<path style="fill:#f5ecf4; stroke:none;" d="M385.667 693.333L386.333 693.667L385.667 693.333z"/>
<path style="fill:#020102; stroke:none;" d="M405 1500L461 1500C461 1286.85 465.218 1072.92 460.015 860C459.348 832.703 460 805.307 460 778C460 772.173 457.093 754.703 462.434 751.028C465.332 749.033 470.668 750 474 750L504 750C507.82 750 515.325 751.415 518.257 748.397C521.045 745.526 519.191 740.472 519.039 737C518.604 727.037 519 716.973 519 707C519 703.849 520.216 697.261 517.397 695.028C512.991 691.538 499.467 694 494 694C472.566 694 451.413 693 430 693C424.987 693 407.068 690.253 405.318 696.148C403.268 703.052 405 712.81 405 720L405 772L405 942L405 1500z"/>
<path style="fill:#71739c; stroke:none;" d="M801 806L801 805L766 805C762.733 805 756.285 806.309 753.603 804.088C749.633 800.8 752 786.777 752 782L752 719C752 714.076 749.531 699.285 753.603 695.912C756.285 693.691 762.733 695 766 695L801 695C791.175 690.877 774.67 694.05 764 693.999C760.638 693.983 754.324 692.224 752.028 695.448C749.272 699.318 751 708.436 751 713L751 759L751 793C751 796.349 749.828 802.695 752.603 805.218C755.278 807.651 761.662 806.005 765 806L801 806M802 693L802 694C807.356 698.92 805 710.155 805 717L805 781C805 788.177 807.594 800.861 802 806L802 807C809.321 804.19 806 789.741 806 783L806 715C806 708.477 809.158 695.747 802 693z"/>
<path style="fill:#020102; stroke:none;" d="M754.318 694.912C750.608 696.332 752 703.919 752 707L752 744L752 788C752 791.914 750.309 801.096 753.028 804.218C755.181 806.692 762.044 805.005 765 805C775.567 804.983 793.008 808.506 802.837 805.227C806.828 803.896 805.016 797.159 805.001 794C804.945 782.334 805 770.666 805 759L805 714C805 709.575 806.937 700.155 804.802 696.333C802.975 693.061 796.062 694.984 793 694.999C782.523 695.05 763.917 691.237 754.318 694.912z"/>
<path style="fill:#7984a7; stroke:none;" d="M402.333 707.667L402.667 708.333L402.333 707.667M402 710L402 713L403 713L402 710M402 715L403 716L402 715M402 720L403 721L402 720M402 723L403 724L402 723M402.333 734.667L402.667 735.333L402.333 734.667M402 739L403 740L402 739M402 745L402 1500L403 1500L403 964L403 810L403 766L402 745M692 863L693 864L692 863M693 864L694 865L693 864M864 864L865 865L864 864M694 865L694 866L860 866C847.117 860.594 824.038 865 810 865L694 865M861.667 865.333L862.333 865.667L861.667 865.333z"/>
<path style="fill:#020102; stroke:none;" d="M752.318 1039.03C747.701 1042.11 750 1055.12 750 1060L750 1124L750 1186C750 1192 747.619 1204.57 751.028 1209.68C753.066 1212.74 757.85 1212 761 1212L789 1212L886 1212C894.31 1212 914.663 1215.73 921.485 1210.82C925.708 1207.78 923 1194.75 923 1190L923 1127L923 1063C923 1057.58 925.624 1044.59 922.243 1040.32C919.895 1037.35 915.336 1038 912 1038L884 1038L788 1038C779.49 1038 759.443 1034.27 752.318 1039.03z"/>
<path style="fill:#71739c; stroke:none;" d="M807.318 1095.03C801.917 1098.63 805 1118.06 805 1124C805 1130.94 801.784 1148.85 806.179 1154.4C808.614 1157.47 816.534 1156 820 1156L854 1156C857.278 1156 863.534 1157.18 866.258 1154.97C870.964 1151.16 868 1132.7 868 1127C868 1119.87 871.327 1101.29 866.821 1095.6C864.386 1092.53 856.466 1094 853 1094L821 1094C817.157 1094 810.668 1092.79 807.318 1095.03z"/>
<path style="fill:#7984a7; stroke:none;" d="M808.434 1096.03C802.898 1099.84 806 1118.9 806 1125C806 1131.45 802.993 1148.54 807.742 1153.4C810.561 1156.28 817.349 1155 821 1155L852 1155C855.618 1155 861.52 1156.08 864.682 1153.97C870.083 1150.37 867 1130.94 867 1125C867 1118.16 869.833 1103.1 865.972 1097.32C863.569 1093.72 856.691 1095 853 1095L821 1095C817.443 1095 811.52 1093.9 808.434 1096.03z"/>
<path style="fill:#f5ecf4; stroke:none;" d="M809.438 1097.03C804.929 1100.18 808 1119.57 808 1125C808 1130.7 804.935 1148.33 808.757 1152.4C811.351 1155.16 817.6 1154 821 1154L851 1154C854.556 1154 860.482 1155.1 863.566 1152.97C868.643 1149.48 865 1131.69 865 1126C865 1119.35 868.573 1103.93 864.82 1098.43C862.355 1094.82 855.735 1096 852 1096L822 1096C818.468 1096 812.49 1094.89 809.438 1097.03z"/>
<path style="fill:#020102; stroke:none;" d="M522.228 1213.08C517.212 1216.5 520 1233.51 520 1239C520 1245.75 517.167 1260.92 521.179 1266.55C523.466 1269.76 529.646 1268.02 533 1268C542.999 1267.95 553 1268 563 1268C566.122 1268 571.779 1269.05 574.397 1266.97C578.652 1263.6 576 1247.1 576 1242C576 1235.18 578.838 1220.07 574.972 1214.32C572.551 1210.71 566.545 1212.9 563 1212.99C553.033 1213.23 542.967 1213.2 533 1212.99C529.975 1212.92 524.911 1211.26 522.228 1213.08z"/>
<path style="fill:#7984a7; stroke:none;" d="M1039 1262L1039 1264L1041 1264L1041 1262L1039 1262M1038 1268L1039 1269L1038 1268z"/>
<path style="fill:#020102; stroke:none;" d="M579.603 1271.03C575.348 1274.4 578 1290.9 578 1296C578 1302.41 574.983 1319.29 579.028 1324.4C581.261 1327.22 587.849 1326 591 1326L621 1326C624.073 1326 629.694 1327.05 632.258 1324.97C636.563 1321.49 634 1306.12 634 1301C634 1293.95 636.945 1278.27 632.972 1272.32C630.679 1268.88 624.52 1270 621 1270L591 1270C587.879 1270 582.221 1268.95 579.603 1271.03M924 1500L980 1500L980 1337L980 1291C980 1285.8 981.667 1277.04 979.258 1272.32C977.385 1268.65 970.367 1270 967 1270C956.475 1270 935.694 1265.96 926.318 1270.74C922.501 1272.69 924 1280.49 924 1284L924 1316C923.998 1320.2 924.593 1325.31 919.941 1327.26C914.445 1329.56 905.876 1328 900 1328L856 1328L703 1328L652 1328C647.631 1328 636.546 1325.91 635.742 1332.06C634.166 1344.11 636.058 1357.78 635.999 1370C635.983 1373.45 634.157 1379.63 636.757 1382.4C639.73 1385.56 648.063 1384 652 1384L693 1384L861 1384L905 1384C909.444 1384 917.958 1382.16 921.682 1384.9C927.118 1388.9 924 1407.79 924 1414L924 1500z"/>
<path style="fill:#7984a7; stroke:none;" d="M982 1497L982 1500L983 1500L982 1497z"/>
</svg>
