<?xml version="1.0" standalone="yes"?>
<svg xmlns="http://www.w3.org/2000/svg" width="1500" height="1500">
<path style="fill:#020202; stroke:none;" d="M0 0L0 1500L403 1500L403 522L404 522L405 692L445 692L458.972 690.397L460 681L460 656L460 559L459.997 531L458.208 521.028L444 520L407 519L407 518L446 518L459.972 516.258L461 502L461 463L462 463L462 501C462 504.731 460.577 512.302 463.028 515.397C465.147 518.073 471.02 517 474 517C484.331 517 494.67 516.881 505 517.004C508.318 517.043 514.792 519.139 516.933 515.678C520.421 510.041 517 491.937 517 485C517 480.33 519.355 466.163 515.397 463.028C512.302 460.577 504.731 462 501 462L463 462L463 461L502 461L516.258 459.972L518 446L518 406L519 406L520 445L521.603 458.771L546 460L613 460L837 460L897 460L920.682 458.566L923 446L923 408L924 408L924 445L925.318 459.106L939 461L979 461L979 462L941 462C937.269 462 929.698 460.577 926.603 463.028C923.927 465.147 925 471.02 925 474L925 505C925 508.023 923.76 514.878 926.603 516.933C928.733 518.472 932.595 517.144 935 517.039C942.308 516.723 949.685 517 957 517C961.67 517 975.837 519.355 978.972 515.397C981.423 512.302 980 504.731 980 501C980 488.587 980.025 476.351 981 464L982 464L982 503L983.603 516.972L998 518L1036 518L1036 519L999 520L984.603 521.028L983 532L983 564L983 692L1022 692L1036.4 690.972L1038 680L1038 649L1038 522L1039 522L1039 645L1039 676C1039 679.823 1037.87 685.941 1040.32 689.195C1043.17 692.979 1049.01 691.051 1053 691.004C1063.84 690.876 1075.25 690.108 1086 691.576C1089.8 692.095 1094.66 691.926 1096.4 696.109C1098.63 701.49 1097 710.234 1097 716L1097 761C1097 812.327 1101.47 865.894 1096.94 916.995C1096.57 921.199 1094.13 923.28 1090 923.807C1078.61 925.258 1064.66 924 1053 924C1048.98 924 1041.33 922.531 1039.51 927.344C1037.07 933.815 1039 944.12 1039 951L1039 1006L1039 1191L1038 1191L1038 1008L1038 952C1038 944.227 1039.9 933.608 1037.68 926.148C1036.36 921.679 1029.58 923 1026 923L996 923C992.878 923 987.221 921.954 984.603 924.028C980.348 927.398 983 943.902 983 949L983 1022C983 1122.36 982 1222.79 982 1323L981 1323L980.089 1289L979.682 1273.32L966 1271L925 1271L925 1309C925 1315.7 923.935 1322.35 928 1328L924 1328L924 1332L923 1332C919.181 1326.6 907.011 1329 901 1329L839 1329L689 1329L651 1329C647.557 1329 640.315 1327.25 637.617 1329.78C634.885 1332.35 636.765 1338.73 636.924 1342C637.485 1353.49 633.688 1368.96 636.357 1379.85C637.501 1384.52 645.451 1383 649 1383L690 1383L817 1383L851 1383C854.843 1383 861.332 1381.79 864.682 1384.03C870.083 1387.63 867 1407.06 867 1413L867 1500L910 1500C914.088 1500 921.96 1501.85 923 1497L924 1497L924 1500L1500 1500L1500 0L0 0z"/>
<path style="fill:#9f8875; stroke:none;" d="M521 403L522 404L521 403z"/>
<path style="fill:#bd6467; stroke:none;" d="M522 403L522 404C542.313 406.567 563.524 405 584 405L693 405C768.426 405 845.857 409.931 921 404C911.538 400.03 895.27 403 885 403L804 403L522 403z"/>
<path style="fill:#9f8875; stroke:none;" d="M910 403L911 404L910 403M921 403L922 404L921 403z"/>
<path style="fill:#bd6467; stroke:none;" d="M519 404L519 406L521 406L521 404L519 404M922.333 404.667L922.667 405.333L922.333 404.667z"/>
<path style="fill:#9f8875; stroke:none;" d="M518 406L519 407L518 406z"/>
<path style="fill:#bd6467; stroke:none;" d="M518 407L519 456L520 456L520 422L518 407M923 408L924 409L923 408z"/>
<path style="fill:#9f8875; stroke:none;" d="M518 409L518 446L516.258 459.397L503 461L469 461L469 462L502 462L515.682 463.028L518 475L518 506L515.682 516.972L504 518L476 518L463.603 516.397L462 499L461 499L459.397 516.258L446 518L410 518L410 519L445 519C448.68 519.001 455.127 518.163 458.106 520.85C463.209 525.449 460 544.5 460 551L460 638L460 677C460 682.151 458.403 688.75 464 691C460.814 677.617 463 661.729 463 648L463 564L463 534C463 530.528 462.079 525.178 464.603 522.357C467.265 519.383 473.444 520.994 477 521L507 521C510.859 521 516.441 521.877 519.258 518.566C521.776 515.606 521 510.591 521 507L521 478C521 473.691 519.08 465.676 524.073 463.603C529.463 461.367 538.225 463 544 463L589 463L744 463L872 463L906 463C909.843 463 916.332 461.792 919.682 464.028C923.437 466.534 922 474.146 922 478C922 487.297 922.436 496.716 921.921 506C921.706 509.876 920.242 515.119 922.941 518.486C925.581 521.779 931.286 520.999 935 521L965 521C968.525 520.999 975.82 519.24 978.307 522.357C980.442 525.034 979.005 530.788 979 534L979 564L979 648C979 661.729 981.186 677.617 978 691C983.386 688.835 982 682.998 982 678L982 639L982 551C982 544.216 978.752 525.292 984.318 520.603C987.61 517.829 994.007 519 998 519L1031 519L1031 518L996 518C992.309 518 985.431 519.284 983.028 515.682C978.821 509.378 982 492.498 982 485L981 485C981 492.264 984.221 509.956 979.397 515.682C976.758 518.814 971.633 518 968 518L938 518C934.497 518 928.337 519.13 925.603 516.397C923.019 513.812 924 508.306 924 505L924 475C924 471.434 923.001 465.39 926.434 463.028C933.533 458.141 954.41 462 963 462L963 461L937 461L925.893 459.106L924 447L924 416L923 416L923 448C923 451.673 924.013 457.58 919.852 459.397C913.193 462.304 901.222 460 894 460L832 460L617 460L549 460C542.184 460 528.146 462.671 522.279 458.972C518 456.275 519 449.285 519 445C518.999 434.628 522.008 418.551 518 409M923 409L923 414L924 414L923 409z"/>
<path style="fill:#bd6467; stroke:none;" d="M923.333 414.667L923.667 415.333L923.333 414.667M922 458L923 459L922 458M521 459L522 460L521 459M524.667 459.333L525.333 459.667L524.667 459.333M918 459L918 460L922 460L918 459z"/>
<path style="fill:#9f8875; stroke:none;" d="M463.667 461.333L464.333 461.667L463.667 461.333z"/>
<path style="fill:#bd6467; stroke:none;" d="M465 461L465 462L469 462L465 461M963 461L964 462L963 461z"/>
<path style="fill:#9f8875; stroke:none;" d="M964 461L964 462L973 462L964 461z"/>
<path style="fill:#bd6467; stroke:none;" d="M973 461L973 462L979 462L973 461M462 462L463 463L462 462M516 462L517 463L516 462M925 462L926 463L925 462M979.667 462.333L980.333 462.667L979.667 462.333z"/>
<path style="fill:#9f8875; stroke:none;" d="M461 463L462 464L461 463z"/>
<path style="fill:#bd6467; stroke:none;" d="M517 463L517 512L518 512C518 498.212 522.309 475.652 517 463z"/>
<path style="fill:#d1b7a9; stroke:none;" d="M522.333 464.028C518.953 466.359 520.999 474.417 521 478L521 507C520.999 510.863 521.557 515.576 518.566 518.566C515.379 521.754 510.103 521 506 521C496.334 521.001 486.666 521.046 477 520.999C473.636 520.983 467.264 519.061 464.603 521.618C459.461 526.561 463 548.078 463 555L463 653L463 680C463 682.803 462.082 687.975 464.603 689.972C469.009 693.462 482.533 691 488 691L553 691L723 691C749.21 691 776.958 688.32 802.995 690.63C808.88 691.152 809.367 696.192 809.13 701C808.59 711.96 809 723.027 809 734C809 738.378 807.206 746.855 813.059 747.852C825.016 749.889 838.862 747.981 851 748C854.524 748.005 861.539 749.754 863.397 745.757C867.73 736.432 864.016 717.296 864 707C863.993 702.686 862.343 696 865.707 692.568C870.085 688.1 885.13 691 891 691L954 691C959.467 691 972.991 693.462 977.397 689.972C979.749 688.109 978.999 683.617 979 681L979 657L979 558C979 548.719 978.474 539.261 979.089 530C979.297 526.879 980.809 522.108 976.851 520.693C973.823 519.61 969.212 520.984 966 520.999C956.667 521.044 947.333 521 938 521C933.627 521 926.907 522.058 923.579 518.486C920.679 515.375 921.893 509.805 921.975 505.961C922.182 496.315 922 486.647 922 477C922 473.17 923.664 464.746 918.852 463.318C910.558 460.856 898.649 463 890 463L827 463L620 463L549 463C542.481 463 527.802 460.254 522.333 464.028z"/>
<path style="fill:#bd6467; stroke:none;" d="M461 464L461 469L462 469L461 464M924 464L924 517L925 517L925 481L924 464z"/>
<path style="fill:#9f8875; stroke:none;" d="M981 464L981 470L982 470L981 464z"/>
<path style="fill:#bd6467; stroke:none;" d="M980 468L980 516L981 516L981.286 482L980 468z"/>
<path style="fill:#9f8875; stroke:none;" d="M461 469L461 477L462 477L461 469z"/>
<path style="fill:#bd6467; stroke:none;" d="M461 477L461 486L462 486L461 477z"/>
<path style="fill:#9f8875; stroke:none;" d="M981 478L981 484L982 484L981 478M461 486L461 494L462 494L461 486z"/>
<path style="fill:#bd6467; stroke:none;" d="M461 494L462 495L461 494z"/>
<path style="fill:#9f8875; stroke:none;" d="M461 495L461 498L462 498L461 495z"/>
<path style="fill:#bd6467; stroke:none;" d="M461 498L462 499L461 498M462 516L463 517L462 516M517 516L518 517L517 516M979 516L980 517L979 516M463 517L463 518L512 518C499.348 512.691 476.788 517 463 517M516 517L517 518L516 517M925 517L926 518L925 517M930 517L930 518L979 518C966.348 512.691 943.788 517 930 517z"/>
<path style="fill:#9f8875; stroke:none;" d="M407.667 518.333L408.333 518.667L407.667 518.333z"/>
<path style="fill:#bd6467; stroke:none;" d="M409 518L410 519L409 518M984 519L984 520L1034 519L1019 519L984 519z"/>
<path style="fill:#9f8875; stroke:none;" d="M1034.67 518.333L1035.33 518.667L1034.67 518.333z"/>
<path style="fill:#bd6467; stroke:none;" d="M404 519L404 521L406 521L406 519L404 519M410 519L410 520L455 520C443.299 515.09 422.742 519 410 519M457 519L458 520L457 519M1037.33 519.667L1037.67 520.333L1037.33 519.667M983 520L984 521L983 520M459 521L460 522L459 521M982 521L982 649L982 680C981.998 683.537 982.758 688.491 978.852 690.258C972.405 693.174 961.002 691 954 691L894 691C887.133 691 872.223 688.195 866.434 692.179C863.005 694.539 864 700.432 864 704L864 735C864 739.41 865.505 747.154 859.941 748.682C848.879 751.72 833.481 749 822 749C818.164 749 811.513 750.224 809.603 745.852C805.17 735.697 809 716.095 809 705C809 700.061 810.352 692.472 803.956 691.228C788.783 688.279 770.471 691 755 691L654 691L522 691C501.964 691 478.612 687.681 459 691L459 692C468.683 694.862 480.924 693 491 693L556 693L719 693C745.666 693 773.446 690.731 799.999 693.059C807.867 693.748 807 700.923 807 707L807 737C807 740.389 806.047 745.713 808.028 748.682C810.431 752.284 817.309 751 821 751C833.832 751 848.322 752.9 860.982 750.852C867.935 749.727 866.024 742.149 866.001 737C865.955 726.667 865.999 716.333 866 706C866 702.367 865.186 697.242 868.318 694.603C873.632 690.126 889.317 693 896 693L956 693C962.627 693 974.694 695.343 980.682 692.397C984.036 690.746 983 685.037 983 682L983 653L983 561C983 549.58 986.408 531.504 982 521M403 522L403 539L404 539L403 522M1038 522L1038 526L1039 526L1038 522M459.333 523.667L459.667 524.333L459.333 523.667z"/>
<path style="fill:#9f8875; stroke:none;" d="M1038 526L1038 531L1039 531L1038 526z"/>
<path style="fill:#bd6467; stroke:none;" d="M1038 531L1038 537L1039 537L1038 531z"/>
<path style="fill:#9f8875; stroke:none;" d="M1038.33 537.667L1038.67 538.333L1038.33 537.667M403.333 539.667L403.667 540.333L403.333 539.667z"/>
<path style="fill:#bd6467; stroke:none;" d="M1038 539L1038 547L1039 547L1038 539M403 541L403 1500L405 1500L405 820L405 624L405 568L403 541z"/>
<path style="fill:#9f8875; stroke:none;" d="M1038 547L1038 550L1039 550L1038 547z"/>
<path style="fill:#bd6467; stroke:none;" d="M1038 550L1039 551L1038 550z"/>
<path style="fill:#9f8875; stroke:none;" d="M1038 551L1038 556L1039 556L1038 551z"/>
<path style="fill:#bd6467; stroke:none;" d="M1038 556L1038 570L1039 570L1038 556z"/>
<path style="fill:#9f8875; stroke:none;" d="M1038 570L1038 576L1039 576L1038 570z"/>
<path style="fill:#bd6467; stroke:none;" d="M1038 576L1038 581L1039 581L1038 576z"/>
<path style="fill:#9f8875; stroke:none;" d="M1038 581L1038 599L1039 599L1038 581z"/>
<path style="fill:#bd6467; stroke:none;" d="M1038 599L1038 607L1039 607L1038 599z"/>
<path style="fill:#9f8875; stroke:none;" d="M1038 607L1038 614L1039 614L1038 607M403 613L403 618L404 618L403 613z"/>
<path style="fill:#bd6467; stroke:none;" d="M1038 614L1038 620L1039 620L1038 614z"/>
<path style="fill:#9f8875; stroke:none;" d="M1038 620L1038 631L1039 631L1038 620z"/>
<path style="fill:#bd6467; stroke:none;" d="M1038 631L1038 639L1039 639L1038 631z"/>
<path style="fill:#9f8875; stroke:none;" d="M1038.33 639.667L1038.67 640.333L1038.33 639.667z"/>
<path style="fill:#bd6467; stroke:none;" d="M1038 641L1039 642L1038 641z"/>
<path style="fill:#9f8875; stroke:none;" d="M1038 642L1038 652L1039 652L1038 642z"/>
<path style="fill:#bd6467; stroke:none;" d="M1038.33 652.667L1038.67 653.333L1038.33 652.667z"/>
<path style="fill:#9f8875; stroke:none;" d="M1038.33 654.667L1038.67 655.333L1038.33 654.667z"/>
<path style="fill:#bd6467; stroke:none;" d="M1038.33 656.667L1038.67 657.333L1038.33 656.667z"/>
<path style="fill:#9f8875; stroke:none;" d="M1038 658L1039 659L1038 658z"/>
<path style="fill:#bd6467; stroke:none;" d="M1038 659L1039 660L1038 659z"/>
<path style="fill:#9f8875; stroke:none;" d="M1038 660L1038 663L1039 663L1038 660z"/>
<path style="fill:#bd6467; stroke:none;" d="M1038 663L1039 664L1038 663z"/>
<path style="fill:#9f8875; stroke:none;" d="M1038 664L1038 681L1039 681L1038 664z"/>
<path style="fill:#bd6467; stroke:none;" d="M1038 681L1039 682L1038 681z"/>
<path style="fill:#9f8875; stroke:none;" d="M1038 682L1038 686L1039 686L1038 682z"/>
<path style="fill:#bd6467; stroke:none;" d="M1038 686L1039 687L1038 686z"/>
<path style="fill:#9f8875; stroke:none;" d="M1038 687L1041 691L1038 687z"/>
<path style="fill:#d1b7a9; stroke:none;" d="M402.333 689.667L402.667 690.333L402.333 689.667z"/>
<path style="fill:#bd6467; stroke:none;" d="M1038 689L1037 692C1054.53 696.173 1075.99 693 1094 693L1094 692L1057 691L1038 689z"/>
<path style="fill:#9f8875; stroke:none;" d="M801 690L801 691L805 691L801 690M869 690L869 691L872 691L869 690M876 690L877 691L876 690M402.333 691.667L402.667 692.333L402.333 691.667M806.667 691.333L807.333 691.667L806.667 691.333M865.667 691.333L866.333 691.667L865.667 691.333z"/>
<path style="fill:#d1b7a9; stroke:none;" d="M1042 691L1043 692L1042 691z"/>
<path style="fill:#9f8875; stroke:none;" d="M1047.67 691.333L1048.33 691.667L1047.67 691.333z"/>
<path style="fill:#d1b7a9; stroke:none;" d="M1083 691L1083 692L1086 692L1083 691z"/>
<path style="fill:#e70328; stroke:none;" d="M1096 693L941 693L893 693C885.972 693 876.85 691.453 870.059 693.318C864.496 694.846 866 702.59 866 707L866 735C866 738.542 867.116 743.971 865.512 747.227C863.115 752.094 856.457 751 852 751C839.482 751 826.468 752.034 814.001 750.941C807.468 750.369 807.011 745.503 807 740L807 707C807 703.011 808.414 695.595 803.852 693.603C799.55 691.725 792.621 693 788 693L753 693L631 693L519 693C500.341 693 480.527 694.901 462 692.714C447.859 691.046 433.238 692 419 692C415.213 692 406.809 690.389 404.546 694.318C402.672 697.572 403.999 703.367 404 707C404.004 717.376 403.11 727.639 403.004 738C402.962 742.107 401.997 748.292 407.059 749.682C423.955 754.322 448.707 750.151 466 749.053C488.142 747.648 510.809 749 533 749L564 749C567.81 749 573.514 747.991 576.258 751.318C581.626 757.827 578 777.818 578 786L578 881L578 912C578.001 915.291 577.118 920.486 581.148 921.682C596.104 926.122 618.354 922 634 922L753 922L792 922C795.476 922 803.532 923.478 805.972 920.397C809.462 915.991 807 902.468 807 897L807 834C807 827.626 803.61 808.515 812.019 807.148C824.358 805.142 838.492 807 851 807C854.794 807 861.396 805.767 864.421 808.589C868.183 812.097 866 823.294 866 828L866 885L866 911C866.001 913.873 865.187 918.905 867.742 920.972C872.189 924.57 886.425 922 892 922L960 922C985.304 922 1010.6 923.41 1036 923.215C1042.71 923.164 1049.16 921.589 1056 922.09C1065.63 922.796 1074.32 922.534 1084 922.104C1086.82 921.979 1091.09 923.508 1093.4 921.357C1096.57 918.405 1095 909.925 1095 906L1095 863L1095 751C1095 732.214 1092.57 711.488 1096 693z"/>
<path style="fill:#9f8875; stroke:none;" d="M808.333 692.667L808.667 693.333L808.333 692.667M864 693L865 694L864 693z"/>
<path style="fill:#bd6467; stroke:none;" d="M1096 694C1091.24 710.094 1095 732.198 1095 749L1095 866C1095 882.731 1099.56 907.525 1093 923C1098.47 921.185 1097 914.848 1097 910L1097 870L1097 746L1097 711C1097 705.65 1098.09 698.969 1096 694z"/>
<path style="fill:#9f8875; stroke:none;" d="M809 696L809 699L810 699L809 696M863 696L863 699L864 699L863 696M809 747L810 748L809 747M863 747L864 748L863 747z"/>
<path style="fill:#bd6467; stroke:none;" d="M983 863C972.329 870.994 951.837 867 939 867C934.519 867 927.083 868.269 923.742 864.486C920.885 861.25 922 854.974 922 851L922 815L922 770C922 765.012 920.406 756.576 923.028 752.148C925.765 747.526 933.492 749 938 749C952.576 749 970.628 746.016 984 752C980.854 746.872 975.423 748 970 748C958.669 748 947.33 748.127 936 747.996C931.678 747.946 924.168 745.859 921.318 750.314C917.304 756.589 920 770.752 920 778L920 839C920 846.29 917.765 858.074 920.893 864.772C923.091 869.476 930.791 868 935 868L972 868C976.621 867.998 982.707 868.861 983 863M695 862L694 862C686.199 871.841 660.659 867 649 867C644.335 867 637.954 868.021 634.742 863.772C630.709 858.435 633 846.379 633 840L633 777C633 770.501 630.398 756.585 634.742 751.318C638.981 746.179 654.881 749 661 749C670.079 749 687.755 745.502 694 753C696.149 746.443 685.95 748 682 748L644 748C639.807 748 633.307 746.656 632.228 752.059C630.494 760.748 632 771.143 632 780L632 836C632 843.28 628.969 859.449 633.179 865.566C635.885 869.499 643.91 868 648 868L683 868C688.56 867.998 693.934 868.533 695 862z"/>
<path style="fill:#9f8875; stroke:none;" d="M810 748L810 749L860 749C847.111 743.591 824.049 748 810 748M861.667 748.333L862.333 748.667L861.667 748.333M402.333 749.667L402.667 750.333L402.333 749.667z"/>
<path style="fill:#bd6467; stroke:none;" d="M459 752C487.604 752.887 517.169 751 546 751C551.944 751 571.22 747.922 574.821 753.318C579.688 760.612 576 780.334 576 789L576 882L576 913C576 916.037 574.964 921.746 578.318 923.397C582.122 925.268 588.845 924 593 924L628 924L754 924L793 924C796.88 924 804.386 925.407 807.397 922.397C811.364 918.429 809 905.269 809 900L809 836C809 829.626 805.61 810.515 814.019 809.148C825.414 807.296 838.449 809 850 809C853.503 809 859.663 807.869 862.397 810.603C866.138 814.345 864 826.068 864 831L864 889C864 896.284 860.453 916.993 865.742 922.397C870.463 927.219 889.498 924 896 924C924.269 924 953.962 921.457 982 925L982 1161L982 1233L983 1269C987.128 1242.55 983 1211.89 983 1185L983 1010L983 947C983 941.611 985.458 928.051 981.972 923.742C978.325 919.235 961.41 922 956 922L891 922C885.632 922 871.731 924.471 867.742 920.397C862.884 915.434 866 897.62 866 891L866 829C866 824.353 868.488 811.086 864.432 808.028C858.942 803.889 841.781 807 835 807C827.32 807 818.63 805.858 811.059 807.148C803.865 808.374 807 828.322 807 834L807 898C807 903.269 809.364 916.429 805.397 920.397C802.386 923.407 794.88 922 791 922L750 922L639 922C620.896 922 602.032 923.541 584.005 921.941C575.189 921.159 578 908.339 578 902L578 837L578 773C578 767.564 580.334 754.768 576.258 750.603C572.938 747.213 563.363 749 559 749L509 749L474 749C468.649 749 462.977 747.939 459 752z"/>
<path style="fill:#d1b7a9; stroke:none;" d="M635.434 750.028C632.198 752.255 633.001 757.626 633 761L633 793L633 846C633 851.157 631.036 861.516 635.434 865.258C641.358 870.298 659.504 867 667 867C673.036 867 685.441 869.349 690.566 865.821C693.995 863.461 693 857.568 693 854L693 823L693 770C693 765.238 695.023 754.23 691.397 750.603C686.352 745.559 665.912 749 659 749C653.108 749 640.406 746.605 635.434 750.028z"/>
<path style="fill:#9f8875; stroke:none;" d="M691 749L692 750L691 749z"/>
<path style="fill:#d1b7a9; stroke:none;" d="M924.318 750.028C921.063 752.2 922 757.659 922 761L922 793L922 846C922 850.765 920.008 861.545 923.742 865.142C929.222 870.419 948.743 867 956 867C961.927 867 973.595 869.216 978.682 865.821C981.931 863.653 981 858.342 981 855L981 823L981 769C981 764.765 983.046 752.918 979.397 750.028C973.873 745.653 954.974 749 948 749C942.003 749 929.426 746.619 924.318 750.028z"/>
<path style="fill:#9f8875; stroke:none;" d="M980 749L981 750L980 749z"/>
<path style="fill:#020202; stroke:none;" d="M405 750L405 1500L460 1500L460 929L460 795L460 763L458.258 751.028L444 750L405 750z"/>
<path style="fill:#9f8875; stroke:none;" d="M692 750L693 751L692 750M460 1500L463 1500L463 948L463 805L463 768L465 752C459.738 751.265 460.008 757.132 460 761L460 792L460 927L460 1500z"/>
<path style="fill:#d1b7a9; stroke:none;" d="M463 1500L864 1500L864 1415C864 1409.48 866.942 1390.63 862.397 1387.03C859.15 1384.46 850.929 1386 847 1386L807 1386L687 1386L653 1386C648.195 1386 641.572 1387.15 637.059 1385.26C631.631 1382.99 633 1375.75 633 1371L633 1343C633 1339.41 634.063 1333.72 632.397 1330.43C630.434 1326.57 622.526 1328 619 1328C608.86 1328 598.712 1328.18 588.576 1328.14C585.041 1328.13 580.32 1329.18 577.514 1326.47C573.869 1322.95 575.753 1317.38 575.845 1313C576.053 1303.04 576.381 1292.95 575.87 1283C575.715 1280 576.763 1275.02 574.968 1272.45C572.589 1269.04 564.6 1271 561 1271C549.518 1271 534.062 1273.72 523.019 1270.57C517.189 1268.9 518 1262.86 518 1258C517.999 1245.91 513.975 1225.26 518.603 1214.11C520.609 1209.28 526.731 1210 531 1210L565 1210C569.051 1210 574.493 1209.16 577.008 1213.15C579.159 1216.56 578.088 1221.22 578.014 1225C577.831 1234.32 577.971 1243.67 578.001 1253C578.011 1256.3 576.716 1264.7 579.604 1266.97C582.23 1269.04 587.873 1268 591 1268L621 1268C625.337 1268 632.343 1266.71 634.972 1271.15C640.058 1279.74 636 1301.06 636 1311C636 1314.4 634.519 1322.46 637.603 1324.81C641.081 1327.45 650.748 1326 655 1326L702 1326L861 1326C874.999 1326 889.001 1326.07 903 1326C907.062 1325.98 916.318 1327.09 919.682 1324.96C923.454 1322.56 922 1314.78 922 1311C922 1301.33 922.069 1291.67 921.997 1282C921.971 1278.53 920.699 1273.31 922.937 1270.3C925.309 1267.11 930.538 1268 934 1268L965 1268C968.637 1268 976.697 1269.48 978.883 1265.68C981.829 1260.57 979 1246.09 979 1240L979 1173L979 925L895 925C888.188 925 870.441 928.134 865.603 922.566C861.688 918.061 864 905.661 864 900L864 837C864 831.628 866.838 813.697 862.397 810.179C857.268 806.117 841.374 809 835 809C827.991 809 819.964 808.013 813.055 809.151C805.873 810.335 809 830.356 809 836L809 900C809 905.355 811.604 918.821 807.48 922.736C803.766 926.261 796.669 925 792 925L752 925L635 925C618.536 925 596.927 928.75 581.005 924.682C570.33 921.955 575 892.721 575 884L575 788C575 779.668 574.908 771.331 575.004 763C575.034 760.39 576.293 755.888 574.731 753.603C572.388 750.175 561.666 752 558 752L510 752L477 752C473.825 751.999 467.291 750.431 464.603 752.269C461.756 754.215 463 761.056 463 764L463 797L463 934L463 1500z"/>
<path style="fill:#9f8875; stroke:none;" d="M467 751L467 752L575 752L542 751L467 751M693 751L693 864L694 864C695.633 855.633 694 845.609 694 837L694 780C694 772.188 697.38 757.412 693 751z"/>
<path style="fill:#020202; stroke:none;" d="M695 751L695 804L695 849C695 852.294 693.391 861.591 696.603 863.651C701.78 866.971 717.729 864 724 864C728.956 864 744.679 866.554 747.972 862.397C751.349 858.133 749 845.278 749 840L749 777C749 771.398 751.585 756.792 747.397 752.603C744.386 749.593 736.88 751 733 751L695 751z"/>
<path style="fill:#9f8875; stroke:none;" d="M981 751L981 865L982 865C984.267 855.479 983 844.749 983 835L983 780C983 772.177 985.819 757.361 981 751z"/>
<path style="fill:#020202; stroke:none;" d="M983 864L1021 864C1024.73 864 1032.3 865.423 1035.4 862.972C1039.65 859.602 1037 843.098 1037 838L1037 775C1037 769.722 1039.35 756.867 1035.97 752.603C1032.68 748.446 1016.96 751 1012 751C1005.78 751 989.57 748.094 984.603 752.028C981.401 754.564 983 763.368 983 767L983 811L983 864z"/>
<path style="fill:#9f8875; stroke:none;" d="M575 753L576 754L575 753M575 756L575 922L576 922L576 806C576 791.962 580.406 768.883 575 756z"/>
<path style="fill:#bd6467; stroke:none;" d="M694 760L694 859L695 859L695 790L694 760z"/>
<path style="fill:#9f8875; stroke:none;" d="M819 809L820 810L819 809M862 809L863 810L862 809M692 864L693 865L692 864M980 865L981 866L980 865M809.333 916.667L809.667 917.333L809.333 916.667M809 920L810 921L809 920M864.333 921.667L864.667 922.333L864.333 921.667M808 922L809 923L808 922z"/>
<path style="fill:#bd6467; stroke:none;" d="M1038 926L1064 924C1058.55 921.104 1040.45 919.023 1038 926M1080 922L1080 923L1093 924L1080 922z"/>
<path style="fill:#9f8875; stroke:none;" d="M807 923L808 924L807 923M865 923L866 924L865 923M578 924L578 925L806 925L785 924L739 924L578 924M867 924L867 925L979 925L945 924L867 924M979 925L979 1176L979 1242C979 1247.63 981.52 1261.08 978.227 1265.68C975.669 1269.26 968.781 1268 965 1268L934 1268C930.797 1268 925.311 1267 922.869 1269.6C920.172 1272.47 921.836 1277.55 921.964 1281C922.334 1290.98 922 1301.02 922 1311C922 1315.12 923.354 1322.58 918.852 1324.88C914.598 1327.06 904.862 1326 900 1326L858 1326L704 1326L658 1326C652.809 1326 642.877 1327.39 638.318 1324.73C634.526 1322.52 636 1314.66 636 1311L636 1282C636 1278.61 636.954 1273.29 634.972 1270.32C632.466 1266.56 624.854 1268 621 1268L591 1268C587.74 1268 582.138 1269 579.617 1266.4C577.071 1263.77 578.039 1256.44 578.004 1253C577.897 1242.61 582.159 1222.28 577.485 1213.15C575.275 1208.83 569.026 1210 565 1210L531 1210C527.181 1210 520.55 1208.91 518.603 1213.23C516.911 1216.98 518 1222.96 518 1227L518 1258C518 1262.34 516.743 1268.97 522.059 1270.57C532.944 1273.83 548.637 1271 560 1271C563.797 1271 571.536 1269.44 574.382 1272.52C576.509 1274.83 575.363 1279.14 575.615 1282C576.551 1292.64 575.807 1303.36 575.584 1314C575.498 1318.14 573.757 1324.01 577.514 1327.14C580.296 1329.46 584.698 1328.31 588 1328.29C597.995 1328.23 607.995 1328 618 1328C621.921 1328 629.371 1326.65 631.972 1330.43C633.967 1333.33 633 1338.67 633 1342L633 1371C633 1375.63 631.311 1383.84 637.059 1385.57C651.82 1389.99 673.564 1386 689 1386L805 1386L847 1386C851.062 1386 859.256 1384.46 862.397 1387.6C867.124 1392.33 864 1410.58 864 1417L864 1500L867 1500L867 1413C867 1406.56 870.116 1388.05 863.772 1384.18C859.908 1381.82 853.339 1383 849 1383L816 1383L690 1383C676.343 1383 662.644 1382.7 649 1383.26C645.017 1383.42 636.967 1384.95 636.009 1379.53C633.944 1367.85 636 1353.89 636 1342C636 1338.5 634.87 1332.34 637.603 1329.6C640.479 1326.73 647.306 1328 651 1328L688 1328L837 1328L901 1328C907.552 1328 919.229 1325.55 923 1332L924 1332L926 1328L926 1327C920.599 1315.78 924 1297.34 924 1285C924 1280.96 922.83 1274.54 926.318 1271.6C929.44 1268.97 935.22 1270 939 1270C948.515 1270 977.358 1265.31 981 1276L982 1276L982 1160L982 925L979 925M1038.33 926.667L1038.67 927.333L1038.33 926.667z"/>
<path style="fill:#bd6467; stroke:none;" d="M1038.33 928.667L1038.67 929.333L1038.33 928.667z"/>
<path style="fill:#9f8875; stroke:none;" d="M1038 930L1038 933L1039 933L1038 930z"/>
<path style="fill:#bd6467; stroke:none;" d="M1038.33 933.667L1038.67 934.333L1038.33 933.667z"/>
<path style="fill:#9f8875; stroke:none;" d="M1038 935L1038 942L1039 942L1038 935z"/>
<path style="fill:#bd6467; stroke:none;" d="M1038 942L1038 946L1039 946L1038 942z"/>
<path style="fill:#9f8875; stroke:none;" d="M1038 946L1038 949L1039 949L1038 946z"/>
<path style="fill:#bd6467; stroke:none;" d="M1038 949L1038 953L1039 953L1038 949z"/>
<path style="fill:#9f8875; stroke:none;" d="M1038 953L1038 958L1039 958L1038 953z"/>
<path style="fill:#bd6467; stroke:none;" d="M1038.33 958.667L1038.67 959.333L1038.33 958.667z"/>
<path style="fill:#9f8875; stroke:none;" d="M1038 960L1038 964L1039 964L1038 960z"/>
<path style="fill:#bd6467; stroke:none;" d="M1038 964L1038 970L1039 970L1038 964z"/>
<path style="fill:#9f8875; stroke:none;" d="M1038 970L1038 973L1039 973L1038 970z"/>
<path style="fill:#bd6467; stroke:none;" d="M1038 973L1038 976L1039 976L1038 973z"/>
<path style="fill:#9f8875; stroke:none;" d="M1038 976L1038 984L1039 984L1038 976z"/>
<path style="fill:#bd6467; stroke:none;" d="M1038 984L1038 987L1039 987L1038 984z"/>
<path style="fill:#9f8875; stroke:none;" d="M1038 987L1038 993L1039 993L1038 987z"/>
<path style="fill:#bd6467; stroke:none;" d="M1038 993L1038 1008L1039 1008L1038 993z"/>
<path style="fill:#9f8875; stroke:none;" d="M1038 1008L1038 1013L1039 1013L1038 1008z"/>
<path style="fill:#bd6467; stroke:none;" d="M1038 1013L1038 1018L1039 1018L1038 1013z"/>
<path style="fill:#9f8875; stroke:none;" d="M1038 1018L1038 1026L1039 1026L1038 1018z"/>
<path style="fill:#bd6467; stroke:none;" d="M1038 1026L1038 1042L1039 1042L1038 1026z"/>
<path style="fill:#9f8875; stroke:none;" d="M636.109 1036.74C631.917 1038.55 632.021 1043.11 632.001 1047C631.95 1056.67 632 1066.33 632 1076L632 1173C632 1182.49 628.179 1202.59 633.179 1210.77C635.864 1215.16 642.648 1214 647 1214L677 1214C680.045 1214 686.269 1212.72 688.762 1214.82C691.518 1217.14 690 1224.8 690 1228L690 1258C690 1261.39 689.127 1266.72 691.742 1269.4C694.277 1271.99 699.732 1271 703 1271L732 1271L826 1271C836.194 1271 855.509 1274.77 864.697 1270.4C868.95 1268.37 867.999 1260.82 868 1257L868 1227C867.995 1223.91 866.532 1218 868.693 1215.49C871.206 1212.57 878.555 1214 882 1214L912 1214C915.387 1214 920.725 1214.87 923.397 1212.26C925.827 1209.88 925 1205.07 925 1202L925 1174L925 1073L925 1048C925 1044.93 925.827 1040.12 923.397 1037.74C919.72 1034.14 909.735 1036 905 1036L856 1036L700 1036L656 1036C650.182 1036 641.53 1034.41 636.109 1036.74z"/>
<path style="fill:#bd6467; stroke:none;" d="M687 1212L687 1211L650 1211C645.964 1211 639.542 1212.17 636.603 1208.68C631.346 1202.44 635 1181.96 635 1174L635 1079L635 1052C635 1048.67 634.282 1044.07 636.603 1041.32C639.925 1037.38 648.418 1039 653 1039L699 1039L865 1039L905 1039C910.766 1039 917.7 1037.61 922 1042C922.157 1035.38 902.749 1038 898 1038L819 1038L683 1038L649 1038C645.244 1038 638.677 1036.81 635.742 1039.74C630.358 1045.13 634 1066.65 634 1074L634 1173L634 1200C634.001 1203.13 633.292 1207.81 635.742 1210.26C638.821 1213.34 646.051 1212 650 1212L687 1212z"/>
<path style="fill:#020202; stroke:none;" d="M690 1211L690 1127C690 1119.77 686.789 1102.03 691.603 1096.32C696.637 1090.34 718.624 1094 726 1094L828 1094L856 1094C859.39 1094 863.833 1093.38 866.258 1096.32C870.834 1101.87 868 1117.12 868 1124L868 1184C868 1190.63 865.657 1202.69 868.603 1208.68C870.339 1212.21 876.811 1211 880 1211L911 1211C914.637 1211 920.479 1212.02 922.243 1207.85C923.6 1204.65 922.097 1200.36 922.015 1197C921.803 1188.34 922 1179.66 922 1171L922 1079C922 1069.72 921.459 1060.26 922.089 1051C922.325 1047.54 924.083 1042.45 920.566 1040.03C917.485 1037.9 911.553 1039 908 1039L878 1039L761 1039L669 1039C662.088 1039 641.648 1035.56 636.603 1040.6C631.454 1045.75 635 1066.93 635 1074L635 1172L635 1199C635 1202.1 634.178 1206.97 636.603 1209.4C639.614 1212.41 647.12 1211 651 1211L690 1211z"/>
<path style="fill:#9f8875; stroke:none;" d="M1038 1042L1038 1097L1039 1097L1039 1060L1038 1042z"/>
<path style="fill:#bd6467; stroke:none;" d="M922 1047L922 1203L923 1203L923 1094C923 1080.75 927.107 1059.17 922 1047M692 1094L693 1095L692 1094M865 1094L866 1095L865 1094z"/>
<path style="fill:#d1b7a9; stroke:none;" d="M692 1212L819 1212L852 1212C855.328 1212 861.615 1213.18 864.397 1210.97C868.652 1207.6 866 1191.1 866 1186L866 1120C866 1114.44 868.505 1100.58 863.682 1096.76C860.964 1094.6 857.132 1095.83 854 1095.96C845.694 1096.31 837.313 1096 829 1096L731 1096L703 1096C700.197 1096 695.025 1095.08 693.028 1097.6C688.763 1102.99 692 1121.21 692 1128L692 1212z"/>
<path style="fill:#bd6467; stroke:none;" d="M690 1096L691 1097L690 1096M867 1097L867 1209L868 1209L868 1131L867 1097M1038 1097L1038 1113L1039 1113L1038 1097z"/>
<path style="fill:#9f8875; stroke:none;" d="M1038 1113L1038 1121L1039 1121L1038 1113z"/>
<path style="fill:#bd6467; stroke:none;" d="M1038 1121L1038 1133L1039 1133L1038 1121z"/>
<path style="fill:#9f8875; stroke:none;" d="M1038 1133L1038 1185L1039 1185L1039 1150L1038 1133z"/>
<path style="fill:#bd6467; stroke:none;" d="M1038 1185L1038 1188L1039 1188L1038 1185z"/>
<path style="fill:#9f8875; stroke:none;" d="M1038 1188L1038 1191L1039 1191L1038 1188z"/>
<path style="fill:#bd6467; stroke:none;" d="M922.333 1208.67L922.667 1209.33L922.333 1208.67M868 1210L869 1211L868 1210M921 1210L922 1211L921 1210M688.667 1211.33L689.333 1211.67L688.667 1211.33M869 1211L870 1212L869 1211M871 1211L871 1212L921 1212C908.11 1206.59 885.049 1211 871 1211M523 1212L523 1213L526 1213L523 1212M570 1212L570 1213L573 1213L570 1212M521 1213L522 1214L521 1213z"/>
<path style="fill:#020202; stroke:none;" d="M522.603 1214.03C518.348 1217.4 521 1233.9 521 1239C521 1245.09 518.083 1261.6 522.028 1266.38C524.162 1268.97 531.017 1267.02 534 1267C543.662 1266.95 553.338 1266.89 563 1267C565.789 1267.04 571.005 1268.66 573.397 1266.93C577.62 1263.88 575 1246.87 575 1242C575 1235.78 577.906 1219.57 573.972 1214.6C571.739 1211.78 565.151 1213 562 1213L534 1213C530.878 1213 525.221 1211.95 522.603 1214.03z"/>
<path style="fill:#bd6467; stroke:none;" d="M574 1213L575 1214L574 1213M575 1214L575 1267L576 1267L576 1231L575 1214z"/>
<path style="fill:#020202; stroke:none;" d="M693 1214L693 1253C693 1256.88 691.593 1264.39 694.603 1267.4C699.753 1272.55 720.926 1269 728 1269L826 1269L853 1269C856.101 1269 860.971 1269.82 863.397 1267.4C866.407 1264.39 865 1256.88 865 1253L865 1214L693 1214z"/>
<path style="fill:#bd6467; stroke:none;" d="M520 1215L520 1266L521 1266C521 1251.69 525.508 1228.13 520 1215M692 1215L692 1267L693 1267L693 1232L692 1215M865 1219L865 1267L866 1267C866 1253.47 870.209 1231.41 865 1219z"/>
<path style="fill:#9f8875; stroke:none;" d="M1038 1226L1038 1229L1039 1229L1038 1226z"/>
<path style="fill:#bd6467; stroke:none;" d="M1038 1229L1039 1230L1038 1229z"/>
<path style="fill:#9f8875; stroke:none;" d="M1038.33 1230.67L1038.67 1231.33L1038.33 1230.67z"/>
<path style="fill:#bd6467; stroke:none;" d="M1038.33 1232.67L1038.67 1233.33L1038.33 1232.67z"/>
<path style="fill:#9f8875; stroke:none;" d="M1038 1234L1038 1237L1039 1237L1038 1234z"/>
<path style="fill:#bd6467; stroke:none;" d="M1038.33 1237.67L1038.67 1238.33L1038.33 1237.67z"/>
<path style="fill:#9f8875; stroke:none;" d="M1038 1239L1039 1240L1038 1239z"/>
<path style="fill:#bd6467; stroke:none;" d="M1038 1240L1039 1241L1038 1240z"/>
<path style="fill:#9f8875; stroke:none;" d="M1038 1241L1038 1244L1039 1244L1038 1241z"/>
<path style="fill:#bd6467; stroke:none;" d="M1038.33 1244.67L1038.67 1245.33L1038.33 1244.67z"/>
<path style="fill:#9f8875; stroke:none;" d="M1038 1246L1038 1251L1039 1251L1038 1246z"/>
<path style="fill:#bd6467; stroke:none;" d="M1038 1251L1039 1252L1038 1251z"/>
<path style="fill:#9f8875; stroke:none;" d="M1038 1252L1039 1253L1038 1252z"/>
<path style="fill:#bd6467; stroke:none;" d="M1038 1253L1038 1256L1039 1256L1038 1253z"/>
<path style="fill:#9f8875; stroke:none;" d="M1038 1256L1038 1260L1039 1260L1038 1256z"/>
<path style="fill:#bd6467; stroke:none;" d="M1038 1260L1038 1264L1039 1264L1038 1260z"/>
<path style="fill:#9f8875; stroke:none;" d="M1038.33 1264.67L1038.67 1265.33L1038.33 1264.67z"/>
<path style="fill:#bd6467; stroke:none;" d="M521 1267L522 1268L521 1267M526 1267L526 1268L570 1268C558.537 1263.19 538.48 1267 526 1267M574 1267L575 1268L574 1267M693 1267L693 1269L695 1269L693 1267M864 1267L865 1268L864 1267M863 1268L864 1269L863 1268M695 1269L695 1270L699 1270L695 1269M859 1269L859 1270L862 1270L859 1269z"/>
<path style="fill:#d1b7a9; stroke:none;" d="M983.333 1269.67L983.667 1270.33L983.333 1269.67z"/>
<path style="fill:#bd6467; stroke:none;" d="M580 1270L580 1271L631 1271C617.873 1265.49 594.311 1270 580 1270M926 1270L926 1271L973 1271C960.823 1265.89 939.265 1270 926 1270M977 1270L978 1271L977 1270M578.333 1271.67L578.667 1272.33L578.333 1271.67z"/>
<path style="fill:#020202; stroke:none;" d="M579.782 1272.03C576.47 1274.91 579 1290.56 579 1295C579 1301.24 575.867 1318.42 579.269 1323.4C581.215 1326.24 588.056 1325 591 1325L620 1325C623.122 1325 628.779 1326.05 631.397 1323.97C635.455 1320.76 633 1305.81 633 1301C633 1294.59 636.017 1277.71 631.972 1272.6C629.739 1269.78 623.151 1271 620 1271L591 1271C588.032 1271 582.203 1269.92 579.782 1272.03z"/>
<path style="fill:#bd6467; stroke:none;" d="M632 1271L633 1272L632 1271M979 1271L980 1272L979 1271M633 1272L633 1276L634 1276L633 1272M924 1272L924 1325L925 1325L925 1289L924 1272M980.333 1273.67L980.667 1274.33L980.333 1273.67M578 1275L578 1321L579 1321C579 1308 583.01 1286.94 578 1275M981.333 1276.67L981.667 1277.33L981.333 1276.67z"/>
<path style="fill:#9f8875; stroke:none;" d="M981 1278L981 1282L982 1282L981 1278z"/>
<path style="fill:#bd6467; stroke:none;" d="M981.333 1282.67L981.667 1283.33L981.333 1282.67z"/>
<path style="fill:#9f8875; stroke:none;" d="M981 1284L982 1285L981 1284z"/>
<path style="fill:#bd6467; stroke:none;" d="M980 1285L980 1321L981 1321L982 1285L980 1285z"/>
<path style="fill:#9f8875; stroke:none;" d="M981.333 1286.67L981.667 1287.33L981.333 1286.67M981 1291L981 1323L982 1323L981 1291z"/>
<path style="fill:#bd6467; stroke:none;" d="M633 1318L633 1324L634 1324L633 1318M578.333 1323.67L578.667 1324.33L578.333 1323.67M632 1324L633 1325L632 1324M580 1325L580 1326L632 1326L615 1325L580 1325M925 1325L927 1328L925 1325z"/>
<path style="fill:#e70328; stroke:none;" d="M927 1327L928 1328L927 1327z"/>
<path style="fill:#bd6467; stroke:none;" d="M937 1327L938 1328L937 1327z"/>
<path style="fill:#9f8875; stroke:none;" d="M938 1327L938 1328L945 1328L938 1327z"/>
<path style="fill:#bd6467; stroke:none;" d="M945.667 1327.33L946.333 1327.67L945.667 1327.33z"/>
<path style="fill:#9f8875; stroke:none;" d="M947 1327L947 1328L965 1328L947 1327z"/>
<path style="fill:#bd6467; stroke:none;" d="M965 1327L966 1328L965 1327z"/>
<path style="fill:#9f8875; stroke:none;" d="M966 1327L966 1328L970 1328L966 1327M971.667 1327.33L972.333 1327.67L971.667 1327.33z"/>
<path style="fill:#bd6467; stroke:none;" d="M637.667 1328.33L638.333 1328.67L637.667 1328.33M641 1328L641 1329L921 1329L896 1328L839 1328L641 1328M636 1329L637 1330L636 1329M921.667 1329.33L922.333 1329.67L921.667 1329.33M636 1334L636 1337L637 1337L636 1334M636 1338L636 1376L637 1376C637 1365.09 640.211 1348.04 636 1338M635 1380L636 1381L635 1380M636 1382L637 1383L636 1382M638 1383L638 1384L642 1384L638 1383M646 1383L646 1384L649 1384L646 1383M863 1383L863 1384L866 1387L867 1387L863 1383M866 1391L867 1392L866 1391z"/>
<path style="fill:#9f8875; stroke:none;" d="M923 1497L923 1500L924 1500L923 1497z"/>
</svg>
