<?xml version="1.0" standalone="yes"?>
<svg xmlns="http://www.w3.org/2000/svg" width="1500" height="1500">
<path style="fill:#020201; stroke:none;" d="M0 0L0 1500L402 1500L402 806L402 605L402 547C402 539.571 399.805 527.987 402.603 521.059C404.707 515.851 411.481 517 416 517L447 517C449.98 517 455.853 518.073 457.972 515.397C460.175 512.615 459 506.328 459 503L459 473C459 468.899 458.316 464.049 461.724 461.032C464.95 458.176 470.022 459 474 459C483.753 459 493.297 458.738 503 458.089C506.382 457.863 514.563 460.345 516.397 456.678C520.959 447.552 517 427.231 517 417C517 413.079 515.654 405.629 519.434 403.028C525.212 399.05 539.212 401 546 401L613 401L835 401C856.669 401 878.411 400.432 900 401.911C906.226 402.337 916.165 399.88 921.736 402.988C926.945 405.895 926 413.021 926 418C926 427.988 922.147 447.765 926.603 456.678C928.383 460.237 935.73 457.916 939 458.286C948.617 459.375 958.322 459 968 459C971.626 459 977.438 457.928 980.347 460.603C983.602 463.597 982.998 469.025 983 473L983 503C983 506.328 981.825 512.615 984.028 515.397C986.368 518.351 993.684 517 997 517C1006.51 517 1032.78 512.479 1038.85 520.773C1041.8 524.808 1041 530.291 1041 535L1041 567L1041 691L1041 1106L1041 1220L1041 1252C1041 1256.52 1041.99 1262.44 1039.77 1266.56C1036.76 1272.15 1030.4 1271 1025 1271C1010.97 1271 996.965 1271.88 983 1272L983 1500L1500 1500L1500 0L0 0z"/>
<path style="fill:#e00b2d; stroke:none;" d="M529 401L529 402L533 402L529 401z"/>
<path style="fill:#6f4b89; stroke:none;" d="M405 1500C402.037 1473.23 405.644 1445.87 404.985 1419C403.379 1353.43 404 1287.66 404 1222L404 672L404 560C404 550.671 403.88 541.316 404.346 532C404.506 528.794 403.651 523.938 406.333 521.603C409.21 519.098 414.487 520 418 520L448 520C451.455 520 458.838 521.579 461.307 518.593C463.644 515.766 462 508.496 462 505C461.999 493.407 459.381 478.226 462.318 467.019C463.931 460.862 471.055 462 476 462C488.787 462 506.116 458.964 518 464C523.654 452.852 520 433.446 520 421C520 416.569 518.306 407.592 523.148 405.117C528.782 402.238 542.511 405 549 405L616 405L835 405L896 405C902.155 405 914.448 402.507 919.852 405.269C924.357 407.57 923 414.864 923 419C923 428.626 923.474 438.392 922.866 448C922.653 451.358 920.622 457.75 922.777 460.643C925.112 463.775 932.58 462.001 936 462L967 462C970.306 462 975.812 461.019 978.397 463.603C981.272 466.479 980 473.306 980 477L980 507C979.999 510.13 978.717 515.982 980.773 518.593C983.049 521.483 989.767 520.001 993 520L1025 520C1028.52 520 1034.68 518.882 1036.97 522.318C1039.21 525.668 1038 532.157 1038 536L1038 569L1038 696L1038 733C1038 736.694 1039.27 743.521 1036.4 746.397C1033.39 749.407 1025.88 748 1022 748C1009.19 748 994.494 749.974 982 747C983.655 751.987 988.46 751 993 751L1025 751C1028.89 751 1035.73 749.815 1037.8 754.148C1041.5 761.855 1037.66 778.304 1038.04 787C1039.4 818.067 1038 849.745 1038 881C1038 890.333 1037.96 899.667 1038 909C1038.02 912.188 1039.26 916.934 1037.32 919.707C1034.89 923.173 1029.59 922.012 1026 922.001L996 922C991.012 922 983.883 920.328 982 926C994.79 922.955 1009.88 925 1023 925C1026.85 925 1034.47 923.563 1036.97 927.318C1040.15 932.084 1038 943.426 1038 949L1038 1004C1038 1052.13 1037.48 1099.89 1037.26 1148C1037.17 1168.85 1041.12 1189.99 1037.88 1211C1035.94 1223.56 1038 1238.22 1038 1251C1038 1255.21 1039.47 1262.94 1036.97 1266.57C1034.37 1270.35 1026.92 1269 1023 1269C1010.35 1269 992.281 1272.35 981 1266L978 1270L980 1291L980 1335L980 1500L983 1500L983 1341L983 1294C983 1288.36 981.263 1279.34 983.333 1274.08C984.773 1270.43 993.58 1271.03 997 1271C1007.33 1270.9 1017.67 1271 1028 1271C1032.98 1271 1037.93 1271.99 1040.36 1266.61C1042.48 1261.93 1041 1254.08 1041 1249L1041 1210L1041 1072L1041 692L1041 576C1041 560.308 1045.05 538.241 1040.69 523.222C1037.41 511.899 1006.69 517 997 517C993.426 517 985.943 518.456 983.722 514.889C981.918 511.991 983 506.289 983 503L983 474C983 470.029 984.321 462.444 980.528 459.722C977.778 457.749 971.248 459 968 459C958.16 459 947.71 459.985 938 458.389C934.882 457.876 928.631 459.849 926.722 456.889C924.896 454.056 926 448.24 926 445L926 417C926 412.594 927.195 405.556 922.694 402.722C917.382 399.378 904.224 402.173 898 402C877.727 401.437 857.375 401 837 401L610 401L543 401C537.827 401 522.487 399.602 518.5 402.722C515.595 404.996 517 412.749 517 416L517 445C517 448.24 518.104 454.056 516.278 456.889C514.657 459.403 505.972 458.917 503 459C493.018 459.277 482.987 459 473 459C469.168 459 463.855 457.922 460.889 460.889C457.637 464.141 459 470.785 459 475L459 503C459 506.289 460.082 511.991 458.278 514.889C456.142 518.32 449.424 517 446 517L414 517C410.732 517 404.766 515.828 402.722 519.111C400.456 522.751 402 530.82 402 535L402 575L402 723L402 1277L402 1447L402 1487C402 1491.09 400.147 1498.96 405 1500z"/>
<path style="fill:#e00b2d; stroke:none;" d="M893 401L893 402L897 402L893 401z"/>
<path style="fill:#020201; stroke:none;" d="M522.318 405.042C519.043 407.121 520 412.725 520 416L520 448C520 451.576 518.679 458.355 523.148 459.682C531.442 462.144 543.351 460 552 460L615 460L823 460L894 460C900.253 460 915.315 462.769 920.436 458.972C923.421 456.759 922.857 451.183 922.95 447.911C923.25 437.288 923.001 426.627 923 416C923 412.041 924.054 405.672 918.941 404.523C910.911 402.72 899.393 405 891 405L827 405L623 405L549 405C542.896 405 527.247 401.915 522.318 405.042z"/>
<path style="fill:#e00b2d; stroke:none;" d="M499 458L499 459L508 459L499 458M938 458L938 459L941 459L938 458z"/>
<path style="fill:#18951a; stroke:none;" d="M460 980C487.373 980 514.683 979 542 979C551.14 979 566.459 976.046 574.867 979.742C579.213 981.653 578.98 987.001 578.999 991C579.051 1001.66 579.051 1012.34 578.999 1023C578.983 1026.46 576.59 1034.43 580.434 1036.4C586.266 1039.38 598.497 1037 605 1037L667 1037L888 1037L956 1037C961.805 1037 975.694 1039.55 980.397 1035.82C985.029 1032.15 982 1012.65 982 1007C982 979.008 981.646 950.983 982 923L898 923C890.768 923 873.032 926.211 867.318 921.397C861.445 916.448 865 895.229 865 888L865 789L865 762C865.002 758.586 864.388 754.072 867.318 751.603C873.032 746.789 890.768 750 898 750L982 750L982 582L982 538C982 533.281 983.689 524.39 980.972 520.318C978.569 516.716 971.691 518 968 518L937 518C933.809 518 928.206 519.014 925.779 516.397C923.331 513.759 924.942 508.226 924.989 504.985C925.135 494.994 925.001 484.992 925 475C925 470.765 926.294 463.458 921.827 460.988C917.263 458.465 909.074 460 904 460L860 460L702 460L566 460L532 460C528.497 460 522.337 458.87 519.603 461.603C516.728 464.479 518 471.306 518 475L518 504C518 507.389 518.954 512.713 516.972 515.682C514.8 518.937 509.341 518 506 518L474 518C470.309 518 463.431 516.716 461.028 520.318C456.496 527.109 460 545.907 460 554L460 643L460 980z"/>
<path style="fill:#020201; stroke:none;" d="M464.318 463.028C459.198 466.444 462 483.45 462 489C462 495.374 459.117 511.268 463.179 516.397C465.406 519.208 471.859 518 475 518L505 518C508.122 518 513.779 519.046 516.397 516.972C520.652 513.602 518 497.098 518 492C518 485.161 520.833 470.103 516.972 464.318C514.679 460.882 508.52 462 505 462L476 462C472.611 462 467.287 461.046 464.318 463.028M926.407 463.028C922.265 466.07 925 484.004 925 489C925 494.775 921.688 512.037 925.19 516.411C927.426 519.205 933.861 518 937 518L967 518C970.122 518 975.779 519.046 978.397 516.972C982.652 513.602 980 497.098 980 492C980 485.589 983.017 468.71 978.972 463.603C976.739 460.784 970.151 462 967 462L938 462C934.752 462 929.188 460.985 926.407 463.028M404 1499C420.376 1503.84 442.901 1500 460 1500L460 739L460 578L460 537C460 533.071 461.544 524.85 458.972 521.603C456.739 518.784 450.151 520 447 520C436.17 520 417.061 516.267 407.148 520.603C402.696 522.551 404.116 530.844 404.13 534.83C404.179 548.881 404 562.945 404 577C404 636.298 405 695.583 405 755C405 918.497 404 1081.54 404 1245C404 1299.32 403.358 1353.68 404.004 1408C404.361 1438.01 406.485 1469.04 404 1499M983.603 521.028L982 536L982 581L982 699L982 732L982.603 745.682L995 748L1025 748L1036.4 746.972L1038 732L1038 687L1038 569L1038 536L1037.4 522.318L1025 520L995 520L983.603 521.028z"/>
<path style="fill:#f7f9f7; stroke:none;" d="M636.434 751.028C631.726 754.268 634 767.003 634 772L634 836L634 899C634 904.436 631.666 917.232 635.742 921.397C638.121 923.827 642.935 923 646 923L674 923L770 923C778.51 923 798.557 926.727 805.682 921.972C810.404 918.821 808 905.016 808 900L808 836L808 775C808 769.214 810.267 757.256 806.972 752.318C804.934 749.263 800.15 750.001 797 750L768 750L672 750C663.643 750 643.359 746.261 636.434 751.028M867.318 751.028C862.701 754.108 865 767.121 865 772L865 835L865 897C865 902.997 862.619 915.574 866.028 920.682C868.066 923.737 872.85 922.999 876 923L904 923C936.349 923 968.725 922 1001 922C1009.33 922 1017.67 921.918 1026 922.004C1029.25 922.037 1033.87 923.204 1036.68 921.103C1040.59 918.176 1038 905.58 1038 901L1038 839L1038 777C1038 771.448 1040.72 757.89 1037.93 753.318C1036.05 750.226 1031.04 751.001 1028 751L999 751C967.066 751 935.01 750 903 750C894.49 750 874.443 746.273 867.318 751.028z"/>
<path style="fill:#6f4b89; stroke:none;" d="M694.603 809.028C690.251 812.475 693 829.761 693 835C693 841.411 689.983 858.29 694.028 863.397C696.261 866.216 702.849 865 706 865L736 865C739.323 865 744.679 865.972 747.566 863.972C752.052 860.864 749 843.279 749 838C749 831.559 752.139 815.57 748.806 810.318C746.616 806.866 740.451 808 737 808L706 808C702.879 808 697.221 806.954 694.603 809.028M925.438 809.028C921.066 812.087 924 829.809 924 835C924 841.51 920.935 857.29 924.218 862.682C926.329 866.149 932.602 865 936 865L967 865C970.122 865 975.779 866.046 978.397 863.972C982.749 860.525 980 843.239 980 838C980 831.681 983.011 814.734 978.972 809.742C976.641 806.861 970.243 808 967 808L937 808C933.691 808 928.305 807.021 925.438 809.028z"/>
<path style="fill:#020201; stroke:none;" d="M695 810L695 863L734 863L746.883 861.397L747 834L746.357 811.028L732 810L695 810M926.618 811.028L926 834L926.067 861.397L938 863L967 863L977.357 861.972L978 839L977.933 811.603L966 810L938 810L926.618 811.028M983.603 926.028C981.082 928.025 982 933.197 982 936L982 965L982 1019C982 1023.09 980.061 1034.17 983.603 1036.97C988.849 1041.13 1006.4 1038 1013 1038C1018.47 1038 1031.99 1040.46 1036.4 1036.97C1038.92 1034.98 1038 1029.8 1038 1027L1038 998L1038 944C1038 939.913 1039.94 928.833 1036.4 926.028C1031.15 921.873 1013.6 925 1007 925C1001.53 925 988.009 922.538 983.603 926.028z"/>
<path style="fill:#6f4b89; stroke:none;" d="M981 929L982 930L981 929M460 980L460 1065C460 1071.79 456.763 1090.01 461.028 1095.4C463.468 1098.48 471.524 1097 475 1097L504 1097C507.389 1097 512.713 1096.05 515.682 1098.03C519.437 1100.53 518 1108.15 518 1112L518 1142C518 1145.51 517.104 1150.7 519.603 1153.57C522.556 1156.96 528.973 1155.75 533 1155.93C541.159 1156.28 549.867 1156.6 558 1155.83C562.249 1155.43 567.748 1153.84 571.877 1155.6C576.769 1157.69 575 1165.76 575 1170C574.999 1183.73 577.186 1199.62 574 1213L575 1214C585.712 1211.45 598.024 1213 609 1213L674 1213L882 1213L958 1213C963.775 1213 979.694 1215.79 983 1211L690 1211L611 1211C603.069 1211 587.053 1214.06 580.148 1209.97C575.77 1207.38 577.264 1200.3 577.075 1196C576.652 1186.38 576.893 1176.63 577.004 1167C577.044 1163.52 578.462 1158.59 576.552 1155.43C574.239 1151.61 566.747 1153 563 1153L534 1153C530.611 1153 525.287 1153.95 522.318 1151.97C518.563 1149.47 520 1141.85 520 1138C520 1126.3 522.857 1110.36 519.682 1099.11C518.137 1093.63 510.346 1095 506 1095L476 1095C472.651 1095 467.217 1096.11 464.318 1094.09C459.385 1090.65 462 1075.39 462 1070L462 1005C462 999.779 459.594 986.296 464.318 982.832C468.92 979.457 482.337 982 488 982C508.723 982 529.283 981 550 981C556.017 981 569.8 978.463 574.527 982.742C577.36 985.307 576.016 990.618 576.001 994C575.955 1004.33 576 1014.67 576 1025C576 1028.75 574.821 1035.49 578.434 1037.97C584.387 1042.07 600.872 1039 608 1039L686 1039L983 1039L982 1036C953.306 1041.33 920.191 1037 891 1037L711 1037L623 1037C610.724 1037 593.903 1040.03 582.11 1036.68C576.718 1035.15 578.993 1027.18 579 1023L579 992C578.999 988.446 579.84 982.575 576.486 980.179C570.248 975.722 552.537 979 545 979C516.667 979 488.381 980 460 980z"/>
<path style="fill:#e00b2d; stroke:none;" d="M465.148 981.832C459.271 984.014 462 1000.89 462 1006L462 1072C462 1077.01 459.626 1090.6 463.603 1094.22C466.278 1096.65 472.662 1095.01 476 1095L506 1095C509.888 1095 515.53 1094.13 518.397 1097.43C520.894 1100.31 520 1105.49 520 1109L520 1139C520 1142.47 518.493 1150.51 522.318 1152.4C531.323 1156.83 550.943 1153 561 1153C565.049 1153 572.206 1151.69 575.421 1154.74C578.18 1157.36 577.027 1162.62 577.003 1166C576.93 1176.31 576.784 1186.66 577.05 1196.96C577.165 1201.4 575.454 1209.14 581.059 1210.68C590.982 1213.41 604.706 1211 615 1211L688 1211L924 1211C951.376 1211 978.678 1212 1006 1212C1013.47 1212 1030.39 1215.17 1036.68 1210.97C1042.45 1207.13 1039 1184.46 1039 1178L1039 1076L1039 1048C1038.99 1044.69 1039.51 1040.2 1035.85 1038.6C1028.49 1035.39 1015 1038 1007 1038C983.321 1038 959.719 1039 936 1039L685 1039L609 1039C601.418 1039 585.783 1041.98 579.228 1037.97C575.281 1035.56 576.002 1029.95 576 1026C575.996 1015.67 575.951 1005.33 576.001 995C576.017 991.603 577.838 985.445 575.243 982.742C570.889 978.209 554.916 981 549 981C529.612 981 510.386 982 491 982C483.935 982 471.616 979.43 465.148 981.832z"/>
<path style="fill:#18951a; stroke:none;" d="M460 1096L460 1500L925 1500L925 1415C925 1407.89 928.163 1390.29 923.062 1384.74C920.767 1382.25 916.031 1383 913 1383L885 1383L773 1383L668 1383C661.046 1383 637.561 1386.8 636.148 1377.99C634.266 1366.26 636 1352.89 636 1341C636 1337.42 634.948 1331.47 638.148 1328.91C641.406 1326.31 650.025 1328 654 1328L696 1328L862 1328L905 1328C909.627 1328 917.659 1329.51 921.682 1326.82C925.434 1324.32 924 1316.86 924 1313L924 1284C924 1280.61 923.046 1275.29 925.028 1272.32C927.431 1268.72 934.309 1270 938 1270L970 1270C974.195 1270 979.311 1270.59 981.258 1265.94C985.57 1255.64 982 1237.15 982 1226C982 1222.63 983.354 1215.61 979.682 1213.74C971.987 1209.82 955.598 1213 947 1213L866 1213L576 1213L576 1252C576 1255.57 577.497 1263.06 575.088 1265.97C572.677 1268.88 567.321 1268 564 1268L534 1268C530.45 1268 524.236 1269.11 521.889 1265.68C517.776 1259.68 521 1242.25 521 1235C521 1230.16 518.595 1216.9 522.553 1213.51C526.065 1210.51 532.827 1212.95 537 1213C549.733 1213.15 562.336 1213 575 1212L575 1170C575.002 1166.1 577.182 1157.62 572.768 1155.6C568.303 1153.56 561.643 1155.39 557 1155.83C548.949 1156.6 540.046 1156.48 532 1155.73C528.204 1155.37 523.325 1156.43 520.318 1153.56C517.091 1150.48 518 1145.03 518 1141L518 1111C518 1107.67 519.175 1101.38 516.972 1098.6C514.435 1095.4 505.632 1097 502 1097C488.576 1097 473.087 1099.12 460 1096z"/>
<path style="fill:#e00b2d; stroke:none;" d="M1041 1154L1041 1157L1042 1157L1041 1154M1041.33 1172.67L1041.67 1173.33L1041.33 1172.67z"/>
<path style="fill:#020201; stroke:none;" d="M522.529 1213.07C518.202 1215.99 521 1234.02 521 1239C521 1244.64 518.022 1262.28 521.693 1266.4C524.179 1269.18 530.673 1268 534 1268L563 1268C566.122 1268 571.779 1269.05 574.397 1266.97C578.652 1263.6 576 1247.1 576 1242C576 1235.22 578.846 1220.03 574.972 1214.32C572.647 1210.89 566.447 1212.96 563 1213C553.009 1213.11 542.991 1213.11 533 1213C530.113 1212.96 525.049 1211.36 522.529 1213.07z"/>
<path style="fill:#6f4b89; stroke:none;" d="M526 1212L526 1213L531 1213L526 1212z"/>
<path style="fill:#020201; stroke:none;" d="M983.603 1213.03C979.348 1216.4 982 1232.9 982 1238C982 1245.19 979.102 1260.46 982.988 1266.63C985.156 1270.08 991.582 1269 995 1269L1025 1269C1028.22 1269 1033.69 1269.97 1036.4 1267.82C1040.65 1264.46 1038 1248.09 1038 1243C1038 1236.4 1041.13 1218.85 1036.97 1213.6C1034.74 1210.78 1028.15 1212 1025 1212L995 1212C991.879 1212 986.221 1210.95 983.603 1213.03z"/>
<path style="fill:#6f4b89; stroke:none;" d="M576 1264L577 1265L576 1264z"/>
<path style="fill:#020201; stroke:none;" d="M579.742 1271.03C575.54 1274.43 578 1289.03 578 1294C578 1301.23 574.937 1317.59 579.028 1323.68C581.449 1327.29 587.455 1325.1 591 1325.01C600.962 1324.77 611.038 1324.77 621 1325.01C624.302 1325.1 629.723 1327.03 632.396 1324.39C635.891 1320.94 633 1306.89 633 1302C633 1295.27 636.519 1277.69 632.971 1272.32C630.698 1268.88 624.506 1270 621 1270L591 1270C587.927 1270 582.306 1268.95 579.742 1271.03z"/>
<path style="fill:#6f4b89; stroke:none;" d="M925 1270L924 1272L925 1270z"/>
<path style="fill:#020201; stroke:none;" d="M925 1500L980 1500L980 1332L980 1288C980 1283.89 981.639 1275.21 979.012 1271.79C976.809 1268.93 970.112 1270 967 1270C956.166 1270 937.068 1266.27 927.148 1270.6C922.586 1272.6 924 1280.01 924 1284L924 1316C923.998 1320.14 924.609 1325.51 919.941 1327.4C914.485 1329.6 905.825 1328 900 1328L856 1328L703 1328L652 1328C646.697 1328 636.721 1325.74 636.059 1333.02C634.956 1345.14 636 1357.83 636 1370C636 1373.33 634.815 1379.82 637.603 1382.31C640.436 1384.83 649.332 1383 653 1383L695 1383L862 1383L905 1383C909.691 1383 917.588 1381.52 921.697 1384.18C928.101 1388.32 925 1406.4 925 1413L925 1500z"/>
<path style="fill:#6f4b89; stroke:none;" d="M976 1270L977 1271L976 1270z"/>
<path style="fill:#e00b2d; stroke:none;" d="M985 1271L985 1272L988 1272L985 1271z"/>
<path style="fill:#6f4b89; stroke:none;" d="M633 1279L633 1318L634 1318C634 1306.83 637.311 1289.27 633 1279M639 1327L640 1328L639 1327M921 1327L922 1328L921 1327z"/>
</svg>
