<?xml version="1.0" standalone="yes"?>
<svg xmlns="http://www.w3.org/2000/svg" width="1500" height="1500">
<path style="fill:#020201; stroke:none;" d="M0 0L0 1500L402 1500L402 740L402 509L402 439C402 429.352 399.705 416.3 402.573 407.055C405.167 398.69 423.207 402 430 402L493 402C498.412 402 512.061 404.469 516.393 400.972C519.231 398.681 517.016 391.224 517.001 388C516.951 377.667 516.983 367.333 517 357C517.007 353.077 516.589 347.498 520.394 345.028C525.944 341.425 539.509 344 546 344L606 344C612.627 344 624.694 346.343 630.682 343.397C634.507 341.515 633 333.471 633 330L633 300C633 296.613 632.127 291.275 634.742 288.603C638.944 284.312 654.305 287 660 287C681.979 287 704.029 287.524 726 286.985C732.512 286.826 745.369 283.647 750.397 289.434C753.458 292.957 752 300.663 752 305L752 344L876 344L909 344C912.557 344 918.481 342.904 921.566 345.028C924.999 347.39 924 353.435 924 357C924.001 367.702 924.068 377.546 924.001 388.001C923.978 391.499 922.516 399.319 926.318 401.258C932.324 404.32 944.336 402 951 402L1010 402C1016.97 402 1030.89 399.361 1036.74 403.564C1044.91 409.438 1041.94 435.887 1040.87 444.961C1040.29 449.912 1036.42 456.716 1042.48 460.062C1049.09 463.71 1058.13 459.045 1065 459.001C1085.66 458.867 1106.33 459 1127 459C1133.95 459 1145.4 456.806 1151.41 460.804C1158.62 465.604 1156 477.448 1156 485L1156 551C1156 557.803 1158.93 572.998 1151.74 577.012C1144.41 581.097 1128.31 578 1120 578L1041 578L1040.98 645.004L1041 745L1041 1089L1041 1223L1041 1256L1038.28 1268.97L1022 1271.99L983 1272L983 1500L1500 1500L1500 0L0 0z"/>
<path style="fill:#eaa945; stroke:none;" d="M731 286L731 287L741 287L731 286M634 287L634 288L637 288L634 287z"/>
<path style="fill:#999898; stroke:none;" d="M633 346L557 346C544.988 346 530.311 348.334 519 344L521 347C514.831 355.143 519 377.839 519 388C519 391.778 520.572 400 516.276 401.923C509.754 404.842 500.889 402.625 494 403.089C472.495 404.538 450.437 401.289 429 403.715C423.099 404.383 407.32 400.546 404.029 406.148C401.037 411.241 403.708 423.178 403.961 429C404.744 447.052 404.221 465.994 403.741 484C401.785 557.31 402 631.292 402 705L402 1500L403 1500L403 831L403 621C403 603.517 404.633 585.441 403.901 568.089C403.268 553.066 400.48 535.784 404 521C408.54 530.854 405.461 548.247 405.054 559.089C404.92 562.657 403.455 571.479 406.603 573.972C409.698 576.423 417.269 575 421 575C432.704 575 445.407 573.598 457 575.209C516.644 583.496 578.873 573.254 639 578L639 577L634 576C636.618 563.959 634 548.475 634 536C634 531.453 632.581 523.992 636.279 520.553C641.975 515.256 663.382 519 671 519L769 519L1028 519L1112 519C1124.82 519 1139.42 521.002 1152 519C1155.12 532.087 1153 547.576 1153 561C1153 564.752 1154.6 572.454 1151.45 575.218C1148.22 578.045 1138.22 576.244 1134 576.441C1117.2 577.222 1099.77 577.81 1083 576.869C1072.33 576.27 1061.69 575.872 1051 576.011C1045.97 576.076 1040.74 575.502 1039 581L1041 578L1135 578C1139.95 578 1147.12 579.292 1151.74 577.272C1156.38 575.243 1157.63 567.174 1154 564L1154 563L1154 562C1156.65 560.064 1156.71 535.983 1154 534L1154 533L1154 532C1156.03 530.231 1156.03 528.768 1154 527L1154 526C1156.42 524.228 1154 515.479 1154 512L1154 475C1154 471.79 1155.4 464.284 1152.52 462.065C1148.66 459.084 1138.73 461.677 1134 461.241C1115.35 459.52 1090.73 457.274 1072 462C1070.19 459.482 1068.25 458.435 1066 461L1065 461L1064 461L1062 459L1061 462C1055.4 460.345 1045.9 463.451 1041.27 460.168C1037.9 457.786 1038.64 451.622 1038.26 447.961C1037.08 436.498 1035.13 417.236 1041 407C1032.64 400.983 1021.05 404.232 1011 403.985C994.436 403.58 977.619 402.768 961 403.304C950.963 403.628 937.768 406.453 928.019 403.201C922.962 401.513 923.009 396.459 923 392L923 360C923 356.493 924.499 348.688 920.682 346.742C916.829 344.778 910.215 346 906 346L873 346L752 346L751 288C723.233 282.845 691.245 287 663 287C656.858 287 638.212 283.915 634.318 289.514C631.545 293.501 633 301.39 633 306L633 346z"/>
<path style="fill:#eaa945; stroke:none;" d="M748 287L749 288L748 287M633.333 289.667L633.667 290.333L633.333 289.667z"/>
<path style="fill:#9b6b22; stroke:none;" d="M637 289L637 290L711 290L749 291C742.338 285.953 726.216 289 718 289L637 289z"/>
<path style="fill:#eaa945; stroke:none;" d="M751 289L751 343L752 343L752 307L751 289z"/>
<path style="fill:#585857; stroke:none;" d="M636 290L636 329C636 333.06 634.493 341.014 637.028 344.436C640.876 349.632 656.297 347 662 347L724 347C729.94 347 742.445 349.246 747.258 345.012C749.945 342.647 749 337.176 749 334L749 303C749 299.849 750.216 293.261 747.397 291.028C742.151 286.873 724.598 290 718 290L636 290z"/>
<path style="fill:#9b6b22; stroke:none;" d="M635 291L635 344L636 344L636 308L635 291M749.333 292.667L749.667 293.333L749.333 292.667z"/>
<path style="fill:#eaa945; stroke:none;" d="M632 343L595 344L521 344L521 346L606 346C610.021 346 633.716 347.552 632 343z"/>
<path style="fill:#9b6b22; stroke:none;" d="M748 344L749 345L748 344z"/>
<path style="fill:#eaa945; stroke:none;" d="M752 344L752 346L878 346L909 346L921.397 347.742L923 362L923 401C928.091 388.868 924 372.617 924 360C924 356.25 925.554 347.695 922.258 345.028C919.534 342.824 913.277 344 910 344L878 344L752 344z"/>
<path style="fill:#9b6b22; stroke:none;" d="M636 345L637 346L636 345z"/>
<path style="fill:#eaa945; stroke:none;" d="M518 346L517 402C520.658 398.803 519 390.577 519 386C519 373.742 516.169 357.401 521 346L518 346z"/>
<path style="fill:#9b6b22; stroke:none;" d="M743 346L743 347L746 347L743 346z"/>
<path style="fill:#eaa945; stroke:none;" d="M924 401C929.838 406.939 946.091 404.166 954 403.985C981.716 403.351 1009.27 404.191 1037 403L1037 402L964 402L924 401M406 402L406 403L514 403L481 402L406 402M516 402L517 403L516 402M403 406L406 403L403 406M1037 403L1038 404L1037 403M1038.33 404.667L1038.67 405.333L1038.33 404.667M402 406L402 519L403 519C406.738 498.864 402.177 476.449 403.039 456C403.658 441.323 407.95 419.794 402 406M1039 408L1038 450C1040.26 448.383 1041.3 447.027 1039 445L1039 444C1044.76 438.964 1041 415.652 1041 408L1039 408z"/>
<path style="fill:#999898; stroke:none;" d="M1039.67 444.333L1040.33 444.667L1039.67 444.333z"/>
<path style="fill:#eaa945; stroke:none;" d="M1038 452L1039 453L1038 452M1038.33 456.667L1038.67 457.333L1038.33 456.667M1039 458L1042 461L1039 458M1057 459C1058.82 461.327 1060.27 461.397 1062 459L1057 459M1064 459L1064 461L1066 461L1066 459L1064 459M1071 459L1072 462L1097 461L1097 459L1071 459M1100 459L1100 461L1120 461L1120 459L1100 459M1126 459L1126 461L1151 461L1151 459L1126 459M1042 461L1042 462L1045 462L1042 461M1152 461L1153 462L1152 461M1154 463L1154 523L1156 523L1156 463L1154 463z"/>
<path style="fill:#585857; stroke:none;" d="M1151 519C1104.64 521.431 1057.45 519 1011 519L730 519L664 519C656.952 519 643.416 516.303 637.148 519.407C632.822 521.55 634 528.049 634 532C634 542.333 633.951 552.667 634.001 563C634.017 566.373 633.538 572.495 636.589 574.821C642.021 578.963 656.649 575.702 663 575.174C679.535 573.797 697.252 575.841 714 575.104C775.464 572.401 838.342 576 900 576L961 576C966.283 576 977.526 572.97 980.972 578.303C982.93 581.332 982 586.566 982 590L982 617L982 720L982 1106L982 1230L982 1259C982.001 1262.29 981.118 1267.49 985.148 1268.68C996.219 1271.97 1012.44 1269 1024 1269C1027.68 1269 1034.54 1270.28 1037.4 1267.4C1039.96 1264.81 1038.32 1260.2 1038.43 1257C1038.78 1247.32 1039 1237.7 1039 1228L1039 1113L1039 753L1039 636C1039 618.105 1036.22 597.679 1039.15 580.044C1039.99 574.942 1044.79 575.023 1049 575.001C1058.33 574.952 1067.67 575 1077 575L1132 575C1136.34 575 1148.24 577.416 1151.4 574.382C1156.67 569.312 1152.08 547.984 1152 541C1151.92 533.765 1154.19 525.636 1151 519z"/>
<path style="fill:#9b6b22; stroke:none;" d="M1151 519L1152 520L1151 519M1152.33 520.667L1152.67 521.333L1152.33 520.667M404 521C399.557 536.03 404.031 554.556 403.832 570.015C403.411 602.621 403 635.327 403 668L404 668C404 632.634 404.261 597.295 405.014 562C405.237 551.514 409.936 529.737 404 521z"/>
<path style="fill:#585857; stroke:none;" d="M404 524L405 525L404 524z"/>
<path style="fill:#eaa945; stroke:none;" d="M1154.67 526.333L1155.33 526.667L1154.67 526.333z"/>
<path style="fill:#9b6b22; stroke:none;" d="M1152 528L1152 548L1153 548L1152 528z"/>
<path style="fill:#eaa945; stroke:none;" d="M1154 532L1154 534L1156 534L1156 532L1154 532M1154 537L1154 542L1156 542L1156 537L1154 537M1154 549L1154 555L1156 555L1156 549L1154 549z"/>
<path style="fill:#9b6b22; stroke:none;" d="M1152 550L1152 553L1153 553L1152 550M1152 554L1152 560L1153 560L1152 554z"/>
<path style="fill:#eaa945; stroke:none;" d="M1154 562L1154 564L1156 564L1156 562L1154 562z"/>
<path style="fill:#9b6b22; stroke:none;" d="M1153.33 571.667L1153.67 572.333L1153.33 571.667z"/>
<path style="fill:#585857; stroke:none;" d="M405 574L404 603L403.996 661L404 860L404 1500L405 1500L405 795L405 634L405 594L406.603 579.603L421 578L459 578L459 1500L460 1480L460 1438L460 1291L460 782L460 627L460 589L458.397 576.028L443 575L405 574z"/>
<path style="fill:#9b6b22; stroke:none;" d="M634 574C637.613 579.728 648.011 577 654 577L713 577L911 577C927.614 577.006 944.314 578 961 578C965.417 578 975.008 576.214 978.397 579.603C982.023 583.23 980 594.238 980 599L980 655L980 876L980 1160L980 1237C980 1244.1 983.192 1260.67 979.731 1266.68C977.546 1270.48 969.64 1269 966 1269L936 1269C932.879 1269 927.221 1267.95 924.603 1270.03C921.784 1272.26 923 1278.85 923 1282L923 1314C922.999 1317.83 923.765 1323.55 919.772 1325.78C915.034 1328.42 903.518 1326 898 1326L843 1326L704 1326C681.266 1326 657.618 1327.89 635 1326L635 1284C635 1280.15 636.437 1272.53 632.682 1270.03C629.713 1268.05 624.389 1269 621 1269L593 1269C588.776 1269 581.677 1270.33 578.603 1266.68C576.123 1263.74 577 1258.56 577 1255L577 1226C577 1222.15 578.437 1214.53 574.682 1212.03C571.52 1209.92 565.618 1211 562 1211L532 1211C528.537 1211 522.423 1209.86 519.742 1212.6C516.814 1215.59 518 1222.2 518 1226C518 1237.08 514.17 1256.75 518.742 1266.85C520.88 1271.58 528.816 1270 533 1270L563 1270C566.306 1270 571.812 1269.02 574.397 1271.6C576.981 1274.19 576 1279.69 576 1283L576 1314C576 1317.5 574.87 1323.66 577.603 1326.4C580.188 1328.98 585.694 1328 589 1328L619 1328C622.854 1328 630.466 1326.56 632.972 1330.32C634.954 1333.29 634 1338.61 634 1342L634 1371C634 1375.63 632.311 1383.84 638.059 1385.57C644.029 1387.36 650.939 1385.08 657 1385C671.662 1384.83 686.337 1385 701 1385L849 1385C866.666 1385 884.334 1384.92 902 1385C906.738 1385.02 917.076 1383.38 920.397 1387.32C925.099 1392.9 922 1409.95 922 1417L922 1500L925 1500L925 1413C925 1406.4 928.153 1388.08 921.721 1384.03C917.672 1381.47 909.618 1383 905 1383L863 1383L696 1383L653 1383C649.176 1383 640.692 1384.65 637.603 1382.09C634.795 1379.76 636 1373.21 636 1370C636 1358.14 635.011 1345.81 636.059 1334C636.77 1325.99 646.112 1328 652 1328L703 1328L858 1328L902 1328C907.406 1328 915.837 1329.59 920.852 1327.4C925.414 1325.4 924 1317.99 924 1314L924 1282C924.002 1277.93 923.368 1272.39 928.059 1270.62C931.542 1269.3 936.343 1270.95 940 1271C949.295 1271.11 958.716 1271.35 968 1270.87C971.553 1270.69 977.506 1269.84 979.821 1273.32C982.625 1277.53 981 1286.15 981 1291L981 1334L981 1500L982 1500L982 1345C982 1321.51 986.438 1292.84 981 1270C995.157 1272.63 1009.46 1269.37 1023.71 1270.69C1029.08 1271.19 1036.13 1272.48 1039 1267C1027.12 1272.04 1009.79 1269 997 1269C993.146 1269 985.534 1270.44 983.028 1266.68C978.719 1260.23 982 1242.68 982 1235L982 1150L982 723L982 614L982 587C982 584.04 982.864 579.16 980.397 576.938C975.846 572.841 963.705 576 958 576L893 576C833.683 576 774.229 575.029 715 575.029C698.25 575.029 680.697 574.511 664 575.043C653.845 575.367 643.85 577.59 634 574M1152 574L1151 576L1153 576L1152 574M459 575L460 576L459 575M1039 578C1053.05 573.872 1068.68 576.563 1083.09 576.95C1104.38 577.521 1125.75 576.87 1147 576C1140.08 573.097 1129.48 575 1122 575L1065 575C1058.42 575 1043.13 572.148 1039 578M460 576L460 1500L462 1500L462 868L462 668L462 605L462 576L460 576M1147 576L1147 577L1151 577L1147 576z"/>
<path style="fill:#eaa945; stroke:none;" d="M463 577C457.157 608.476 462 644.972 462 677L462 877L462 1500L922 1500L922 1418C922 1410.53 925.169 1393.61 920.972 1387.32C918.284 1383.29 908.276 1385.03 903.996 1385C887.666 1384.89 871.331 1385 855 1385L693 1385C679.754 1385 666.214 1384.18 653 1385.09C648.04 1385.43 640.638 1387.82 636.318 1384.26C633.177 1381.67 634 1376.61 634 1373L634 1342C634 1338.68 635.351 1331.37 632.397 1329.03C629.457 1326.7 622.531 1328 619 1328C609.056 1328 587.738 1332.06 579.148 1326.97C574.707 1324.34 576 1317.34 576 1313L576 1283C576 1279.88 577.046 1274.22 574.972 1271.6C572.532 1268.52 564.476 1270 561 1270C549.457 1270 534.187 1272.66 523.044 1269.68C517.684 1268.25 518.008 1262.47 518 1258C517.98 1246.08 514.137 1226.07 518.742 1215.06C520.689 1210.41 525.805 1211 530 1211L563 1211C567.127 1210.99 573.347 1209.55 576.272 1213.31C579.305 1217.2 578 1224.38 578 1229L578 1268L620 1268C624.909 1268 632.117 1266.73 634.782 1272.06C636.458 1275.41 635.018 1280.37 635.001 1284C634.956 1293.33 635 1302.67 635 1312C635 1315.47 633.493 1323.51 637.318 1325.4C641.784 1327.59 650.099 1326 655 1326L698 1326L852 1326L900 1326C905.396 1326 914.779 1327.81 919.682 1325.4C923.637 1323.45 922 1314.6 922 1311L922 1282C922 1278.13 921.313 1273.32 924.318 1270.32C927.323 1267.31 932.129 1268 936 1268C946 1268 956 1267.95 966 1268C969.582 1268.02 976.59 1270.19 978.972 1266.68C983.851 1259.48 980 1238.65 980 1230L980 1132L980 762L980 624L980 591C980 587.849 981.216 581.261 978.397 579.028C975.948 577.088 970.91 578 968 578L943 578L844 578C716.941 578 590.047 577 463 577z"/>
<path style="fill:#999898; stroke:none;" d="M641 577L641 578L921 578L896 577L839 577L641 577z"/>
<path style="fill:#020201; stroke:none;" d="M984.603 578.028C982.082 580.025 983 585.197 983 588L983 617L983 736L983 1161L983 1238C983 1244.41 979.983 1261.29 984.028 1266.4C987.475 1270.75 1004.76 1268 1010 1268C1015.85 1268 1030.71 1270.68 1035.4 1266.97C1037.92 1264.98 1037 1259.8 1037 1257L1037 1228L1037 1109L1037 684L1037 607C1037 600.589 1040.02 583.71 1035.97 578.603C1032.52 574.251 1015.24 577 1010 577C1004.15 577 989.29 574.316 984.603 578.028z"/>
<path style="fill:#eaa945; stroke:none;" d="M1152 577L1153 578L1152 577z"/>
<path style="fill:#020201; stroke:none;" d="M405 1500L459 1500L459 578L420 578L406.028 579.603L405 595L405 636L405 795L405 1500z"/>
<path style="fill:#eaa945; stroke:none;" d="M1039 581L1039 583L1041 583L1041 581L1039 581M1039 596L1039 606L1041 606L1041 596L1039 596M1039 639L1039 644L1041 644L1041 639L1039 639z"/>
<path style="fill:#9b6b22; stroke:none;" d="M1039 644L1039 650L1041 650L1041 644L1039 644z"/>
<path style="fill:#999898; stroke:none;" d="M1039 650L1039 664L1041 664L1041 650L1039 650z"/>
<path style="fill:#9b6b22; stroke:none;" d="M1039 664L1039 709L1041 709L1041 664L1039 664M403 671L403 683L404 683L403 671M403 689L403 700L404 700L403 689z"/>
<path style="fill:#999898; stroke:none;" d="M638 690L638 691L648 691L638 690M650 690L650 691L910 691L886 690L833 690L650 690M915 690L915 691L920 691L915 690M634 691L635 692L634 691z"/>
<path style="fill:#9b6b22; stroke:none;" d="M691 750L691 749C678.506 751.975 663.812 750 651 750C646.862 750 639.804 751.325 636.434 748.397C633.134 745.53 634 739.888 634 736L634 705C634.002 700.676 633.29 694.815 638.109 692.742C643.29 690.514 651.446 692 657 692L701 692L852 692L900 692C905.447 692 915.034 690.175 919.852 693.028C923.879 695.412 923 701.034 923 705L923 736C923 739.69 924.284 746.569 920.682 748.972C917.148 751.331 910.065 750 906 750C893.494 750 879.197 751.904 867 749C875.723 755.609 899.051 750.571 910 751.445C913.985 751.763 920.182 752.965 923.142 749.486C928.271 743.459 925 725.575 925 718C925 711.938 927.636 697.409 923.142 692.742C919.78 689.252 910.421 691 906 691L858 691L695 691L652 691C647.574 691 639.231 689.414 635.434 692.028C631.821 694.514 633 701.253 633 705L633 738C633 741.76 631.97 747.484 635.318 750.142C639.35 753.343 645.397 751.127 650 751.015C662.873 750.699 678.633 753.656 691 750z"/>
<path style="fill:#999898; stroke:none;" d="M922 691L923 692L922 691z"/>
<path style="fill:#585857; stroke:none;" d="M637.228 692.742C633.153 694.646 634.001 700.31 634 704L634 737C634 740.819 632.911 747.45 637.228 749.397C641.918 751.511 649.926 750 655 750C670.142 750 685.057 748.386 700 748.015C751.575 746.731 803.408 747.752 855 748.001C871.228 748.079 887.585 750 904 750C908.32 750 917.852 751.779 921.397 748.972C924.351 746.633 923 739.315 923 736L923 703C922.998 699.052 923.746 693.637 918.941 692.318C912.721 690.61 904.434 692 898 692L854 692L712 692L660 692C653.599 692 643.102 689.999 637.228 692.742z"/>
<path style="fill:#999898; stroke:none;" d="M633 693L634 694L633 693z"/>
<path style="fill:#020201; stroke:none;" d="M638.318 693.832C634.616 695.381 636 702.846 636 706L636 738C636 741.438 634.884 747.416 639.148 748.682C658.052 754.294 682.82 747.031 702 747C752.333 746.919 802.667 747 853 747C869.293 747 885.524 749 902 749C906.447 749 916.646 750.895 920.258 747.972C922.982 745.768 922 740.062 922 737L922 705C922 701.527 923.063 695.19 918.852 693.693C914.3 692.075 905.956 694 901 694L857 694L710 694L659 694C653.528 694 643.233 691.775 638.318 693.832z"/>
<path style="fill:#999898; stroke:none;" d="M924 694L925 695L924 694M1039 709L1039 1268L1041 1268L1041 709L1039 709z"/>
<path style="fill:#9b6b22; stroke:none;" d="M403 740L403 925L404 925L404 795L404 758L403 740z"/>
<path style="fill:#999898; stroke:none;" d="M924.333 747.667L924.667 748.333L924.333 747.667z"/>
<path style="fill:#9b6b22; stroke:none;" d="M694 748L695 749L694 748z"/>
<path style="fill:#999898; stroke:none;" d="M690 750L690 751L779 750L868 751C858.937 743.581 835.333 748 824 748L734 748C720.314 748 702.94 745.154 690 750M633 749L634 750L633 749M634 750L635 751L634 750M923 750L924 751L923 750M636.667 751.333L637.333 751.667L636.667 751.333M644 751L644 752L690 752C678.061 746.99 657.003 751 644 751M868 751L868 752L910 752C899.012 747.389 879.957 751 868 751M912 751L912 752L915 752L912 751M920.667 751.333L921.333 751.667L920.667 751.333M753 867L752 826L752.693 811.318L764 809L793 809L804.972 811.318L806 826L805 867C808.881 863.199 808 858.132 808 853L808 822C808 818.349 809.276 811.561 806.397 808.742C801.434 803.884 783.62 807 777 807C771.45 807 754.444 804.198 751.028 809.318C746.831 815.607 750 832.533 750 840C750 847.593 747.271 861.389 753 867z"/>
<path style="fill:#585857; stroke:none;" d="M753.322 810.028C749.022 812.944 752 831.812 752 837C752 843.133 749.099 859.402 753.028 864.258C755.359 867.139 761.757 866 765 866L792 866C795.389 866 800.713 866.954 803.682 864.972C808.897 861.492 806 843.682 806 838C806 831.778 808.906 815.57 804.972 810.603C802.739 807.784 796.151 809 793 809L765 809C761.633 809 756.261 808.035 753.322 810.028z"/>
<path style="fill:#020201; stroke:none;" d="M753 864L805 864L805 810L768 810L753.643 811.028L753 824L753 864z"/>
<path style="fill:#9b6b22; stroke:none;" d="M805 864L787 866L752 865L752 866C763.846 869.858 780.525 867 793 867C796.003 867 805.741 868.495 805 864M403 945L403 959L404 959L403 945M403 960L403 970L404 970L403 960M403 976L403 1053L404 1053L404 1000L403 976z"/>
<path style="fill:#999898; stroke:none;" d="M577 1037L576 1039L577 1037z"/>
<path style="fill:#9b6b22; stroke:none;" d="M578.228 1038.03C572.138 1041.75 576 1055.1 576 1061C576 1068.47 571.769 1091.18 577.514 1096.26C580.394 1098.8 585.465 1098 589 1098L619 1098C622.501 1097.99 629.607 1096.13 631.972 1099.45C633.99 1102.28 633 1107.72 633 1111L633 1140C633 1143.92 631.654 1151.37 635.434 1153.97C639.231 1156.59 647.574 1155 652 1155L695 1155L858 1155L906 1155C910.283 1155 919.938 1156.8 923.142 1153.4C925.899 1150.47 925 1144.66 925 1141L925 1108C924.998 1103.91 925.947 1096.78 920.867 1095.32C914.745 1093.55 906.354 1095 900 1095L855 1095L707 1095L660 1095C654.074 1095 644.634 1096.79 639.148 1094.4C634.414 1092.33 636 1084.13 636 1080L636 1051C636 1047.61 636.954 1042.29 634.972 1039.32C632.569 1035.72 625.691 1037 622 1037L591 1037C587.245 1037 581.572 1035.98 578.228 1038.03z"/>
<path style="fill:#999898; stroke:none;" d="M634 1037L635 1038L634 1037z"/>
<path style="fill:#585857; stroke:none;" d="M635 1096L635 1056C635 1051.79 636.466 1044.06 633.972 1040.43C631.61 1037 625.565 1038 622 1038L590 1038C586.164 1038 579.513 1036.78 577.603 1041.15C573.068 1051.54 577 1071.65 577 1083C577 1086.71 575.497 1094.3 580.148 1095.68C590.941 1098.89 606.727 1096 618 1096C621.88 1096 629.386 1094.59 632.397 1097.6C634.981 1100.19 634 1105.69 634 1109L634 1139C634 1142.92 632.654 1150.37 636.434 1152.97C640.573 1155.82 650.151 1154 655 1154L703 1154L859 1154L902 1154C907.203 1154 915.957 1155.67 920.682 1153.26C924.195 1151.47 923 1145.22 923 1142L923 1109C923 1105.63 924.354 1098.61 920.682 1096.74C914.676 1093.68 902.664 1096 896 1096L834 1096L758 1096L635 1096z"/>
<path style="fill:#020201; stroke:none;" d="M633 1095L633 1056C633 1052.23 634.865 1044.65 632.782 1041.45C630.675 1038.21 624.227 1039.98 621 1040C611.001 1040.05 600.999 1040.02 591 1040C587.903 1040 582.127 1038.64 579.603 1040.83C575.522 1044.38 578 1058.95 578 1064C578 1070.6 574.873 1088.15 579.028 1093.4C581.468 1096.48 589.524 1095 593 1095L633 1095z"/>
<path style="fill:#999898; stroke:none;" d="M575 1040L576 1041L575 1040M575 1050L575 1084L576 1084L575 1050z"/>
<path style="fill:#9b6b22; stroke:none;" d="M403 1080L403 1189L404 1189L404 1113L403 1080z"/>
<path style="fill:#999898; stroke:none;" d="M575 1085L575 1088L576 1088L575 1085M575.333 1093.67L575.667 1094.33L575.333 1093.67M637 1094L638 1095L637 1094M641 1094L641 1095L921 1095L896 1094L839 1094L641 1094M576 1096L577 1097L576 1096M578 1097L579 1098L578 1097M627 1097L627 1098L631 1098L627 1097z"/>
<path style="fill:#020201; stroke:none;" d="M637.603 1098.03C634.927 1100.15 636 1106.02 636 1109L636 1141C636 1144.19 634.791 1150.66 638.318 1152.4C642.783 1154.59 651.099 1153 656 1153L700 1153L855 1153L903 1153C907.416 1153 917.007 1154.79 920.397 1151.4C922.981 1148.81 922 1143.31 922 1140L922 1109C922 1105.33 923.013 1099.42 918.852 1097.6C913.837 1095.41 905.406 1097 900 1097L856 1097L704 1097L656 1097C651.487 1097 641.294 1095.1 637.603 1098.03z"/>
<path style="fill:#999898; stroke:none;" d="M924.333 1097.67L924.667 1098.33L924.333 1097.67M632 1098L633 1099L632 1098M924.333 1151.67L924.667 1152.33L924.333 1151.67M633.333 1152.67L633.667 1153.33L633.333 1152.67M634 1154L635 1155L634 1154M637 1155L637 1156L921 1156L895 1155L837 1155L637 1155z"/>
<path style="fill:#9b6b22; stroke:none;" d="M403 1193L403 1500L404 1500L404 1283L404 1221L403 1193z"/>
<path style="fill:#999898; stroke:none;" d="M571 1210L572 1211L571 1210M575 1211L576 1212L575 1211z"/>
<path style="fill:#585857; stroke:none;" d="M520 1219L521 1219C522.937 1212.62 529.429 1214 535 1214L575 1214L575 1252C575 1255.69 576.272 1262.52 573.397 1265.4C570.663 1268.13 564.503 1267 561 1267C552.468 1267 523.856 1271.41 521 1262C518.814 1268.29 525.581 1268 530 1268L563 1268C566.706 1268 574.301 1269.5 575.682 1264.85C578.969 1253.78 576 1237.56 576 1226C576 1222.51 577.328 1215.37 573.682 1213.27C570.602 1211.49 564.482 1213 561 1213C551.794 1213 521.246 1208.09 520 1219z"/>
<path style="fill:#999898; stroke:none;" d="M576 1212L577 1213L576 1212z"/>
<path style="fill:#020201; stroke:none;" d="M575 1214L537 1214L522.607 1215.03L522 1236L521.911 1257L522.042 1265.4L533 1267L563 1267L573.972 1265.4L575 1251L575 1214z"/>
<path style="fill:#999898; stroke:none;" d="M577 1214L577 1267L578 1267L578 1231L577 1214z"/>
<path style="fill:#585857; stroke:none;" d="M521 1220L521 1261L522 1261C522 1249.3 525.511 1230.75 521 1220z"/>
<path style="fill:#9b6b22; stroke:none;" d="M1038.33 1253.67L1038.67 1254.33L1038.33 1253.67M1038 1256L1038 1261L1039 1261L1038 1256z"/>
<path style="fill:#999898; stroke:none;" d="M980 1263L980 1267L981 1267L980 1263M979 1267L978 1269L980 1269L979 1267M579 1268L579 1269L633 1269L615 1268L579 1268M925 1268L925 1269L974 1269C961.348 1263.69 938.788 1268 925 1268M633 1269L634 1270L633 1269M1037.33 1269.67L1037.67 1270.33L1037.33 1269.67z"/>
<path style="fill:#585857; stroke:none;" d="M585 1326L585 1325C574.42 1323.31 579 1294.66 579 1286C579 1282.43 577.894 1276.43 580.028 1273.33C582.256 1270.1 588.672 1271.98 592 1272C603.479 1272.05 616.705 1270.02 627.977 1271.6C633.77 1272.42 632.006 1279.85 632 1284C631.986 1292.82 636.698 1324.17 626 1325C629.02 1326.22 632.843 1325.87 633.512 1321.94C635.479 1310.4 632.944 1295.86 633.001 1284C633.02 1280.12 635.442 1272.59 630.855 1270.61C626.853 1268.89 621.158 1270.78 617 1270.96C608.106 1271.34 598.845 1271.42 590 1270.47C586.384 1270.09 580.421 1268.99 578.603 1273.15C576.933 1276.97 578 1282.91 578 1287C578 1297.6 575.519 1311.73 578.318 1321.94C579.253 1325.35 581.92 1325.77 585 1326z"/>
<path style="fill:#999898; stroke:none;" d="M634 1270L635 1271L634 1270z"/>
<path style="fill:#585857; stroke:none;" d="M636 1329L636 1330C657.071 1324.98 683.338 1329 705 1329L851 1329C873.309 1329 898.976 1332.57 920.942 1328.85C926.954 1327.83 925.885 1319.6 925.975 1315C926.172 1305.02 926.133 1294.99 925.989 1285C925.944 1281.84 924.212 1276.13 926.064 1273.35C928.156 1270.22 935.743 1272 939 1272L979 1272L979 1500L981 1500L981 1329L981 1287C981 1283.21 982.547 1274.75 979.258 1272.02C976.001 1269.33 969.782 1270.67 966 1270.91C956.88 1271.49 947.117 1271.53 938 1270.91C934.179 1270.65 927.69 1268.33 925.028 1272.32C923.046 1275.29 924 1280.61 924 1284L924 1312C924 1316.22 925.33 1323.32 921.682 1326.4C917.471 1329.94 907.187 1328 902 1328L848 1328L703 1328C682.695 1328 655.432 1323.26 636 1329z"/>
<path style="fill:#999898; stroke:none;" d="M981 1272L984 1271L981 1272M1005 1272L1022 1271C1017.9 1269.28 1008.08 1268.47 1005 1272M1024 1270L1024 1271L1028 1272L1028 1271L1024 1270z"/>
<path style="fill:#020201; stroke:none;" d="M580.603 1272.04C576.458 1275.16 579 1291.17 579 1296C579 1302.22 576.094 1318.43 580.028 1323.4C582.261 1326.22 588.849 1325 592 1325L620 1325C622.968 1325 628.797 1326.08 631.218 1323.97C634.53 1321.09 632 1305.44 632 1301C632 1294.49 635.038 1278.76 631.883 1273.32C629.762 1269.66 623.34 1271.9 620 1271.99C610.37 1272.22 600.63 1272.22 591 1271.99C588.126 1271.91 583.09 1270.17 580.603 1272.04z"/>
<path style="fill:#999898; stroke:none;" d="M922 1271L922 1324L923 1324L923 1288L922 1271z"/>
<path style="fill:#020201; stroke:none;" d="M925 1500L979 1500L979 1272L939 1272C935.905 1271.99 928.193 1269.97 926.031 1272.62C923.704 1275.46 925.841 1281.69 925.964 1285C926.428 1297.49 931.807 1328.97 915 1329C851.334 1329.13 787.666 1329 724 1329L666 1329C657.96 1329 646.856 1327 639.152 1329.32C634.836 1330.62 636.983 1337.61 636.999 1341C637.047 1351 637.047 1361 636.999 1371C636.986 1373.83 635.616 1379.11 637.693 1381.39C640.373 1384.34 649.313 1382 653 1382L698 1382L867 1382L908 1382C912.49 1382 920.079 1380.62 923.397 1384.43C928.214 1389.98 925 1407.89 925 1415L925 1500z"/>
<path style="fill:#eaa945; stroke:none;" d="M982 1271L982 1275L983 1275L986 1272L982 1271M998.667 1271.33L999.333 1271.67L998.667 1271.33z"/>
<path style="fill:#999898; stroke:none;" d="M1000.67 1271.33L1001.33 1271.67L1000.67 1271.33z"/>
<path style="fill:#eaa945; stroke:none;" d="M1002 1271L1002 1272L1005 1272L1002 1271M1008 1271L1008 1272L1025 1272L1008 1271z"/>
<path style="fill:#999898; stroke:none;" d="M635 1272L635 1277L636 1277L635 1272M982 1275L982 1278L983 1278L982 1275z"/>
<path style="fill:#eaa945; stroke:none;" d="M982 1278L983 1279L982 1278z"/>
<path style="fill:#999898; stroke:none;" d="M982 1279L983 1280L982 1279z"/>
<path style="fill:#eaa945; stroke:none;" d="M982 1280L982 1284L983 1284L982 1280z"/>
<path style="fill:#999898; stroke:none;" d="M982 1284L982 1472L983 1472L983 1340L983 1302L982 1284z"/>
<path style="fill:#585857; stroke:none;" d="M588.667 1325.33L589.333 1325.67L588.667 1325.33M623.667 1325.33L624.333 1325.67L623.667 1325.33z"/>
<path style="fill:#999898; stroke:none;" d="M635 1325L636 1326L635 1325M921 1325L922 1326L921 1325M638 1326L638 1327L641 1327L638 1326M915 1326L915 1327L920 1327L915 1326z"/>
<path style="fill:#585857; stroke:none;" d="M636 1333L636 1379L637 1379C637 1366 641.01 1344.94 636 1333M636 1381L636 1383L638 1383L636 1381M643 1382L643 1383L922 1383L897 1382L840 1382L643 1382M638.667 1383.33L639.333 1383.67L638.667 1383.33M922 1383L924 1388L925 1388L922 1383z"/>
<path style="fill:#eaa945; stroke:none;" d="M982 1472L982 1475L983 1475L982 1472z"/>
<path style="fill:#999898; stroke:none;" d="M982 1475L982 1496L983 1496L982 1475z"/>
<path style="fill:#eaa945; stroke:none;" d="M982.333 1496.67L982.667 1497.33L982.333 1496.67z"/>
<path style="fill:#999898; stroke:none;" d="M982.333 1498.67L982.667 1499.33L982.333 1498.67z"/>
</svg>
