<?xml version="1.0" standalone="yes"?>
<svg xmlns="http://www.w3.org/2000/svg" width="1500" height="1500">
<path style="fill:#020203; stroke:none;" d="M0 0L0 1500L402 1500L402 780L402 590L402 539C402 533.852 400.077 523.739 403.028 519.318C405.534 515.563 413.146 517 417 517L446 517C449.122 517 454.779 518.046 457.397 515.972C460.351 513.632 459 506.315 459 503L459 473C459 469.338 458.03 463.757 460.894 460.894C463.916 457.871 470.133 459 474 459C484.077 459 493.987 458.74 504 458.985C507.079 459.061 512.817 460.015 515.397 457.972C518.216 455.739 517 449.151 517 446L517 414C517 409.574 516.094 404.037 521.059 402.032C528.869 398.878 540.69 401 549 401L610 401C681.391 401 752.616 402 824 402L894 402C901.381 402 915.204 399.343 921.736 402.988C926.945 405.895 926 413.021 926 418L926 459L965 459C969.29 459 976.964 457.537 980.427 460.603C984.314 464.044 983 471.386 983 476L983 517L1023 517L1038.23 519.148L1041 532L1041 563L1041 689L1081 689L1096.11 691.318L1098 705L1098 739L1098 872L1098 910L1096.11 924.107L1081 926L1041 926L1041 1160L1041 1232C1041 1242.27 1043.38 1255.95 1040.53 1265.83C1038.84 1271.66 1033.12 1271.97 1028 1272C1017.62 1272.05 1007.32 1271.05 997 1271C993.451 1270.98 985.584 1269.51 983.589 1273.32C980.074 1280.02 982.426 1289.92 982.911 1297C983.815 1310.21 983 1323.75 983 1337L983 1500L1500 1500L1500 0L0 0z"/>
<path style="fill:#e5dacf; stroke:none;" d="M697 349L697 348C691.675 344.742 693 337.531 693 332C693 317.318 691.315 301.46 694 287C663.76 281.386 628.767 286 598 286L407 286L407 233L637 233C632.906 215.814 631.938 188.013 637 171L466 171L421 171C416.362 171 407.403 169.296 403.434 172.028C399.821 174.514 401 181.253 401 185C401 194.973 400.604 205.037 401.039 215C401.191 218.472 403.045 223.526 400.257 226.397C397.456 229.281 390.638 228 387 228L356 228C352.649 228 347.365 227.12 344.742 229.742C342.292 232.193 343.001 236.865 343 240L343 267C343 272.827 340.766 284.608 344.179 289.566C346.779 293.343 354.077 292 358 292L388 292C391.097 291.995 396.873 290.635 399.397 292.832C402.042 295.135 401 300.896 401 304L401 335C401 339.036 399.597 346.199 404.148 348.258C410.365 351.07 421.254 349 428 349C447.058 349 465.965 348 485 348L622 348C646.698 348 672.502 345.904 697 349z"/>
<path style="fill:#5eeecc; stroke:none;" d="M637.529 172.028L635.765 185L635.089 220L637.603 231.972L660 233L724 232.209L748.486 231.821L751 219L750.999 185L748.483 172.314L726 171.036L663 171L637.529 172.028z"/>
<path style="fill:#e5dacf; stroke:none;" d="M649 171L650 172L649 171M730 171L730 172L733 172L730 171M736 171L736 172L740 172L736 171M747 171L747 172L750 175C779.325 171.294 810.432 174 840 174C879.855 174 919.913 172 960 172L1014 172C1019.95 172 1030.59 169.967 1035.85 173.027C1040.12 175.508 1039.03 180.887 1039 185.004C1038.93 195.335 1039 205.669 1039 216C1039 219.417 1037.71 226.523 1040.74 228.972C1043.62 231.302 1050.52 230 1054 230C1064.59 230 1089.04 225.545 1097 233C1097.91 226.469 1088.21 228 1084 228L1054 228C1050.69 228 1045.19 228.981 1042.6 226.397C1040.02 223.812 1041 218.306 1041 215C1041 205.392 1040.43 195.586 1041.09 186C1041.37 181.952 1043.45 175.153 1039.44 172.179C1034.92 168.836 1023.41 171 1018 171L962 171L747 171z"/>
<path style="fill:#d173c7; stroke:none;" d="M751 175C753.533 190.913 752.716 212.92 751 229L786 230L851 230L1037 232L1037 287L930 287.015L892 290L835 290L809 290L809 344C826.485 349.169 850.739 345 869 345C907.011 345 943.958 347 982 347L1022 347C1025.87 347 1034.08 348.545 1037.26 345.972C1040.42 343.411 1039 335.586 1039 332L1039 303C1039 299.668 1038.03 294.332 1040.03 291.434C1042.39 288.001 1048.43 289 1052 289C1061.77 288.999 1083.15 285.054 1091 291C1103.11 283.661 1098 259.872 1098 247C1098 242.522 1099.8 233.092 1094.77 230.742C1084.86 226.114 1064.93 230 1054 230C1049.82 230 1041.88 231.577 1039.74 226.852C1035.38 217.214 1038.98 198.558 1039 188C1039.01 183.893 1040.77 176.784 1037.43 173.603C1033.77 170.116 1023.7 172 1019 172L968 172C921.542 172 875.254 174 829 174C804.595 174 774.729 169.35 751 175M518 175C493.386 169.14 462.32 174 437 174C429.126 174 414.381 171.141 407.318 174.742C403.646 176.615 405 183.633 405 187L405 217C405 220.073 403.953 225.694 406.028 228.258C409.46 232.499 424.894 229 430 229L494 229C498.556 229 513.029 231.698 516.062 228.393C519.248 224.921 518 217.297 518 213C518 200.552 516.683 187.34 518 175z"/>
<path style="fill:#e90627; stroke:none;" d="M982.059 174.573C977.009 176.159 978 181.751 978 186C977.999 195.986 977.717 206.019 978.035 216C978.132 219.037 977.234 224.895 979.042 227.436C981.493 230.882 988.373 229.999 992 230C1003.6 230.005 1024.24 234.033 1034.85 229.397C1038.76 227.69 1037.86 222.4 1037.95 218.911C1038.22 208.238 1037.93 197.619 1037.18 187C1036.94 183.599 1039.09 178.355 1036.39 175.603C1033.56 172.718 1026.66 174 1023 174C1010.79 174 993.722 170.908 982.059 174.573z"/>
<path style="fill:#020203; stroke:none;" d="M868 175L868 229L978 229L978 175L868 175z"/>
<path style="fill:#e5dacf; stroke:none;" d="M751 176L751 180L752 180L751 176M751 224L751 227L752 227L751 224M409 225L410 226L409 225M750 229L748 232L748 233L1036 233L1036 279L1037 279L1037 232C977.657 232 918.037 230.801 859 230.004C823.135 229.519 785.577 233.497 750 229z"/>
<path style="fill:#d173c7; stroke:none;" d="M575 345L575 290L491 290L405 287L405 248C405 243.596 406.382 236.156 403.821 232.318C401.531 228.887 395.522 230 392 230L359 230C355.308 230 348.58 228.72 346.179 232.318C343.017 237.057 345 247.502 345 253C345 260.729 341.349 281.578 346.742 287.471C349.644 290.642 356.178 289.006 360 289L389 289C392.561 289 397.738 288.123 400.682 290.603C404.17 293.542 403 299.964 403 304C403 313.992 403.214 324.011 402.985 334C402.9 337.749 401.515 342.48 404.518 345.482C407.52 348.485 412.251 347.1 416 347.015C426.321 346.778 436.676 346.984 447 347C489.222 347.065 532.355 345 575 345z"/>
<path style="fill:#e90627; stroke:none;" d="M350.148 232.028C345.7 233.418 347 240.445 347 244L347 274C347 277.389 346.046 282.714 348.028 285.682C350.286 289.065 356.58 287.941 360.09 287.896C369.062 287.781 377.984 286.957 387 287.001C390.961 287.02 396.047 288.674 399.852 287.552C404.313 286.236 403 279.548 403 276L403 245C403 241.879 404.046 236.221 401.972 233.603C399.739 230.784 393.151 232 390 232C378.496 232 361.026 228.627 350.148 232.028M1089.98 231.653C1077.82 231.006 1065.21 232 1053 232C1049.73 232 1042.47 230.65 1040.18 233.603C1037.95 236.488 1040.05 241.656 1039.82 245C1039.06 255.665 1039.68 266.315 1039.13 277C1038.87 282.19 1038.72 287.175 1045 287.891C1056.86 289.242 1069.5 287.919 1081.42 287.836C1084.68 287.814 1091.68 289.281 1093.97 286.397C1096.18 283.619 1095 277.325 1095 274L1095 242C1095 237.72 1095.69 231.957 1089.98 231.653z"/>
<path style="fill:#e5dacf; stroke:none;" d="M645 232L646 233L645 232M676 232L677 233L676 232M721 232L721 233L729 233L721 232z"/>
<path style="fill:#020203; stroke:none;" d="M407 233L407 286L883 287L996 287L1025 286.3L1035.26 285.127L1036 272L1036 233L407 233z"/>
<path style="fill:#e5dacf; stroke:none;" d="M1098 234L1098 238L1099 238L1098 234M1098 239L1098 244L1099 244L1098 239M1098 256L1098 276L1099 276L1098 256M1036 284L1033 286L1033 287C1035.35 286.706 1036.95 286.507 1036 284M714.667 286.333L715.333 286.667L714.667 286.333z"/>
<path style="fill:#5eeecc; stroke:none;" d="M716 286.555C711.286 286.951 697.25 284.725 694.179 288.603C691.895 291.488 693 297.564 693 301L693 334C693 337.753 691.733 345.25 695.514 347.643C701.012 351.123 717.341 348 724 348C749.397 348 778.913 352.226 803.891 347.852C809.078 346.944 808.396 340.036 808.196 336C807.621 324.368 808 312.646 808 301C808 297.583 809.286 290.478 806.258 288.028C801.751 284.381 785.675 286.568 780 286.795C758.838 287.638 737.131 284.781 716 286.555z"/>
<path style="fill:#e5dacf; stroke:none;" d="M717.667 286.333L718.333 286.667L717.667 286.333M721 286L721 287L746 287L721 286M754 286L754 287L771 287L754 286M775 286L775 287L783 287L775 286M786.667 286.333L787.333 286.667L786.667 286.333M802 286L802 287L806 287L802 286M807 286L808 338L809 338L809 290L891 290L925 288C915.211 283.892 898.634 287 888 287C860.999 287 833.919 286.018 807 286M943 286L943 287L946 287L943 286z"/>
<path style="fill:#5eeecc; stroke:none;" d="M946.667 286.333L947.333 286.667L946.667 286.333z"/>
<path style="fill:#e5dacf; stroke:none;" d="M948 286L948 287L954 287L948 286z"/>
<path style="fill:#5eeecc; stroke:none;" d="M954 286L954 287L963 287L954 286z"/>
<path style="fill:#e5dacf; stroke:none;" d="M963 286L963 287L970 287L963 286z"/>
<path style="fill:#5eeecc; stroke:none;" d="M970 286L970 287L974 287L970 286z"/>
<path style="fill:#e5dacf; stroke:none;" d="M974 286L974 287L977 287L974 286M1023 286L1023 287L1031 287L1023 286M1097 286L1096 289L1097 286z"/>
<path style="fill:#e90627; stroke:none;" d="M460 290L421 289L406.603 290.179L405 302L405 332L406.028 343.397L418 345L449 345L459.741 342.772L461 328L460 290z"/>
<path style="fill:#e5dacf; stroke:none;" d="M1039 292L1091 291L1091 289L1053 289C1048.27 289 1042.01 287.737 1039 292M1092 289L1092 291L1096 291L1096 289L1092 289z"/>
<path style="fill:#020203; stroke:none;" d="M926 290C924.677 306.767 921.527 328.834 927 345L966 344L1036 344L1036 306L1034.97 291.618L1008 291L926 290z"/>
<path style="fill:#5eeecc; stroke:none;" d="M1039 292L1039 295L1041 295L1041 292L1039 292z"/>
<path style="fill:#e5dacf; stroke:none;" d="M1039 295L1038 347C1042.85 345.96 1041 338.088 1041 334L1041 295L1039 295M808 339L807 348L926 348L926 347L895 345L839 345L809 344L808 339M930 347L930 348L1038 348L1005 347L930 347M522 401L522 402L528 402L522 401z"/>
<path style="fill:#5eeecc; stroke:none;" d="M528 401L529 402L528 401z"/>
<path style="fill:#e5dacf; stroke:none;" d="M529 401L529 402L547 402L529 401z"/>
<path style="fill:#5eeecc; stroke:none;" d="M546 402L546 403L560 403L546 402z"/>
<path style="fill:#e5dacf; stroke:none;" d="M553 401L553 402L564 402L553 401z"/>
<path style="fill:#5eeecc; stroke:none;" d="M564 401L564 402L582 402L564 401z"/>
<path style="fill:#e5dacf; stroke:none;" d="M582 401L582 402L617 402L582 401z"/>
<path style="fill:#5eeecc; stroke:none;" d="M612 402L612 403L673 403L654 401.961L612 402z"/>
<path style="fill:#e5dacf; stroke:none;" d="M649 401L649 402L683 402L649 401z"/>
<path style="fill:#5eeecc; stroke:none;" d="M683 401L683 402L687 402L683 401z"/>
<path style="fill:#e5dacf; stroke:none;" d="M687 401L687 402L696 402L687 401z"/>
<path style="fill:#5eeecc; stroke:none;" d="M696 401L696 403L705 402L696 401z"/>
<path style="fill:#e5dacf; stroke:none;" d="M705 401L705 402L723 402L705 401M518.667 402.333L519.333 402.667L518.667 402.333z"/>
<path style="fill:#5eeecc; stroke:none;" d="M517 403L517 429L518 429C518 421.034 515.353 408.537 522 403L517 403z"/>
<path style="fill:#d173c7; stroke:none;" d="M522.059 402.742C517.12 404.809 518 410.606 518 415L518 448C518 452.267 516.719 459.216 522.059 460.682C530.844 463.095 542.893 461 552 461L616 461L825 461L897 461C902.846 461 917.709 463.685 922.397 459.972C925.351 457.632 924 450.316 924 447L924 414C923.998 409.825 924.83 404.167 919.891 402.573C912.302 400.122 901.007 402.003 893 402L835 402C767.286 402 699.538 404.64 632 402.985C605.997 402.348 580.108 402.471 554 402.985C544.427 403.173 531.206 398.915 522.059 402.742z"/>
<path style="fill:#5eeecc; stroke:none;" d="M584 402L584 403L587 403L584 402M594 402L594 403L601 403L594 402M692.667 402.333L693.333 402.667L692.667 402.333M714 402L714 403L722 403L714 402M855 402L855 403L858 403L855 402M864 402L864 403L867 403L864 402M873 402L874 403L873 402M902 402L903 403L902 402M908.667 402.333L909.333 402.667L908.667 402.333M920 402L920 403L923 403L920 402z"/>
<path style="fill:#e5dacf; stroke:none;" d="M923 403L924 404L923 403z"/>
<path style="fill:#020203; stroke:none;" d="M520 459L680 459L788 459L879 459C891.148 459 908.226 462.134 919.852 458.682C924.321 457.355 923 450.576 923 447L923 416C923 412.669 923.935 407.335 920.683 405.182C915.859 401.988 903.615 404 898 404L838 404L612 404L547 404C540.915 404 527.509 401.558 522.314 405.031C518.563 407.538 520 415.147 520 419L520 459z"/>
<path style="fill:#5eeecc; stroke:none;" d="M923 404L924 405L923 404M924.667 406.333L925.333 406.667L924.667 406.333z"/>
<path style="fill:#e5dacf; stroke:none;" d="M924 407L924 409L926 409L926 407L924 407z"/>
<path style="fill:#5eeecc; stroke:none;" d="M924 409L924 411L926 411L926 409L924 409z"/>
<path style="fill:#e5dacf; stroke:none;" d="M924 411L924 425L926 425L926 411L924 411z"/>
<path style="fill:#5eeecc; stroke:none;" d="M924 425L924 427L926 427L926 425L924 425z"/>
<path style="fill:#e5dacf; stroke:none;" d="M924 427L924 447L926 447L926 427L924 427M517 429L518 430L517 429z"/>
<path style="fill:#5eeecc; stroke:none;" d="M517 430L517 433L518 433L517 430z"/>
<path style="fill:#e5dacf; stroke:none;" d="M517 433L517 438L518 438L517 433z"/>
<path style="fill:#5eeecc; stroke:none;" d="M517 438L517 441L518 441L517 438z"/>
<path style="fill:#e5dacf; stroke:none;" d="M517 441L518 442L517 441z"/>
<path style="fill:#5eeecc; stroke:none;" d="M517 442L517 455L518 455L517 442M924 447L924 449L926 449L926 447L924 447z"/>
<path style="fill:#e5dacf; stroke:none;" d="M924 449C924 452.354 924.936 457.801 921.682 459.972C917.261 462.923 907.148 461 902 461L850 461L606 461L540 461C532.696 461 520.545 463.775 518 455L517 455L516 461C523.499 468.344 519 493.769 519 504C519 508.036 520.17 514.458 516.682 517.397C513.56 520.027 507.78 519 504 519C493.769 519 468.343 523.499 461 516L454 517L454 518C465.875 518.917 461 547.916 461 557L461 658C461 664.459 457.562 686.98 463.318 690.821C468.751 694.446 481.648 692 488 692C509.718 692 531.278 691 553 691L721 691C747.287 691 777.065 687.038 802.995 691.148C810.047 692.266 809 699.54 809 705L809 735C809 738.367 808.035 743.739 810.028 746.678C812.353 750.108 818.553 748.045 822 748.004C834.347 747.857 847.761 749.763 859.941 748.602C865.81 748.042 864 739.106 864 735L864 704C864 700.367 863.187 695.242 866.318 692.603C870.952 688.699 883.245 691 889 691L952 691C957.261 691 976.704 693.872 979.397 688.566C983.865 679.762 980 659.899 980 650C980 619.406 981 588.673 981 558C981 548.827 976.069 518.922 988 518L988 517L982 516C973.927 523.565 948.758 519 938 519C933.864 519 926.57 520.357 924.269 515.852C922.287 511.974 924 504.341 924 500L924 461L929 461L926 459L926 449L924 449M492 458L492 459L499 459L492 458M461 459L461 461L464 461L464 459L461 459z"/>
<path style="fill:#5eeecc; stroke:none;" d="M464.333 459.667L464.667 460.333L464.333 459.667z"/>
<path style="fill:#d173c7; stroke:none;" d="M459 465L459 466L459 467C464.161 473.812 461.001 490.588 461 499C461 503.001 461.477 506.73 459 510L459 511C460.14 513.032 460.736 516.551 462.599 517.973C465.111 519.89 470.042 519 473 519L501 519C505.241 519 514.13 520.663 517.397 517.397C519.981 514.812 519 509.306 519 506L519 474C519 470.849 520.216 464.261 517.397 462.028C511.734 457.543 492.161 461 485 461C474.622 461 466.89 457.63 459 465z"/>
<path style="fill:#5eeecc; stroke:none;" d="M469 459L469 461L516 461L516 459L469 459M929 459L929 461L970 461L970 459L929 459z"/>
<path style="fill:#d173c7; stroke:none;" d="M970 459L956 461L924 461L924 502C923.998 505.988 922.004 513.232 924.194 516.682C927.492 521.88 945.446 519 951 519C957.752 519 974.987 522.105 980.397 517.821C983.343 515.487 982 508.306 982 505L982 475C982 471.375 983.018 465.826 981.012 462.613C978.289 458.254 973.828 460.608 970 459z"/>
<path style="fill:#5eeecc; stroke:none;" d="M971 459L971 461L974 461L974 459L971 459M978.333 459.667L978.667 460.333L978.333 459.667z"/>
<path style="fill:#e5dacf; stroke:none;" d="M979 459L979 461L981 461L981 459L979 459z"/>
<path style="fill:#5eeecc; stroke:none;" d="M459 461L459 462L462 462L459 461M980.667 461.333L981.333 461.667L980.667 461.333z"/>
<path style="fill:#e5dacf; stroke:none;" d="M459 462L459 464L461 464L461 462L459 462z"/>
<path style="fill:#020203; stroke:none;" d="M464.318 463.028C459.103 466.508 462 484.318 462 490C462 495.846 459.316 510.709 463.028 515.397C465.261 518.216 471.849 517 475 517L504 517C507.081 517.005 512.869 518.532 515.552 516.883C519.893 514.214 517 494.021 517 489C517 483.154 519.685 468.291 515.972 463.603C513.739 460.784 507.151 462 504 462L476 462C472.611 462 467.287 461.046 464.318 463.028M926.742 463.028C922.335 466.593 925 482.735 925 488C925 494.062 921.981 511.571 926.028 516.218C928.181 518.692 935.044 517.005 938 517L967 517C970.122 517 975.779 518.046 978.397 515.972C982.554 512.68 980 496.956 980 492C980 485.589 983.017 468.71 978.972 463.603C976.739 460.784 970.151 462 967 462L938 462C934.926 462 929.306 460.953 926.742 463.028z"/>
<path style="fill:#e5dacf; stroke:none;" d="M982.333 462.667L982.667 463.333L982.333 462.667z"/>
<path style="fill:#5eeecc; stroke:none;" d="M459.667 464.333L460.333 464.667L459.667 464.333M982 464L982 472L983 472L982 464M459 467L459 510L461 510L461 467L459 467z"/>
<path style="fill:#e5dacf; stroke:none;" d="M982 472L982 475L983 475L982 472z"/>
<path style="fill:#5eeecc; stroke:none;" d="M982 475L982 493L983 493L982 475z"/>
<path style="fill:#e5dacf; stroke:none;" d="M982 493L983 494L982 493z"/>
<path style="fill:#5eeecc; stroke:none;" d="M982 494L982 503L983 503L982 494z"/>
<path style="fill:#e5dacf; stroke:none;" d="M982 503L983 504L982 503z"/>
<path style="fill:#5eeecc; stroke:none;" d="M982.333 504.667L982.667 505.333L982.333 504.667z"/>
<path style="fill:#e5dacf; stroke:none;" d="M982 506L982 510L983 510L982 506z"/>
<path style="fill:#5eeecc; stroke:none;" d="M982 510L983 511L982 510z"/>
<path style="fill:#e5dacf; stroke:none;" d="M982 511L982 515L983 515L982 511z"/>
<path style="fill:#5eeecc; stroke:none;" d="M459 512L459 516L461 516L461 512L459 512M982 515L983 516L982 515z"/>
<path style="fill:#e5dacf; stroke:none;" d="M402 520L406 518L402 520z"/>
<path style="fill:#5eeecc; stroke:none;" d="M406 517L406 518L454 518C441.586 512.791 419.526 517 406 517M988 517L988 518L996 518L988 517z"/>
<path style="fill:#e5dacf; stroke:none;" d="M996 517L996 518L1003 518L996 517z"/>
<path style="fill:#5eeecc; stroke:none;" d="M1003 517L1003 518L1008 518L1003 517z"/>
<path style="fill:#e5dacf; stroke:none;" d="M1008 517L1008 518L1012 518L1008 517z"/>
<path style="fill:#5eeecc; stroke:none;" d="M1012 517L1012 518L1017 518L1012 517z"/>
<path style="fill:#e5dacf; stroke:none;" d="M1017 517L1017 518L1020 518L1017 517z"/>
<path style="fill:#5eeecc; stroke:none;" d="M1020 517L1020 518L1036 518L1020 517z"/>
<path style="fill:#e5dacf; stroke:none;" d="M1036.67 517.333L1037.33 517.667L1036.67 517.333z"/>
<path style="fill:#5eeecc; stroke:none;" d="M404 518L405 519L404 518z"/>
<path style="fill:#d173c7; stroke:none;" d="M402 1500L404 1500L404 995L404 828L404.166 747L404.545 691L404 580L404 538L405.603 522.318L420 520L459 520L459 649L459 681C459 684.152 457.978 689.698 460.603 692.062C465.341 696.328 478.079 694 484 694C505.391 694 526.619 693 548 693L716 693C743.653 693 772.463 690.645 799.999 693.059C806.532 693.631 806.989 698.497 807 704L807 737C807 741.96 805.471 749.787 812.019 750.852C824.672 752.909 839.173 751 852 751C855.989 751 863.405 752.414 865.397 747.852C869.627 738.162 866 719.579 866 709C866 704.776 864.67 697.677 868.318 694.603C873.766 690.013 890.134 693 897 693L955 693C961.963 693 973.427 695.202 979.852 692.397C984.013 690.58 983 684.673 983 681L983 647L983 554C983 547.088 979.559 526.648 984.603 521.603C987.337 518.87 993.497 520 997 520C1008.18 520 1023.16 517.358 1033.94 520.318C1038.75 521.637 1038 527.052 1038 531L1038 561L1038 654C1038 663.568 1034.38 682.107 1038.6 690.682C1040.42 694.365 1047.67 693 1051 693L1083 693C1086.65 693.001 1092.55 692.138 1094.4 696.228C1096.19 700.217 1095 706.702 1095 711L1095 746L1095 867L1095 905C1095 909.065 1096.33 916.148 1093.97 919.682C1091.8 922.937 1086.34 922 1083 922L1052 922C1048.47 922 1040.57 920.567 1038.6 924.434C1034.56 932.397 1038 950.065 1038 959L1038 1045L1038 1209L1038 1251C1038 1255.4 1039.44 1263.07 1036.4 1266.68C1033.76 1269.81 1028.63 1269 1025 1269L996 1269C992.48 1269 986.321 1270.12 984.028 1266.68C981.669 1263.15 983 1256.07 983 1252L983 1216L983 1002L983 946C983 940.523 985.167 929.076 981.972 924.434C978.297 919.093 960.827 922 955 922L890 922C884.731 922 871.571 924.364 867.603 920.397C863.636 916.429 866 903.269 866 898L866 834C866 828.967 868.757 810.101 863.682 807.603C857.911 804.763 846.381 807 840 807C833.026 807 814.127 803.653 808.603 808.028C805.061 810.833 807 821.913 807 826L807 879L807 909C807 912.306 807.981 917.812 805.397 920.397C802.812 922.981 797.306 922 794 922L634 922L594 922C590.12 922 582.614 923.407 579.603 920.397C574.454 915.247 578 894.074 578 887L578 789L578 761C578 757.658 578.931 752.347 575.682 750.179C571.298 747.253 562.065 749 557 749L509 749C495.145 749 476.396 745.655 463.059 749.318C458.254 750.637 459.002 756.052 459 760L459 791L459 926L459 1500L461 1500L461 934L461 797L461 764C461 760.48 459.882 754.321 463.318 752.028C466.668 749.792 473.157 751 477 751L509 751C524.637 751 540.301 752 556 752C560.168 752 570.249 749.99 573.527 752.693C577.854 756.26 575 773.588 575 779L575 858L575 908C575 913.417 573.276 922.591 580.044 924.566C595.487 929.073 617.885 925 634 925L753 925L793 925C796.994 925 804.258 926.33 807.397 923.258C811.361 919.377 809 906.204 809 901L809 836C809 829.626 805.61 810.515 814.019 809.148C825.414 807.296 838.449 809 850 809C853.503 809 859.663 807.869 862.397 810.603C866.138 814.345 864 826.068 864 831L864 890C864 896.982 860.469 918.231 865.603 923.258C870.566 928.116 888.38 925 895 925L980 925L980 1168L980 1237C980 1244.87 982.661 1258.57 979.397 1265.77C977.272 1270.46 969.036 1268.06 964.985 1268.01C955.165 1267.88 933.668 1264.02 925.228 1269.18C920.837 1271.86 922 1278.65 922 1283L922 1312C922.001 1315.35 923.111 1320.78 921.088 1323.68C918.831 1326.92 913.388 1326 910 1326L879 1326C873.959 1326 866.47 1324.5 865.228 1331.02C862.856 1343.47 865 1358.32 865 1371C865 1374.38 863.723 1381.51 867.434 1383.4C870.716 1385.06 876.411 1384 880 1384L908 1384C912.507 1384 919.943 1382.63 922.682 1387.23C927.064 1394.59 924 1410.6 924 1419L924 1500L925 1500L925 1415C925 1408.08 928.226 1390.15 923.972 1384.59C921.193 1380.95 913.837 1382.95 910 1383C899.026 1383.12 879.155 1386.78 869.148 1382.26C864.789 1380.29 866 1373.88 866 1370C866 1358.45 864.296 1345.41 866.148 1334.02C867.213 1327.47 875.04 1329 880 1329L910 1329C913.661 1329 919.38 1330.01 922.566 1327.82C926.499 1325.11 925 1317.09 925 1313L925 1271L964 1271L978.397 1272.6L980 1288L980 1330L980 1500L982 1500L982 1270L1023 1271L1041 1268L1039 1266L1039 1265L1041 1264L1041 1263C1038.2 1259.3 1038.2 1253.7 1041 1250L1041 1249C1038.68 1245.93 1038.68 1243.07 1041 1240L1041 1239C1037.77 1234.74 1039 1228.16 1039 1223L1039 1185C1039 1166.09 1041.32 1147.88 1041 1129C1040.46 1097.33 1038.79 1065.5 1040.86 1033.92C1041.2 1028.73 1038.91 1023.42 1039 1018C1039.1 1012.16 1041.59 1007.07 1040.87 1001.09C1040.02 994.004 1036.15 984.4 1041 978L1041 977C1035.56 969.821 1041.09 959.859 1040.61 952.08C1040.25 946.165 1036.89 940.427 1041 935L1041 934L1041 924L1081 924C1085.14 924 1093.04 925.475 1096.26 922.258C1099.4 919.11 1097.42 912.928 1097.67 909C1098.49 895.842 1097.85 882.601 1097.85 869.424C1097.83 829.21 1097.23 788.846 1097.86 748.576C1098.05 736.378 1098 724.21 1098 712C1098 706.976 1099.28 699.806 1097.26 695.109C1095.31 690.589 1090.12 691.007 1086 691L1054 691C1049.82 691 1038.91 692.853 1041 686L1039 686L1039 685L1041 685L1041 679L1041 678L1041 675C1035.96 665.931 1041.23 650.07 1040.61 640.08C1038.94 612.93 1039 585.432 1039 558C1039 549.5 1038.14 540.482 1039.13 532.039C1039.66 527.542 1042.14 523.438 1038.1 519.564C1035.04 516.63 1027.9 518 1024 518C1011.6 518 997.315 516.011 985.109 518.148C980.33 518.985 981.006 524.226 981 528L981 558C981 588.004 980 618.075 980 648C980 658.689 983.784 678.04 979.397 687.772C976.581 694.017 957.769 691 952 691L888 691C882.731 691 869.571 688.636 865.603 692.603C863.019 695.188 864 700.694 864 704L864 734C864 737.868 865.631 746.465 860.852 748.088C850.341 751.658 832.273 747.875 821 748.004C817.001 748.05 811.526 749.636 809.603 744.938C805.596 735.144 809 717.577 809 707C809 703.12 810.407 695.614 807.397 692.603C804.13 689.337 795.241 691 791 691L744 691L559 691C534.941 691 511.042 692 487 692C480.972 692 466.954 694.573 462.603 689.566C459.956 686.52 461 680.726 461 677L461 646L461 560C461 548.579 464.084 532.009 460.566 521.148C459.065 516.514 451.77 518 448 518L415 518C411.432 518 405.539 517.005 403.179 520.434C400.414 524.451 402.174 532.409 402.05 537.089C401.636 552.706 402 568.378 402 584C402 641.865 404.282 700.245 402.741 758C400.367 846.95 403 936.013 403 1025C403 1183.32 402 1341.55 402 1500z"/>
<path style="fill:#5eeecc; stroke:none;" d="M1038 518L1039 519L1038 518M402 520L403 521L402 520z"/>
<path style="fill:#020203; stroke:none;" d="M459 692L459 520L420 520C416.12 520 408.614 518.593 405.603 521.603C400.349 526.857 404 548.764 404 556L404 654L404 681C404.001 683.872 403.187 688.905 405.742 690.972C408.773 693.424 416.324 692 420 692L459 692M983 692L1023 692L1036.97 690.397L1038 681L1038 656L1038 559L1038 532L1036.97 521.603L1026 520L995 520L983.603 522.318L983 550L983 617L983 692z"/>
<path style="fill:#5eeecc; stroke:none;" d="M1039 521L1039 523L1041 523L1041 521L1039 521M1039 528L1039 548L1041 548L1041 528L1039 528M402 533L403 534L402 533z"/>
<path style="fill:#e5dacf; stroke:none;" d="M1039 548L1039 567L1041 567L1041 548L1039 548z"/>
<path style="fill:#5eeecc; stroke:none;" d="M1039 567L1039 596L1041 596L1041 567L1039 567z"/>
<path style="fill:#e5dacf; stroke:none;" d="M1039 596L1039 607L1041 607L1041 596L1039 596z"/>
<path style="fill:#5eeecc; stroke:none;" d="M1039 607L1039 616L1041 616L1041 607L1039 607z"/>
<path style="fill:#e5dacf; stroke:none;" d="M1039 616L1039 623L1041 623L1041 616L1039 616z"/>
<path style="fill:#5eeecc; stroke:none;" d="M1039 623L1039 638L1041 638L1041 623L1039 623M1039 643L1039 651L1041 651L1041 643L1039 643M1039 661L1039 674L1041 674L1041 661L1039 661M1039 675L1039 678L1041 678L1041 675L1039 675M1039 679L1039 684L1041 684L1041 679L1039 679z"/>
<path style="fill:#e5dacf; stroke:none;" d="M401.333 681.667L401.667 682.333L401.333 681.667z"/>
<path style="fill:#5eeecc; stroke:none;" d="M401 683L402 686L403 686L401 683z"/>
<path style="fill:#e5dacf; stroke:none;" d="M401 684L401 687L402 687L401 684z"/>
<path style="fill:#5eeecc; stroke:none;" d="M1039.67 685.333L1040.33 685.667L1039.67 685.333M401 687L403 689L401 687M1039 687L1039 689L1041 689L1041 687L1039 687z"/>
<path style="fill:#e5dacf; stroke:none;" d="M401 688L401 759L402 759L402 710L401 688M1040 689L1040 691L1080 691C1086.27 691 1092.53 689.929 1097 695C1098.65 687.96 1089.52 689 1085 689L1040 689z"/>
<path style="fill:#e90627; stroke:none;" d="M404 750C447.41 750 490.564 749 534 749L565 749C568.945 749.002 574.559 748.281 576.972 752.228C581.647 759.875 578 779.099 578 788L578 880L578 911C578 914.037 576.964 919.746 580.318 921.397C584.122 923.268 590.845 922 595 922L630 922L754 922L793 922C796.315 922 803.632 923.351 805.972 920.397C809.462 915.991 807 902.468 807 897L807 834C807 827.626 803.61 808.515 812.019 807.148C824.358 805.142 838.492 807 851 807C854.694 807 861.521 805.728 864.397 808.603C867.906 812.112 866 822.41 866 827L866 880L866 911C866 914.438 864.884 920.416 869.148 921.682C874.66 923.319 882.271 922 888 922L927 922C965.893 922 1005.3 925.515 1044 922.103C1055.82 921.061 1068.13 922 1080 922C1083.53 922 1090.46 923.301 1093.4 920.972C1096.35 918.633 1095 911.315 1095 908L1095 872L1095 738L1095 706C1095 702.859 1096.21 696.406 1093.4 694.179C1090.18 691.634 1082.85 693 1079 693C1067.17 693 1054.77 694.057 1043 692.875C1002.58 688.818 960.691 693 920 693L885 693C880.379 693 873.451 691.725 869.148 693.603C864.586 695.595 866 703.011 866 707C866 718.893 868.694 734.485 865.682 745.981C864.147 751.838 857.772 751 853 751C840.509 751.001 824.091 753.845 812.019 750.682C806.869 749.333 807.009 744.379 807 740L807 707C807 703.011 808.414 695.595 803.852 693.603C797.193 690.696 785.222 693 778 693L717 693C644.676 693 572.238 694 500 694C476.489 694 453.482 692 430 692C424.343 692 410.15 689.427 405.603 693.028C402.4 695.565 404 704.368 404 708L404 750z"/>
<path style="fill:#e5dacf; stroke:none;" d="M1097 730L1097 734L1098 734L1097 730z"/>
<path style="fill:#d173c7; stroke:none;" d="M634.434 749.028C631.001 751.39 632 757.435 632 761L632 794L632 848C632 852.719 630.026 863.561 634.514 866.682C641.367 871.448 659.82 868 668 868C674.393 868 687.091 870.407 692.562 866.682C695.569 864.635 694.619 859.178 694.845 856C695.644 844.759 695 833.269 695 822L695 768C695 763.71 696.578 751.72 692.667 749.028C686.049 744.472 666.964 748 659 748C652.901 748 639.571 745.492 634.434 749.028M922.603 749.028C919.784 751.261 921 757.849 921 761L921 794L921 847C921 851.704 918.977 862.708 922.603 866.258C928.007 871.547 948.716 868 956 868C962.352 868 975.249 870.446 980.682 866.821C983.931 864.653 983 859.342 983 856L983 825L983 768C983 763.766 985.046 751.918 981.397 749.028C975.596 744.434 955.348 748 948 748C942.154 748 927.29 745.316 922.603 749.028z"/>
<path style="fill:#e5dacf; stroke:none;" d="M637.228 749.742C632.923 751.754 634 758.135 634 762L634 798L634 847C634 851.417 632.214 861.008 635.603 864.397C640.753 869.546 661.926 866 669 866C674.844 866 684.388 867.824 689.772 865.397C694.089 863.45 693 856.819 693 853L693 818L693 768C693 763.44 694.912 753.17 690.566 750.179C684.122 745.744 666.692 749 659 749C652.853 749 642.875 747.104 637.228 749.742M926.109 749.742C920.875 751.994 922.61 757.587 922.911 762C923.676 773.236 923 784.738 923 796C923 812.943 923.74 830.08 922.87 847C922.645 851.371 920.447 862.059 924.514 864.972C930.729 869.423 949.426 866 957 866C962.935 866 973.314 867.995 978.682 865.258C982.354 863.385 981 856.367 981 853L981 816L981 769C981 764.362 982.704 755.403 979.972 751.434C977.486 747.821 970.747 749 967 749C955.706 749 936.498 745.274 926.109 749.742M1097 749L1098 750L1097 749z"/>
<path style="fill:#020203; stroke:none;" d="M405 750C400.19 775.912 404 805.646 404 832L404 994L404 1500L459 1500L459 750L405 750z"/>
<path style="fill:#e5dacf; stroke:none;" d="M461 1500L694 1500L694 1418C694 1410.17 697.24 1392.94 692.821 1386.32C690.318 1382.57 682.855 1384 679 1384L649 1384C645.611 1384 640.287 1384.95 637.318 1382.97C633.563 1380.47 635 1372.85 635 1369L635 1339C635 1335.88 636.046 1330.22 633.972 1327.6C631.532 1324.52 623.476 1326 620 1326L592 1326C588.595 1326.01 583.316 1327.36 580.228 1325.73C575.578 1323.28 577 1315.3 577 1311L577 1269L538 1269C533.473 1269 526.304 1270.32 522.293 1267.84C517.176 1264.67 520 1248.37 520 1243C520 1236.26 516.765 1217.57 521.603 1212.52C524.306 1209.71 530.482 1211 534 1211L565 1211C568.606 1211 573.667 1210.18 576.258 1213.32C579.355 1217.07 578 1224.47 578 1229C578 1241.42 575.477 1257.08 579 1269L620 1268.38L633.397 1270.44L635 1286L635 1326L676 1326C680.053 1326 688.025 1327.49 691.397 1324.82C695.742 1321.38 693 1304.23 693 1299L693 1223L693 1176C693 1171.07 694.807 1161.57 691.972 1157.32C688.971 1152.82 680.318 1155.61 676 1155.91C666.822 1156.54 642.888 1159.9 635.434 1154.06C630.193 1149.96 633 1134.04 633 1128L633 1063C633 1057.06 630.583 1044.09 634.603 1039.32C637.925 1035.38 646.418 1037 651 1037L698 1037L864 1037L906 1037C910.532 1037 918.895 1035.41 922.566 1038.6C927.914 1043.25 925 1059.5 925 1066C925 1092.79 927.885 1121.39 924.891 1148C923.471 1160.62 890.537 1156.72 881 1155.59C877.469 1155.17 868.731 1153.38 866.179 1156.6C863.894 1159.49 865 1165.57 865 1169L865 1199L865 1284C865 1297.73 862.814 1313.62 866 1327C878.494 1324.03 893.188 1326 906 1326C909.876 1326 918.331 1327.57 921.218 1324.4C923.651 1321.72 922.005 1315.34 922 1312L922 1282C922.002 1277.78 921.425 1272.62 925.228 1269.74C932.762 1264.05 955.737 1267.7 965 1268.04C968.716 1268.17 977.21 1270.87 979.397 1266.57C982.692 1260.08 980 1246.24 980 1239L980 1171L980 925L895 925C888.188 925 870.441 928.134 865.603 922.566C861.573 917.928 864 904.844 864 899L864 836C864 830.761 866.749 813.475 862.397 810.028C857.43 806.094 841.222 809 835 809C827.956 809 820.005 807.965 813.059 809.148C805.865 810.374 809 830.322 809 836L809 899C809 904.844 811.427 917.928 807.397 922.566C804.22 926.222 797.298 925 793 925L753 925L635 925C618.767 925 596.614 928.971 581.015 924.566C570.313 921.544 575 892.836 575 884L575 786C575 778.019 574.703 769.974 575.039 762C575.159 759.149 576.524 754.951 574.243 752.618C571.486 749.799 561.787 752 558 752C541.969 752 525.968 751 510 751L476 751C472.469 751 465.543 749.699 462.603 752.028C459.784 754.261 461 760.849 461 764L461 798L461 936L461 1500z"/>
<path style="fill:#020203; stroke:none;" d="M695.746 752.028C693.113 754.2 694.836 759.139 694.961 762C695.35 770.968 695 780.024 695 789L695 844C695 848.243 692.489 860.215 695.746 863.168C700.034 867.056 718.157 864 724 864C729.14 864 743.495 866.564 747.397 863.168C749.885 861.002 749 855.915 749 853L749 826L749 772C749 767.238 751.023 756.23 747.397 752.603C742.776 747.983 725.26 751 719 751C713.667 751 699.98 748.535 695.746 752.028M983 864L1021 864C1024.73 864 1032.3 865.423 1035.4 862.972C1039.65 859.602 1037 843.098 1037 838L1037 775C1037 770.031 1039.46 756.389 1036.17 752.603C1032.53 748.418 1017.2 751 1012 751C1005.78 751 989.57 748.094 984.603 752.028C981.401 754.564 983 763.368 983 767L983 811L983 864z"/>
<path style="fill:#5eeecc; stroke:none;" d="M402 754L401 761L402 754z"/>
<path style="fill:#e5dacf; stroke:none;" d="M1097 757L1097 760L1098 760L1097 757M401.333 761.667L401.667 762.333L401.333 761.667z"/>
<path style="fill:#5eeecc; stroke:none;" d="M402.333 774.667L402.667 775.333L402.333 774.667z"/>
<path style="fill:#e5dacf; stroke:none;" d="M1097.33 798.667L1097.67 799.333L1097.33 798.667M1097 804L1097 808L1098 808L1097 804M1097 810L1098 811L1097 810M1097 831L1097 835L1098 835L1097 831M1097.33 841.667L1097.67 842.333L1097.33 841.667M1097.33 849.667L1097.67 850.333L1097.33 849.667M1097 856L1097 861L1098 861L1097 856M1097 869L1098 870L1097 869M1097 909L1097 913L1098 913L1097 909M1097 921C1092.49 925.223 1085.81 924 1080 924L1041 924L1041 926L1085 926C1088.75 926 1098.64 927.233 1097 921z"/>
<path style="fill:#020203; stroke:none;" d="M984.603 924.028C980.645 927.163 983 941.33 983 946L983 1010L983 1194L983 1245C983 1250.89 980.977 1261.34 983.603 1266.68C985.339 1270.21 991.811 1269 995 1269L1024 1269C1027.39 1269 1032.71 1269.95 1035.68 1267.97C1040.3 1264.89 1038 1251.88 1038 1247L1038 1184L1038 1006L1038 951C1038 943.518 1039.81 933.33 1037.68 926.148C1036.36 921.679 1029.58 923 1026 923L996 923C992.878 923 987.221 921.954 984.603 924.028z"/>
<path style="fill:#5eeecc; stroke:none;" d="M1039 927L1039 934L1041 934L1041 927L1039 927M402 931L402 1087L403 1087L403 978C403 964.747 407.107 943.17 402 931M1039 935L1039 950L1041 950L1041 935L1039 935M1039 955L1039 963L1041 963L1041 955L1039 955z"/>
<path style="fill:#e5dacf; stroke:none;" d="M1039.67 963.333L1040.33 963.667L1039.67 963.333z"/>
<path style="fill:#5eeecc; stroke:none;" d="M1039 964L1039 977L1041 977L1041 964L1039 964M1039 978L1039 998L1041 998L1041 978L1039 978M1039 1011L1039 1029L1041 1029L1041 1011L1039 1011z"/>
<path style="fill:#d173c7; stroke:none;" d="M635 1326L635 1286L633.972 1270.43L620.424 1268.19L579 1269C576.026 1256.51 578 1241.81 578 1229C578 1224.6 579.382 1217.16 576.821 1213.32C574.653 1210.07 569.342 1211 566 1211L534 1211C530.662 1210.99 524.278 1209.35 521.603 1211.78C517.308 1215.69 520 1231.52 520 1237C520 1243.34 516.716 1262.57 520.897 1267.26C523.813 1270.53 532.078 1269 536 1269L577 1269L577 1312C577 1316.02 575.499 1324.26 580.228 1326.22C583.482 1327.56 588.52 1326.02 592 1326C601.333 1325.96 610.667 1326 620 1326C623.854 1326 631.466 1324.56 633.972 1328.32C635.954 1331.29 635 1336.61 635 1340L635 1369C635 1372.48 633.522 1380.53 636.603 1382.97C639.221 1385.05 644.879 1384 648 1384L678 1384C682.521 1384 690.084 1382.53 692.821 1387.15C697.118 1394.4 694 1410.7 694 1419L694 1500L749 1500L749 1200L749 1125C749 1118.43 745.456 1103.18 750.318 1098.32C755.748 1092.89 772.778 1096 780 1096C807.688 1096 835.278 1095 863 1095L863 1094L747 1094C731.624 1094 709.718 1089.97 695.059 1094.57C689.315 1096.38 691 1104.29 691 1109L691 1138C691 1141.72 691.998 1147.42 689.821 1150.68C685.98 1156.44 663.459 1153 657 1153C651.885 1153 642.758 1154.86 638.148 1152.65C632.526 1149.96 635 1136.15 635 1131L635 1064C635 1058.58 632.256 1042.3 638.228 1039.6C643.612 1037.18 653.156 1039 659 1039L708 1039L857 1039L900 1039C905.556 1039 913.732 1037.5 918.941 1039.6C924.379 1041.8 923 1049.31 923 1054L923 1095L923 1136C923 1140.34 924.422 1148.03 921.258 1151.53C918.476 1154.6 911.718 1153 908 1153C894.88 1152.99 879.793 1155.05 867 1152C868.048 1156.89 874.982 1155.17 879 1155.47C889.664 1156.26 900.305 1155.78 911 1155.78C915.115 1155.78 921.467 1157.19 924.056 1152.89C927.89 1146.52 925 1131.36 925 1124L925 1068C925 1059.65 926.742 1049.1 924.75 1041C923.254 1034.91 913.789 1037 909 1037L860 1037L692 1037L650 1037C646.099 1037 637.299 1035.37 634.333 1038.33C630.172 1042.49 633 1059.28 633 1065L633 1127C633 1134.09 630.609 1146.38 633.5 1152.89C635.462 1157.3 644.162 1156 648 1156C657.859 1156 668.191 1156.89 678 1155.92C682.165 1155.5 688.437 1153.21 691.667 1157.11C696.582 1163.05 693 1183.38 693 1191L693 1287L693 1314C693 1316.95 694.021 1322.24 691.667 1324.5C688.471 1327.57 680.082 1326 676 1326L635 1326z"/>
<path style="fill:#5eeecc; stroke:none;" d="M1039 1037L1039 1040L1041 1040L1041 1037L1039 1037z"/>
<path style="fill:#020203; stroke:none;" d="M636.742 1040.03C632.54 1043.43 635 1058.03 635 1063L635 1129C635 1134.34 632.074 1152.03 639.059 1153.4C651.007 1155.73 666.682 1153 679 1153C682.635 1153 689.126 1154.3 690.566 1149.85C694.084 1138.99 691 1122.42 691 1111C691 1106.69 689.492 1098.9 693.318 1095.86C700.306 1090.31 720.377 1094 729 1094L826 1094C835.036 1094 857.365 1089.96 864.566 1095.86C868.256 1098.88 867 1105.8 867 1110L867 1140C867 1143.12 865.954 1148.78 868.028 1151.4C870.261 1154.22 876.849 1153 880 1153C889.998 1153 900.003 1152.89 910 1153C913.234 1153.04 918.652 1154.75 921.258 1152.24C925.349 1148.31 923 1135.26 923 1130L923 1065C923 1059.58 925.705 1043.38 920.682 1040.03C916.787 1037.43 908.503 1039 904 1039L862 1039L701 1039L654 1039C649.743 1039 640.212 1037.22 636.742 1040.03z"/>
<path style="fill:#5eeecc; stroke:none;" d="M1039 1050L1039 1123L1041 1123L1041 1050L1039 1050M808 1096L809 1143L809 1229L809 1500L865 1500L865 1205C865 1178.43 866 1152.42 866 1126C866 1119.28 869.184 1102.96 865.667 1097.43C863.148 1093.47 854.968 1095 851 1095C837.271 1095 821.383 1092.81 808 1096z"/>
<path style="fill:#d173c7; stroke:none;" d="M864.667 1095.33L865.333 1095.67L864.667 1095.33z"/>
<path style="fill:#e5dacf; stroke:none;" d="M749 1500L809 1500L809 1193L809 1120C809 1115.2 811.536 1099.13 806.566 1096.6C803.064 1094.83 796.837 1096 793 1096L762 1096C757.483 1096 750.705 1094.85 748.603 1100.06C745.355 1108.11 749 1124.09 749 1133L749 1216L749 1500z"/>
<path style="fill:#d173c7; stroke:none;" d="M866.333 1097.67L866.667 1098.33L866.333 1097.67M866 1102L866 1149L867 1149C867 1135.74 871.11 1114.18 866 1102z"/>
<path style="fill:#5eeecc; stroke:none;" d="M1039 1155L1039 1184L1041 1184L1041 1155L1039 1155z"/>
<path style="fill:#e5dacf; stroke:none;" d="M1039 1184L1039 1191L1041 1191L1041 1184L1039 1184z"/>
<path style="fill:#5eeecc; stroke:none;" d="M1039 1191L1039 1221L1041 1221L1041 1191L1039 1191M402 1199L402 1240L403 1240C403 1228.3 406.511 1209.75 402 1199z"/>
<path style="fill:#020203; stroke:none;" d="M575 1267L575 1229C575 1225.27 576.423 1217.7 573.972 1214.6C570.837 1210.65 556.67 1213 552 1213C545.402 1213 527.849 1209.87 522.603 1214.03C519.784 1216.26 521 1222.85 521 1226L521 1255C521 1258.14 519.962 1263.95 522.603 1266.31C525.235 1268.65 532.652 1267 536 1267L575 1267z"/>
<path style="fill:#e5dacf; stroke:none;" d="M1039 1221L1039 1223L1041 1223L1041 1221L1039 1221z"/>
<path style="fill:#5eeecc; stroke:none;" d="M1039 1223L1039 1232L1041 1232L1041 1223L1039 1223z"/>
<path style="fill:#e5dacf; stroke:none;" d="M1039.67 1232.33L1040.33 1232.67L1039.67 1232.33z"/>
<path style="fill:#5eeecc; stroke:none;" d="M1039 1233L1039 1239L1041 1239L1041 1233L1039 1233M1039 1240L1039 1249L1041 1249L1041 1240L1039 1240M1039 1250L1039 1263L1041 1263L1041 1250L1039 1250M1039.67 1265.33L1040.33 1265.67L1039.67 1265.33z"/>
<path style="fill:#e5dacf; stroke:none;" d="M1038.33 1269.67L1038.67 1270.33L1038.33 1269.67M982 1270L982 1272L984 1272L982 1270z"/>
<path style="fill:#5eeecc; stroke:none;" d="M1016 1270L1015 1272L1017 1272L1016 1270z"/>
<path style="fill:#020203; stroke:none;" d="M579 1271L579 1325L615 1325L630.682 1324.4L633 1313L633 1283L631.397 1272.03L617 1271L579 1271M925 1271L925 1313C925 1317.53 926.357 1325.02 921.772 1327.82C918.33 1329.93 912.854 1329 909 1329L880 1329C875.623 1329 867.145 1327.21 866.148 1333.06C864.166 1344.7 866 1358.19 866 1370C866 1373.37 864.646 1380.39 868.318 1382.26C877.683 1387.03 898.486 1383.01 909 1383C913.141 1382.99 921.264 1381.22 923.972 1385.31C928.273 1391.82 925 1409.29 925 1417L925 1500L980 1500L980 1332L980 1289L978.972 1272.6L965 1271L925 1271z"/>
<path style="fill:#e5dacf; stroke:none;" d="M1004.67 1271.33L1005.33 1271.67L1004.67 1271.33z"/>
<path style="fill:#5eeecc; stroke:none;" d="M1006.67 1271.33L1007.33 1271.67L1006.67 1271.33z"/>
<path style="fill:#e5dacf; stroke:none;" d="M1008 1271L1009 1272L1008 1271z"/>
<path style="fill:#5eeecc; stroke:none;" d="M1009 1271L1010 1272L1009 1271z"/>
<path style="fill:#e5dacf; stroke:none;" d="M1010 1271L1010 1272L1015 1272L1010 1271M1017 1271L1017 1272L1021 1272L1017 1271z"/>
<path style="fill:#5eeecc; stroke:none;" d="M1021 1271L1021 1272L1026 1272L1021 1271z"/>
<path style="fill:#e5dacf; stroke:none;" d="M1026 1271L1026 1272L1032 1272L1026 1271z"/>
<path style="fill:#5eeecc; stroke:none;" d="M1032.67 1271.33L1033.33 1271.67L1032.67 1271.33z"/>
<path style="fill:#e5dacf; stroke:none;" d="M1034.67 1271.33L1035.33 1271.67L1034.67 1271.33z"/>
<path style="fill:#5eeecc; stroke:none;" d="M982.333 1272.67L982.667 1273.33L982.333 1272.67z"/>
<path style="fill:#e5dacf; stroke:none;" d="M982 1274L982 1279L983 1279L982 1274M982.333 1293.67L982.667 1294.33L982.333 1293.67M982 1297L983 1298L982 1297z"/>
<path style="fill:#5eeecc; stroke:none;" d="M982 1298L982 1302L983 1302L982 1298z"/>
<path style="fill:#e5dacf; stroke:none;" d="M982.333 1302.67L982.667 1303.33L982.333 1302.67M982 1306L982 1310L983 1310L982 1306z"/>
<path style="fill:#5eeecc; stroke:none;" d="M982 1310L982 1321L983 1321L982 1310z"/>
<path style="fill:#e5dacf; stroke:none;" d="M982.333 1321.67L982.667 1322.33L982.333 1321.67z"/>
<path style="fill:#5eeecc; stroke:none;" d="M982 1323L982 1336L983 1336L982 1323z"/>
<path style="fill:#020203; stroke:none;" d="M638.603 1329.07C634.287 1332.19 637 1350 637 1355C637 1360.38 634.083 1377.57 637.643 1381.4C640.221 1384.17 646.609 1383 650 1383L678 1383C681.484 1383 686.623 1383.86 689.682 1381.82C694.797 1378.41 692 1361.55 692 1356C692 1350.15 694.685 1335.29 690.972 1330.6C688.739 1327.78 682.151 1329 679 1329C669.002 1329 658.997 1329.12 649 1329C646.211 1328.96 640.995 1327.34 638.603 1329.07z"/>
<path style="fill:#e5dacf; stroke:none;" d="M982 1336L982 1393L983 1393L983 1354L982 1336M865 1500L924 1500L924 1420C924 1410.94 926.973 1395.51 923.107 1387.23C921.201 1383.15 915.713 1384 912 1384L879 1384C875.685 1384 868.368 1382.65 866.028 1385.6C861.763 1390.99 865 1409.21 865 1416L865 1500z"/>
<path style="fill:#5eeecc; stroke:none;" d="M982 1393L982 1416L983 1416L982 1393z"/>
<path style="fill:#e5dacf; stroke:none;" d="M982 1416L982 1444L983 1444L982 1416z"/>
<path style="fill:#5eeecc; stroke:none;" d="M982 1444L982 1455L983 1455L982 1444z"/>
<path style="fill:#e5dacf; stroke:none;" d="M982 1455L982 1460L983 1460L982 1455M982 1461L982 1468L983 1468L982 1461z"/>
<path style="fill:#5eeecc; stroke:none;" d="M982 1468L982 1481L983 1481L982 1468z"/>
<path style="fill:#e5dacf; stroke:none;" d="M982 1481L983 1482L982 1481z"/>
<path style="fill:#5eeecc; stroke:none;" d="M982.333 1482.67L982.667 1483.33L982.333 1482.67z"/>
<path style="fill:#e5dacf; stroke:none;" d="M982 1484L982 1487L983 1487L982 1484z"/>
<path style="fill:#5eeecc; stroke:none;" d="M982 1487L982 1490L983 1490L982 1487z"/>
<path style="fill:#e5dacf; stroke:none;" d="M982 1490L983 1491L982 1490z"/>
<path style="fill:#5eeecc; stroke:none;" d="M982 1491L982 1497L983 1497L982 1491z"/>
<path style="fill:#e5dacf; stroke:none;" d="M982 1497L982 1500L983 1500L982 1497z"/>
</svg>
