<?xml version="1.0" standalone="yes"?>
<svg xmlns="http://www.w3.org/2000/svg" width="1500" height="1500">
<path style="fill:#0f110e; stroke:none;" d="M0 0L0 1500L461 1500L461 928L461 793L461 762C461.002 757.339 460.527 752.004 466.019 750.434C478.37 746.903 496.147 749.851 509 750.004C523.91 750.181 538.792 752 554 752C558.934 752 568.435 750.193 572.682 753.028C575.937 755.2 575 760.659 575 764L575 794L575 888C575 896.302 571.385 915.724 576.028 922.682C578.2 925.937 583.659 925 587 925L617 925L705 925C718.669 925 734.439 927.207 747.891 924.852C754.31 923.728 752 911.751 752 907L752 851L752 779C752 773.233 749.306 757.901 753.603 753.603C756.87 750.337 765.759 752 770 752L817 752L848 752C851.791 752 857.326 751.028 860.762 752.938C864.273 754.891 863.001 760.672 863 764L863 794L863 887C863 895.666 859.312 915.388 864.179 922.682C867.655 927.892 885.317 925 891 925L955 925C960.269 925 973.429 922.636 977.397 926.603C982.546 931.753 979 952.926 979 960L979 1057L979 1083C979 1086.07 978.173 1090.88 980.603 1093.26C985.23 1097.79 1000.88 1095 1007 1095C1032.49 1095 1057.45 1093 1083 1093L1387 1093C1388.29 1088.84 1390.71 1088.84 1392 1093L1388 1093L1388 1151L1444 1151L1444 1147L1449 1147C1441.46 1166.29 1446 1193.32 1446 1214L1449 1214L1449 1219L1444 1214L1443 1214L1427 1216L1388 1214L1388 1272L1392 1272L1392 1277L1387 1277L1387 1273L1037 1273L1037 1230C1037 1225.87 1038.66 1217 1035.97 1213.6C1033.63 1210.65 1026.32 1212 1023 1212C1011.14 1212 994.313 1208.94 983.059 1212.8C977.343 1214.77 979 1222.18 979 1227L979 1254C979 1257.17 980.071 1262.41 978.535 1265.28C976.346 1269.36 968.79 1268 965 1268C955.009 1268 944.988 1268.23 935 1267.99C931.168 1267.89 925.774 1266.11 922.858 1269.51C920.173 1272.65 921 1278.19 921 1282L921 1311C921.001 1314.45 922.661 1321.69 919.527 1324.09C915.644 1327.06 904.754 1325 900 1325L848 1325L710 1325C687.62 1325 664.289 1326.92 642.005 1324.94C634.531 1324.28 636 1316.63 636 1311L636 1281C636 1277.79 637.009 1272.31 634.972 1269.56C632.148 1265.76 624.935 1267.95 621 1268C611.336 1268.11 601.664 1268 592 1268C588.528 1268 583.178 1268.92 580.357 1266.4C577.188 1263.56 579 1255.86 579 1252C579.001 1240.72 581.886 1224.89 578.566 1214.11C576.96 1208.89 570.274 1210 566 1210C553.946 1210 535.422 1206.37 524.059 1209.77C519.019 1211.28 520 1217.94 520 1222L520 1255C520 1258.47 518.859 1264.7 521.603 1267.39C524.386 1270.12 530.52 1268.05 534 1268C543.664 1267.89 553.336 1268 563 1268C566.872 1268 572.459 1267.08 575.682 1269.74C579.339 1272.76 578 1279.81 578 1284L578 1312C577.995 1315.28 576.586 1320.76 578.269 1323.68C580.533 1327.61 589.215 1326 593 1326L635 1326L635 1367C635 1371.06 633.463 1379.26 636.603 1382.4C639.614 1385.41 647.12 1384 651 1384L692 1384L856 1384L904 1384C908.8 1384 917.763 1382.3 921.682 1385.6C927.143 1390.2 924 1408.37 924 1415L924 1500L1500 1500L1500 0L0 0z"/>
<path style="fill:#329b61; stroke:none;" d="M343 112L344 113L343 112M286.333 169.667L286.667 170.333L286.333 169.667M867.333 169.667L867.667 170.333L867.333 169.667z"/>
<path style="fill:#f7082a; stroke:none;" d="M345 172C342.079 213.348 347 255.463 347 297L347 330C347 333.833 345.787 340.345 348.028 343.681C350.569 347.465 358.175 345.019 362 345.001C371.499 344.955 394.038 340.898 401.772 346.742C406.021 349.953 405 356.335 405 361C405 370.658 405.222 380.345 404.985 390C404.908 393.143 403.244 397.849 405.042 400.682C407.436 404.454 415.226 403 419 403C428.944 403 450.262 398.942 458.852 404.028C463.641 406.864 462 415.329 462 420C462 434.05 460.431 449.16 463 463L503 463C506.462 463 514.425 464.468 517.168 461.972C520.668 458.788 518 441.776 518 437L518 372C518 366.532 520.462 353.009 516.972 348.603C514.532 345.522 506.476 347 503 347L475 347C471.485 347 466.365 347.89 463.228 345.972C458.838 343.288 460 336.339 460 332C460 322.334 459.954 312.666 460.001 303C460.016 299.752 461.607 294.296 459.782 291.438C457.473 287.822 449.61 289.994 446 290L417 290C413.36 290 408.347 290.756 405.318 288.258C399.864 283.76 403 265.565 403 259L403 172L345 172z"/>
<path style="fill:#329b61; stroke:none;" d="M403 174C416.975 170.673 433.66 173 448 173C453.203 173 460.735 171.613 462.566 178.019C465.699 188.976 463.132 204.605 462.996 216C462.952 219.692 460.611 226.482 464.319 228.972C467.276 230.958 472.62 230 476 230L505 230C509.337 230 516.343 228.707 518.972 233.148C524.058 241.738 520 263.056 520 273C520 276.662 518.718 283.561 521.603 286.393C524.386 289.123 530.52 287.045 534 287.004C544.661 286.877 555.338 286.945 566 287.001C570.426 287.024 575.502 287.226 577.397 292.044C581.322 302.024 578 319.281 578 330C578 360.016 577 390.057 577 420L577 449C577 452.633 577.814 457.758 574.682 460.397C571.068 463.442 563.404 462 559 462C545.351 462 531.544 462.712 518 461C521.617 466.579 534.931 464 541 464L567 464C570.101 464 574.971 464.823 577.397 462.397C579.981 459.812 579 454.306 579 451L579 420C579 416.496 577.676 409.302 580.603 406.693C583.436 404.168 592.333 406 596 406C608.812 406 623.506 407.975 636 405C632.489 391.942 635 375.507 635 362L635 275C635 263.233 638.749 244.008 634.667 233.028C632.934 228.367 624.93 230 621 230L590 230C586.561 230 580.861 231.115 578.528 227.889C576.54 225.141 578 219.267 578 216L578 185C578 181.805 579.283 174.998 577.278 172.333C575.661 170.185 571.327 171 569 171L544 171L441 171L412 171C408.346 171 403.904 169.779 403 174M691 171L692 174L735 173L749.397 175.318L751 188L751 221L751 351L751 387L749.397 401.682L734 404L691 404C697.512 408.933 712.98 406 721 406L778 406C788.056 406 799.181 407.338 809 405C804.335 385.406 808 361.138 808 341C808 306.767 804.12 269.969 808.184 236C810.099 220.001 810 204.204 810 188C810 184.089 811.68 174.797 808.258 172.028C802.86 167.661 783.873 171 777 171L691 171z"/>
<path style="fill:#f7082a; stroke:none;" d="M578 172L578 215C577.994 218.76 575.834 226.451 579.438 228.972C582.305 230.979 587.691 230 591 230L620 230C624.687 230 632.201 228.621 634.397 234.059C638.377 243.914 635 261.376 635 272L635 361L635 392C635 395.121 633.954 400.779 636.028 403.397C638.468 406.478 646.524 405 650 405C663.003 405 679.525 407.688 692 404L691 354L691 260L691 204L692 173L655 172L578 172z"/>
<path style="fill:#faec7e; stroke:none;" d="M404.603 174.028C400.545 177.242 403 192.187 403 197L403 264C403 269.42 400.299 285.472 405.318 288.821C408.377 290.862 413.516 290 417 290L446 290C449.529 289.999 456.656 288.351 459.168 291.473C461.333 294.163 460.005 299.78 460 303L460 333C460 336.597 458.966 342.56 461.742 345.397C464.277 347.986 469.732 347 473 347L503 347C506.854 347 514.466 345.563 516.972 349.318C520.72 354.935 518 369.371 518 376L518 434C518 440.868 515.761 452.468 518.603 458.772C520.55 463.089 527.181 462 531 462L562 462C565.618 462 571.52 463.082 574.682 460.972C579.991 457.43 577 438.812 577 433C577 405.321 578 377.719 578 350L578 303C578 298.09 579.579 290.101 573.941 287.742C563.888 283.536 545.874 286.983 535 287C531.175 287.006 524.433 288.916 521.603 285.667C519.098 282.791 520 277.512 520 274L520 245C520 241.146 521.437 233.534 517.682 231.028C514.713 229.046 509.389 230 506 230L478 230C474.064 230 467.547 231.196 464.333 228.397C461.178 225.649 462.982 219.674 462.999 216C463.047 206 463.001 196 463 186C463 182.613 463.873 177.275 461.258 174.603C458.879 172.173 454.065 173 451 173L426 173C420.912 173 408.725 170.763 404.603 174.028M693.318 173.742C689.023 175.932 691 186.969 691 191L691 243L691 359L691 389C691 392.618 689.918 398.52 692.028 401.682C694.431 405.284 701.309 404 705 404C716.61 404 737.231 408.033 747.852 403.397C752.886 401.199 751 391.409 751 387L751 337L751 219L751 188C751 184.382 752.082 178.48 749.972 175.318C747.569 171.716 740.69 173 737 173L707 173C703.036 173 696.949 171.891 693.318 173.742z"/>
<path style="fill:#329b61; stroke:none;" d="M287 229C285.365 241.947 287 255.85 287 269C287 273.016 288.527 281.115 285.972 284.477C283.598 287.602 275.47 286 272 286L243 286C239.411 286 233.716 284.937 230.434 286.603C226.424 288.638 228 297.333 228 301C228 316.007 226.338 332.193 229 347L230 347C232.454 333.781 231.001 319.417 231 306C231 301.821 228.978 293.835 231.757 290.434C234.484 287.095 240.205 288 244 288L277 288C281.142 288.002 287.289 287.214 289.017 292.109C291.235 298.393 289 309.239 289 316L289 373C289 379.839 286.167 394.897 290.028 400.682C292.431 404.284 299.309 403 303 403L334 403C337.633 403 342.758 402.186 345.397 405.318C348.027 408.44 347 414.219 347 418L347 447C347 450.389 346.046 455.713 348.028 458.682C350.534 462.437 358.146 461 362 461C371.658 461 381.345 461.218 391 460.985C394.915 460.891 399.487 459.39 402.682 462.438C407.324 466.865 405 479.106 405 485C405 506.722 404 528.282 404 550C404 556.03 406.716 571.156 401.682 575.397C398.068 578.442 390.404 577 386 577L347 577L347 579L391 579C394.605 579 403.451 580.637 405.397 576.682C410.039 567.247 406 546.546 406 536C406 532.371 404.576 524.699 407.434 521.912C409.813 519.592 416.934 521 420 521L450 521C453.218 521 458.689 522.008 461.436 519.972C466.28 516.382 463 499.584 463 494C463 472.56 462 451.426 462 430C462 423.792 464.494 410.596 460.972 405.318C458.466 401.563 450.854 403 447 403C437.123 403 415.652 407.077 407.152 401.972C402.853 399.39 404.993 392.168 405 388L405 358C404.999 354.359 405.678 349.39 402.566 346.742C399.606 344.224 394.591 345 391 345L362 345C358.175 345.006 351.433 346.916 348.603 343.667C344.562 339.027 347 325.844 347 320L347 257C347 251.173 349.907 233.703 344.566 230.028C340.769 227.414 332.426 229 328 229L287 229z"/>
<path style="fill:#f7082a; stroke:none;" d="M865 405C861.619 378.249 864 349.971 864 323C864 299.579 867 277.43 867 254C867 248.564 869.475 234.682 865.397 230.603C860.883 226.09 844.097 229 838 229C831.946 229 814.195 226.003 809.858 230.603C807.274 233.344 808.001 238.569 808 242L808 269L808 368L808 393C808 395.91 807.088 400.948 809.028 403.397C811.468 406.478 819.524 405 823 405L865 405z"/>
<path style="fill:#329b61; stroke:none;" d="M169.667 286.333L170.333 286.667L169.667 286.333M866 287L866 288L906 288L921.447 289.742L923 303L923.004 339L924 384L922.397 401.682L908 404L865 403C866.217 408.68 884.776 406 890 406L960 406C965.605 406 980.657 408.827 982.583 401.972C986.174 389.197 983 371.281 983 358C983 354.709 984.612 345.889 980.889 344.333C970.776 340.107 951.028 344 940 344C936.941 344 928.701 345.728 926.5 343.639C923.388 340.684 925 331.904 925 328C925 313.982 925.234 299.919 925 286C907.026 286 883.21 281.913 866 287M983 286L984 287L983 286z"/>
<path style="fill:#faec7e; stroke:none;" d="M233.228 288.742C228.798 290.813 230.655 296.243 230.91 300C231.563 309.587 231 319.391 231 329C231 359.599 230 390.324 230 421C230 431.579 226.517 449.073 229.983 458.891C231.892 464.298 239.519 463 244 463C254.333 463 264.667 463.045 275 462.999C278.217 462.985 283.841 461.582 286.168 464.473C288.44 467.295 287.001 473.595 287 477L287 505C287 508.797 286.044 514.355 288.179 517.721C290.916 522.036 297.775 520.021 302 520.001C311.666 519.955 321.334 520 331 520C334.484 520 339.623 519.138 342.682 521.179C346.434 523.682 345 531.145 345 535L345 564C345 567.121 343.954 572.779 346.028 575.397C347.891 577.75 352.383 576.999 355 577L381 577C386.361 577 397.088 579.038 401.682 575.972C406.802 572.556 404 555.551 404 550C404 528.616 405 507.39 405 486C405 480.163 407.429 467.064 403.397 462.434C400.139 458.694 394.215 460.882 390 460.985C380.345 461.222 370.658 461 361 461C357.439 461 352.262 461.877 349.318 459.397C346.186 456.758 347 451.633 347 448L347 417C347 413.309 348.284 406.431 344.682 404.028C341.713 402.046 336.389 403 333 403L304 403C299.663 403 292.657 404.293 290.028 399.852C286.721 394.267 289 382.357 289 376L289 315C289 309.05 291.882 295.335 288.678 290.434C286.304 286.802 279.682 288 276 288C264.573 288 243.58 283.904 233.228 288.742M865.742 289.028C863.018 291.232 864 296.938 864 300L864 332L864 384C864 388.59 862.095 398.888 865.603 402.397C870.648 407.441 891.088 404 898 404C903.997 404 916.574 406.381 921.682 402.972C924.937 400.8 924 395.341 924 392L924 363C924 344.657 923 326.385 923 308C923 303.609 925.409 292.034 921.482 289.179C915.334 284.71 897.471 288 890 288C884.425 288 870.189 285.43 865.742 289.028z"/>
<path style="fill:#329b61; stroke:none;" d="M112 343L113 344L112 343z"/>
<path style="fill:#f7082a; stroke:none;" d="M172 345C168.75 387.68 172 432.098 172 475C172 485.657 172.242 496.346 171.985 507C171.896 510.716 170.143 516.266 172.939 519.397C175.287 522.026 180.86 521 184 521L215 521C218.387 521 225.699 519.517 228.088 522.523C230.176 525.151 229.001 530.857 229 534L229 564C229 567.725 227.535 575.281 231.318 577.562C234.665 579.581 239.357 578.102 243 578.015C252.988 577.774 263.009 578 273 578C276.389 578 281.713 577.046 284.682 579.028C287.937 581.2 287 586.659 287 590L287 622C287 625.83 285.336 634.254 290.148 635.682C302.329 639.298 320.269 636 333 636C336.891 636 344.145 637.354 346.682 633.566C349.552 629.283 348 620.916 348 616C348 600.389 345.596 585.21 345.019 570C344.577 558.369 345 546.64 345 535C345 531.522 346.302 524.621 343.972 521.742C341.411 518.576 333.586 520 330 520L302 520C298.465 520.004 293.355 521.066 290.228 519.052C286.313 516.531 287.002 511.006 287 507C286.996 496.667 286.951 486.333 287.001 476C287.017 472.667 288.859 466.373 286.243 463.757C283.628 461.141 277.333 462.983 274 462.999C264.001 463.047 254 463.001 244 463C240.055 463 234.507 463.838 231.553 460.566C227.491 456.067 230 442.788 230 437L230 373C230 367.446 232.865 349.756 228.258 346.028C225.078 343.455 216.871 345 213 345C199.413 345 185.512 344.046 172 345z"/>
<path style="fill:#329b61; stroke:none;" d="M979 690C979 647.724 982 606.4 982 564L982 533C982 529.601 983.094 523.496 980.258 520.942C977.455 518.418 972.36 519.908 969 519.985C959.011 520.214 948.992 520 939 520C900.906 520 862.344 518 824 518L696 518L657 518C651.177 518 643.67 516.752 638.059 518.434C632.515 520.095 634 527.51 634 532L634 564C634 567.341 634.937 572.8 631.682 574.972C626.066 578.72 611.629 576 605 576L546 576C539.094 576 527.553 573.788 521.228 576.742C516.528 578.938 518 586.814 518 591L518 620C518.005 623.371 519.287 628.793 517.168 631.682C514.814 634.892 509.447 634 506 634L475 634C471.849 634 465.261 632.784 463.028 635.603C460.825 638.385 462 644.672 462 648L462 679C462 682.77 460.514 690.065 465.148 691.566C470.612 693.336 478.293 692 484 692C498.059 692 512.001 692.048 526 691.089C557.377 688.941 589.539 690 621 690L761 690L979 690z"/>
<path style="fill:#0f110e; stroke:none;" d="M638 580L639 584L640 584L640 580L638 580M917 580L920 583L919 580L917 580z"/>
<path style="fill:#329b61; stroke:none;" d="M283 637L284 638L283 637z"/>
<path style="fill:#0f110e; stroke:none;" d="M580 639L580 640L583 641L583 638L580 639z"/>
<path style="fill:#329b61; stroke:none;" d="M461 1500L924 1500L924 1415C924 1408.58 927.124 1390.33 922.397 1385.6C918.888 1382.09 908.59 1384 904 1384L854 1384L691 1384L651 1384C646.776 1384 639.677 1385.33 636.603 1381.68C633.558 1378.07 635 1370.4 635 1366L635 1326L593 1326C588.843 1326 580.6 1327.57 578.465 1322.85C574.134 1313.28 578 1293.57 578 1283C578 1279.14 579.434 1271.68 575.682 1269.18C572.623 1267.14 567.484 1268 564 1268L535 1268C531.446 1268.01 525.288 1269.69 522.318 1267.36C518.787 1264.59 520 1257.92 520 1254L520 1221C520.009 1216.73 519.872 1211.3 525.019 1210.03C537.008 1207.05 553.581 1210 566 1210C570.75 1210 576.909 1209.37 578.566 1215.04C581.839 1226.26 579.056 1242.31 578.999 1254C578.982 1257.58 576.808 1264.59 580.322 1266.97C583.261 1268.97 588.633 1268 592 1268C601.666 1268 611.334 1268.04 621 1268C625.111 1267.98 632.274 1266.15 634.972 1270.3C636.934 1273.32 636 1278.57 636 1282L636 1311C636 1316.08 634.143 1324.32 641.019 1324.94C663.279 1326.97 686.639 1325 709 1325L845 1325L899 1325C904.008 1325 915.337 1327.28 919.562 1324.73C923.187 1322.54 921.006 1314.53 921 1311C920.983 1300.55 917.13 1280.34 922.318 1271.13C925.05 1266.28 931.404 1267.98 936 1268C946.333 1268.05 956.667 1268 967 1268C970.104 1268 975.865 1269.04 978.168 1266.4C980.254 1264 979.014 1258.92 979.001 1256C978.958 1246.33 979 1236.67 979 1227C979 1221.57 977.652 1214.89 984.019 1212.8C995.193 1209.14 1011.29 1212 1023 1212C1026.69 1212 1033.57 1210.72 1035.97 1214.32C1038.57 1218.21 1037 1226.5 1037 1231L1037 1273L1039 1273C1038.88 1258.02 1039 1243.01 1039 1228C1039 1223.75 1040.65 1214.84 1036.57 1212.03C1033.67 1210.03 1028.33 1211 1025 1211L996 1211L906 1211C896.173 1211 877.945 1214.59 869.059 1210.65C864.443 1208.6 865.002 1203.19 865 1199C864.995 1188.68 864.762 1178.32 865.015 1168C865.108 1164.17 867.435 1157.7 863.566 1155.03C860.672 1153.03 855.329 1154 852 1154L823 1154C818.703 1154 811.78 1155.22 808.603 1151.57C803.675 1145.9 807 1127.29 807 1120C807 1114.49 804.62 1101.62 809.318 1097.74C812.726 1094.93 818.904 1096 823 1096L856 1096C899.993 1096 944.093 1096.93 988 1097L1025 1097C1031.27 1097 1037.53 1098.07 1042 1093C1028.43 1097.95 1010.34 1095 996 1095C991.51 1095 983.921 1096.38 980.603 1092.57C975.565 1086.77 979 1067.46 979 1060L979 970L979 938C979 934.849 980.216 928.261 977.397 926.028C972.991 922.538 959.467 925 954 925L891 925C884.532 925 866.775 928.189 863.742 920.941C859.63 911.114 863 893.625 863 883L863 794C863 783.667 862.956 773.333 863.001 763C863.015 759.83 864.411 754.26 860.812 752.603C854.57 749.729 842.825 752 836 752L778 752C773.08 752 755.062 749.32 752.603 754.318C749.232 761.17 752 775.392 752 783L752 855L752 908C752 913.24 754.056 923.674 746.956 924.852C733.712 927.049 718.435 925 705 925L618 925L588 925C584.367 925 579.242 925.814 576.603 922.682C571.346 916.442 575 895.961 575 888L575 792L575 763C575 760.197 575.918 755.025 573.397 753.028C569.852 750.221 560.32 752 556 752C540.523 752 525.232 750.185 510 750.004C496.143 749.839 479.622 747.637 466.019 750.228C460.423 751.294 461.002 756.439 461 761L461 792L461 926L461 1500z"/>
<path style="fill:#f7082a; stroke:none;" d="M354 925L354 924C347.297 922.931 348 917.684 348 912L348 880C348 876.382 346.918 870.48 349.028 867.318C351.321 863.882 357.48 865 361 865C372.835 865 385.335 863.834 397 866C388.637 860.287 368.995 863.999 359 864C355.34 864 349.474 863.083 347.028 866.573C343.265 871.939 346 886.569 346 893C346 902.196 341.441 924.05 354 925z"/>
<path style="fill:#fe01fb; stroke:none;" d="M349.603 866.028C345.348 869.398 348 885.902 348 891C348 897.974 344.653 916.873 349.028 922.397C351.147 925.073 357.02 924 360 924C367.795 924 389.018 927.74 395.106 922.682C399.665 918.895 397 903.47 397 898C397 891.126 400.339 872.14 395.972 866.742C393.768 864.018 388.062 865 385 865L360 865C357.09 865 352.052 864.088 349.603 866.028z"/>
<path style="fill:#f7082a; stroke:none;" d="M395 922L395 924L397 924L397 922L395 922M1387 1093L1328 1093C1328.3 1107.97 1328 1122.99 1328 1138C1328 1141.85 1326.46 1150.37 1330.43 1152.73C1333.28 1154.42 1338.79 1153.01 1342 1153L1371 1153C1375.35 1153 1383.14 1151.63 1384.68 1157.11C1388.1 1169.2 1385 1186.42 1385 1199C1385 1203.27 1386.28 1210.22 1380.94 1211.68C1369.88 1214.72 1354.48 1212 1343 1212C1339.53 1212 1331.61 1210.53 1329.18 1213.6C1325.45 1218.31 1328 1232.2 1328 1238C1328 1246.35 1328.1 1254.66 1328.41 1263C1328.5 1265.51 1327.35 1269.23 1329.03 1271.4C1331.51 1274.6 1340.41 1273 1344 1273L1387 1273L1387 1277L1392 1277L1392 1272L1388 1272L1388 1214L1428 1216L1443 1214L1444 1214C1444.59 1217.4 1445.65 1218.27 1449 1219L1449 1214L1446 1214C1446 1191.81 1443.69 1168.37 1449 1147L1444 1147L1444 1151L1388 1151L1388 1093L1392 1093C1391.17 1088.01 1387.83 1088.01 1387 1093z"/>
<path style="fill:#faec7e; stroke:none;" d="M1039 1273L1329 1273C1325.96 1259.02 1328 1242.36 1328 1228C1328 1223.91 1326.5 1215.74 1330.43 1213.03C1333.33 1211.03 1338.67 1212 1342 1212L1371 1212C1376.08 1212 1384.32 1213.86 1384.94 1206.98C1386.13 1193.88 1385 1180.16 1385 1167C1385 1163.49 1386.5 1155.69 1382.68 1153.74C1373.73 1149.18 1354.04 1153 1344 1153C1340.18 1153 1332.62 1154.54 1329.74 1151.48C1326.42 1147.94 1328 1139.46 1328 1135C1328 1120.99 1328.6 1106.93 1328 1093C1234.72 1093 1141.26 1091.29 1048 1093C1042.16 1093.11 1037.8 1096.8 1032 1096.98C994.041 1098.17 955.994 1096 918 1096L839 1096C831.592 1096 815.602 1092.99 809.318 1097.18C805.72 1099.58 807 1106.31 807 1110C807 1120.94 803.113 1140.81 807.603 1150.77C809.726 1155.48 817.866 1154 822 1154L851 1154C854.507 1154 859.645 1153.11 862.771 1155.03C867.082 1157.68 865.053 1163.87 865.004 1168C864.878 1178.66 864.995 1189.34 865 1200C865.002 1203.66 864.318 1208.71 868.148 1210.78C871.187 1212.42 875.696 1211.04 879 1211C887.331 1210.91 895.669 1211 904 1211L996 1211L1026 1211C1029.61 1211 1034.67 1210.18 1037.26 1213.32C1040.49 1217.24 1039 1225.27 1039 1230C1039 1244.37 1038.71 1258.71 1039 1273z"/>
<path style="fill:#0f110e; stroke:none;" d="M805 1156L805 1094L766 1094L750.318 1095.03L748 1108L748 1143L750.318 1154.97L766 1156L805 1156z"/>
<path style="fill:#f7082a; stroke:none;" d="M1271 1210L1310 1210L1324.67 1208.97L1326 1197L1326.01 1167L1325.38 1156.74L1314 1155L1283 1155L1271.35 1157.32L1271 1172L1271 1210z"/>
<path style="fill:#faec7e; stroke:none;" d="M1031 1273L1036 1277L1036 1273L1031 1273z"/>
</svg>
