<?xml version="1.0" standalone="yes"?>
<svg xmlns="http://www.w3.org/2000/svg" width="1500" height="1500">
<path style="fill:#060203; stroke:none;" d="M0 0L0 1500L402 1500L402 741L401.961 580L401 536L402.858 519.318L417 516.039L458 517C460.53 505.323 458 490.12 458 478C458 473.19 456.86 466.581 459.573 462.329C462.926 457.073 469.622 458 475 458L517 458C517 444.669 517.133 431.33 516.996 418C516.95 413.47 515.168 406.134 519.317 402.858C524.868 398.474 538.289 401 545 401L612 401L837 401L898 401C904.977 401 916.66 398.791 922.852 402.457C927.471 405.192 926 412.459 926 417L926 458L968 458C972.469 458.002 980.024 457.138 982.258 462.144C986.698 472.099 983 491.117 983 502C983 505.331 981.505 513.694 984.603 515.933C987.102 517.739 993.039 516.015 996 516.001C1006.5 515.95 1017.58 515.055 1028 516.424C1031.51 516.885 1037.7 516.134 1039.97 519.434C1041.83 522.138 1041 526.897 1041 530L1041 557L1041 660L1041 1050L1041 1214L1041 1254C1041 1258.76 1042.25 1265.43 1038.28 1268.97C1034.03 1272.76 1026.27 1272 1021 1272C1008.7 1272 995.107 1270.27 983 1272L983 1500L1500 1500L1500 0L0 0z"/>
<path style="fill:#4140a6; stroke:none;" d="M517 458L474 458C468.605 458 461.121 456.94 458.703 463.185C454.691 473.546 457.999 490.911 458 502C458 505.155 459.676 512.939 457.307 515.307C455.022 517.592 448.007 516.001 445 516C434.485 515.996 423.447 515.052 413 516.286C410.089 516.629 405.006 516.323 402.858 518.603C399.635 522.024 401 529.714 401 534C401 548.334 400.473 562.741 401.83 577C406.28 623.757 402 673.01 402 720L402 1500L404 1500L404 804L404 605L404 548C404 540.903 401.877 529.685 404.742 523.113C406.888 518.189 413.72 519.993 418 520L450 520C453.145 520.005 459.024 521.355 461.307 518.593C463.457 515.992 462.005 510.155 462 507L462 476C462 472.403 460.966 466.439 463.742 463.603C466.277 461.014 471.732 462 475 462L506 462C509.388 462.001 516.673 463.668 518.972 460.527C520.962 457.809 519.802 452.876 519.884 449.714C520.149 439.483 520.004 429.235 520 419C519.998 414.971 518.209 407.722 522.243 405.179C528.094 401.491 541.251 404 548 404L614 404L836 404L896 404C902.357 404 914.267 401.721 919.852 405.028C924.641 407.864 923 416.329 923 421C923 433.364 919.629 451.522 924 463C936.598 460.661 950.215 462 963 462C967.199 462 974.055 460.724 977.768 463.028C981.885 465.582 980.02 471.993 980.001 476C979.948 487.17 983.611 505.904 979 516L979 517C987.917 524.159 1009.74 520 1021 520C1025.26 520 1034.26 518.119 1036.97 522.293C1038.94 525.311 1038 530.574 1038 534L1038 563L1038 670L1038 1075L1038 1219L1038 1254C1038 1258.04 1039.17 1264.46 1035.68 1267.4C1032.23 1270.31 1025.2 1269 1021 1269C1008.91 1269 995.968 1267.68 984 1269C979.53 1195.12 983 1120.04 983 1046L983 632L894 632C887.571 632 868.284 628.817 864.028 634.564C861.493 637.986 863 645.94 863 650L863 690L864 690C866.53 678.323 864 663.12 864 651C864 646.242 862.725 639.142 866.434 635.434C871.244 630.623 883.735 633 890 633L956 633C962.477 633 979.529 629.802 981.682 638.019C983.787 646.053 982 656.703 982 665L982 721C982 727.097 984.91 743.883 980.397 748.397C977.521 751.272 970.694 750 967 750L938 750C934.879 750 929.221 748.954 926.603 751.028C923.522 753.468 925 761.524 925 765C925 777.997 925.63 791.102 924 804L925 804L926 752L964 752L977.643 752.643L979 766L979 805L925 805L925 806L982 806L982 1141L982 1232C982 1240.9 985.482 1259.1 980.973 1266.85C978.492 1271.12 973.113 1270.03 968.996 1270C958.665 1269.93 948.331 1270 938 1270C934.309 1270 927.431 1268.72 925.028 1272.32C923.046 1275.29 924 1280.61 924 1284L924 1313C924 1316.78 925.027 1322.56 922.397 1325.68C919.323 1329.33 912.224 1328 908 1328L867 1328L702 1328L652 1328C647.4 1328 637.201 1325.88 636.148 1332.06C634.166 1343.7 636 1357.19 636 1369C636 1372.32 634.649 1379.63 637.603 1381.97C640.85 1384.54 649.071 1383 653 1383L696 1383L863 1383L905 1383C909.805 1383 917.51 1381.57 921.772 1384.18C928.178 1388.1 925 1406.43 925 1413L925 1500L926 1500L926 1414C926 1407.41 929.23 1388.44 924.397 1383.6C920.77 1379.98 909.762 1382 905 1382L852 1382L637 1382L637 1344C637 1340.43 635.693 1333.35 638.603 1330.64C641.672 1327.79 652.854 1330 657 1330L711 1330L853 1330C873.975 1330 899.489 1333.99 919.985 1329.66C927.157 1328.14 926 1320.72 926 1315L926 1285C925.995 1281.96 924.457 1276.1 926.117 1273.47C928.175 1270.22 936.69 1272 940 1272L980 1272L980 1500L983 1500L983 1272L1023 1272L1038.97 1268.97L1041 1256L1041 1223L1041 1089L1041 518C1027.84 515.557 1013.39 516 1000 516C996.332 516 987.436 517.832 984.603 515.307C981.545 512.58 983 504.677 983 501C983 490.573 986.877 470.66 982.258 461.303C980.055 456.841 972.038 458 968 458L926 458L926 417C926 412.989 927.569 405.051 923.682 402.457C917.801 398.533 904.828 401 898 401L832 401L604 401L543 401C536.654 401 524.835 398.757 519.317 402.318C514.884 405.179 516.78 412.721 516.961 417C517.535 430.618 517 444.37 517 458z"/>
<path style="fill:#060203; stroke:none;" d="M520 459L564 458L644 458L713 458L751 459L751 450L750 450L750 455L740 451C737.041 455.564 729.904 454 725 454L685 454L576 454C559.542 454 538.538 450.536 523 456L522 419L524.303 407.289L548 407L608 407L828 407L894 407L918.477 407.198L920 419L920 456L914 451L910 451C906.314 456.685 892.205 454 886 454L826 454C819.475 454 809.213 451.991 805 458L880 458L922 459L923 418L920.682 405.028L898 404L838 404L612 404L546 404L521.438 405.179L520 419L520 459z"/>
<path style="fill:#d9092b; stroke:none;" d="M523 456C542.186 451.97 563.235 454 583 454L688 454L727 454C731.088 454 738.96 455.853 740 451L750 455L750 450L751 450L751 459C734.755 454.532 712.929 458 696 458L581 458L539 458C533.932 458.002 525.87 456.696 521.301 459.14C510.856 464.726 515.999 492.654 516 503C516 505.996 517.437 512.987 515.227 515.307C512.971 517.675 505.072 516 502 516C492.611 515.999 470.68 511.956 463.019 517.407C452.607 524.816 458.194 554.469 457.986 566C457.886 571.537 458.028 576.088 463.439 579.192C467.699 581.636 475.207 580 480 580L520 580L520 584L516 586L465 582C462.333 593.203 460.723 617.37 465 628C477.964 625.593 491.85 627.153 505 626.996C511.96 626.913 516.697 624.227 521 631L479 632L464.028 632.607L463 656L463 722L463 979C476.054 980.863 490.743 978.995 504 979C507.389 979.001 514.672 980.667 516.972 977.527C520.547 972.646 518 958.908 518 953L518 888L518 720C518 694.023 514.105 664.633 518.148 639.004C519.271 631.885 526.261 631.859 532 632.2C540.965 632.732 550.038 632.483 559 632.075C561.746 631.95 566.956 632.985 569.168 630.972C571.597 628.762 570 621.034 570 618L570 580L522 579L522 537C522 533.575 520.086 525.199 522.643 522.643C524.656 520.63 528.516 521.857 531 521.961C538.31 522.266 545.684 522 553 522C557.809 522 568.61 519.767 572.682 522.117C577.135 524.687 574 543.967 574 549L574 611C574 617.056 571.131 628.809 575.099 633.419C580.341 639.51 586.671 638 594 638L635 638C693.387 638 751.653 637 810 637L810 596C810 591.832 808.505 583.916 811.028 580.357C813.028 577.534 818.078 578.963 821 578.996C829.997 579.099 839.002 579 848 579C881.601 579 915.322 580 949 580L974 580C976.607 579.999 980.966 580.739 982.821 578.397C985.366 575.183 984 567.851 984 564C984 551.185 985.212 537.691 984.157 524.961C983.829 521.01 980.833 517.259 976.996 516.144C966.537 513.102 950.959 515.999 940 516C936.928 516 929.029 517.675 926.773 515.307C924.464 512.883 926 505.158 926 502C926 490.557 927.265 478.329 926 467L927 466L929 466L937 469L937 470L931 470L931 499L932.603 509.821L946 511L977 514C979.763 502.394 977.995 488.897 978 477C978.001 474.228 979.517 467.035 977.168 465.066C974.603 462.916 967.138 464.863 964 464.964C953.227 465.312 941.737 465.88 931.001 464.941C925.536 464.464 923.25 458.947 917.996 458.317C881.451 453.934 841.865 458 805 458C810.182 452.133 819.836 454 827 454L885 454C890.224 454 908.783 456.68 910 451L914 451L920 456L920 419L919.218 407.067L895 407L826 407L611 407L549 407L524.318 406.698L522 419L523 456z"/>
<path style="fill:#060203; stroke:none;" d="M529 413L529 450L530 450C530 439.351 533.111 422.798 529 413M804 450L805 451L804 450M753.603 460.042C749.36 463.27 752 480.006 752 485C752 491.82 748.646 511.064 753.028 516.382C755.109 518.907 761.149 517.038 764 517.004C773.98 516.885 784.023 516.77 794 517.015C796.765 517.082 801.891 518.842 804.243 516.958C807.726 514.167 805 496.597 805 492C805 485.128 808.456 465.883 804.008 460.603C801.772 457.95 796.062 459 793 459C783.356 459 773.635 458.651 764 459.075C761.228 459.197 755.895 458.298 753.603 460.042M463 517L502 516L515.357 515.933L516 502L517 463L477 462L463.742 463.028L462 476L463 517M925 463L925 464L962.999 464.997L976.478 465.107L978 477L977 514C967.926 509.048 956.04 511 946 511C942.28 511 936.58 511.998 933.318 509.821C930.069 507.653 931 502.342 931 499L931 470L937 470L937 469L929 466L927 466L926 467C926.828 479.197 926.02 491.761 926 504C925.996 506.75 924.228 514.058 926.643 515.933C929.174 517.899 936.836 516.001 940 516C950.621 515.996 968.397 512.614 978 517L980 505L980.004 476L978.566 463.028L965 462L925 463z"/>
<path style="fill:#d9092b; stroke:none;" d="M464 464L465 514C477.927 509.347 497.486 508.783 511 512L512 481L510.397 471.028L499 470L470 470L470 469L513 469C511.918 462.789 505.951 464.976 501 464.999C488.606 465.058 476.33 464.254 464 464z"/>
<path style="fill:#060203; stroke:none;" d="M940 469L940 470L970 470L970 510L971 510L972 469L940 469M469 470L469 510L470 510C470 498.566 473.411 480.512 469 470z"/>
<path style="fill:#cf5c70; stroke:none;" d="M458 512L459 513L458 512M454.667 516.333L455.333 516.667L454.667 516.333M1013 516L1013 517L1026 517L1013 516M1038 517L1039 518L1038 517z"/>
<path style="fill:#4140a6; stroke:none;" d="M753 518L754 520L755 520L756 518L753 518M803 518L804 519L803 518z"/>
<path style="fill:#060203; stroke:none;" d="M404 1500L459 1500L459 834L459 621C459 588.483 453.139 552.026 459 520L420 520L405.742 520.757L404 536L404 579L404 750L404 1500M983 521C986.938 533.821 984 551.554 984 565C984 568.921 985.346 576.371 981.566 578.972C974.641 583.739 954.358 580 946 580C914.325 580 882.597 579 851 579C841.334 579 831.666 579.046 822 578.999C819.274 578.986 813.94 577.52 811.603 579.117C808.386 581.316 810 590.606 810 594L810 637L655 638L606 638L580 639L580 640C590.602 645.092 607.326 642 619 642C647.349 642 675.724 643 704 643L735 643C737.821 642.999 744.041 641.669 746.242 643.773C748.674 646.099 747.985 652.919 747.999 656C748.053 667.351 748.924 678.881 749 690L863 689L863 685L810 684L810 681L857 681L857 680L810 680C810 669.807 810.066 659.615 809.835 649.424C809.75 645.654 808.792 640.513 812.304 637.939C815.681 635.463 820.196 636.8 824 636.961C833.434 637.359 857.803 640.958 864.416 632.827C873.802 621.287 863.858 598.109 869 584C905.375 591.933 945.356 579.197 982 586C990.991 567.959 989 549.93 989 530L1030 530L1030 621L1031 621L1031 527L1030 527C1026.31 529.796 1021.48 529 1017 529C1007.19 529 991.703 532.545 986 523L1036 522L1036 632L984 631C978.503 649.598 983 675.571 983 695C983 743.03 984 791.035 984 839C984 935.576 983 1032.34 983 1129L983 1218C983 1234.79 981.511 1252.37 984 1269L1022 1269L1036.4 1267.4L1038 1257L1038 1229L1038 1119L1038 674L1038 562L1038 533L1036.97 521.518L1024 519.999L983 521z"/>
<path style="fill:#d9092b; stroke:none;" d="M456 570C446.589 567.143 451 538.552 451 530L411 530L411 529L453 529L456 525L455 522C443.742 522.59 432.284 522 421 522C417.662 522 410.447 520.476 407.617 522.349C405.145 523.985 406.066 531.354 406.014 534C405.817 543.992 405.999 554.006 406 564C406 566.625 405.046 571.984 407.603 573.731C410.162 575.48 416.008 574.005 419 574C426.496 573.988 453.376 577.906 456 570z"/>
<path style="fill:#060203; stroke:none;" d="M522 579L570 580L570 619C570 622.969 568.261 631.067 573 632L574 553L574.396 523.319L563 521.985L533 521.985L522.042 522.607L522 537L522 579M637 575L690 575L690 536L688.397 522.031L661 522L638.028 522.607L637 537L637 575z"/>
<path style="fill:#cf5c70; stroke:none;" d="M863 574C862.172 561.8 863 549.243 863 537C863 533.537 864.468 525.575 861.972 522.832C859.119 519.696 845.192 522 841 522L778 522C773.576 522 756.779 519.409 754.028 522.643C751.919 525.12 753 530.983 753 534C753 543.665 753.11 553.336 752.996 563C752.954 566.545 750.999 572.557 755.152 574.397C762.457 577.632 776.043 575 784 575C801.36 575 818.651 574 836 574C844.352 574 855.051 576.008 863 574z"/>
<path style="fill:#d9092b; stroke:none;" d="M986 523C990.012 533.02 1008.91 529 1018 529C1021.89 529 1027.28 530.112 1030 527L1031 527L1031 621L1030 621L1030 530L989 530L987.726 574L982 586L950 585L869 584L865 633L927 632L1036 632L1036 522C1020.65 522 1000.71 518.653 986 523M800 525L800 527L802 527L802 525L800 525M808.667 529.333L809.333 529.667L808.667 529.333z"/>
<path style="fill:#cf5c70; stroke:none;" d="M401.333 574.667L401.667 575.333L401.333 574.667z"/>
<path style="fill:#4140a6; stroke:none;" d="M459 576L459 1500L460 1500L460 844L460 655L460 601L459 576z"/>
<path style="fill:#cf5c70; stroke:none;" d="M460 577L460 1500L461 1500L461 1153L461 1041C461 1023.39 458.324 1003.39 461.148 986.019C462.213 979.47 470.04 981 475 981L506 981C509.503 981 515.663 982.13 518.397 979.397C522.252 975.541 520 963.101 520 958L520 899L520 698L520 651C520 646.325 518.115 636.95 524.059 635.318C535.405 632.202 551.222 635 563 635C566.52 635 572.679 633.882 574.972 637.318C576.954 640.287 576 645.611 576 649L576 678C576 682.09 574.501 690.115 578.434 692.821C581.812 695.146 588.111 694 592 694L626 694L755 694L791 694C794.597 694 801.517 692.607 804.527 694.912C809.155 698.456 806 719.258 806 725L806 785C806 790.536 803.716 802.957 807.858 807.258C812.626 812.208 831.435 809 838 809C845.028 809 854.15 810.547 860.941 808.682C865.746 807.363 864.998 801.948 865 798L865 767C865 736.533 867 705.734 867 675L867 649C866.995 645.954 865.859 641.076 867.349 638.318C870.164 633.107 889.687 636 895 636C923.191 636 951.865 634.471 980 636C980.073 662.59 981 689.329 981 716C981 723.878 983.785 739.925 979.112 746.682C976.523 750.425 968.905 749 965 749C954.943 749 935.323 745.172 926.318 749.603C922.635 751.416 924 758.667 924 762L924 801L925 801L925 764C925 760.309 923.716 753.431 927.318 751.028C930.287 749.047 935.611 750 939 750L968 750C971.471 750 979.515 751.507 981.397 747.682C984.343 741.694 982 729.627 982 723L982 661C982 655.068 984.803 639.009 980.397 634.603C976.318 630.525 962.436 633 957 633L891 633C884.875 633 870.1 630.311 865.742 635.434C863.064 638.582 864 644.181 864 648C864 658.665 863.894 669.336 864.004 680C864.285 707.334 863 734.728 863 762C863 774.234 866.1 791.198 862.833 802.938C861.445 807.927 854.866 806.019 851 806.001C840.067 805.949 822.34 809.55 812.148 806.088C806.073 804.024 809 784.31 809 779L809 715C809 710.012 811.378 696.272 807.397 692.692C804.509 690.095 795.722 691.006 792 691L751 691L631 691L596 691C591.641 691 585.211 692.171 581.148 690.397C576.414 688.33 578 680.135 578 676L578 646C578 642.694 578.981 637.188 576.397 634.603C573.521 631.728 566.694 633 563 633L533 633C529.382 633 523.48 631.918 520.318 634.028C515.701 637.108 518 650.121 518 655L518 716L518 910L518 959C518 963.84 519.836 973.561 516.486 977.477C513.885 980.517 506.562 979 503 979C489.713 979 476.264 979.63 463 979L463 702C463 677.418 461.858 652.542 462.745 628C463.302 612.61 466.369 591.782 462 577L460 577z"/>
<path style="fill:#060203; stroke:none;" d="M989 577L989 585L990 585L989 577z"/>
<path style="fill:#4140a6; stroke:none;" d="M814 578L815 579L814 578M463 580L463 624L464 624C464 611.52 467.81 591.463 463 580z"/>
<path style="fill:#060203; stroke:none;" d="M464 580L464 584L465 584L479 585L516 586L520 584L520 580L464 580M510.667 589.333L511.333 589.667L510.667 589.333M470 622L470 623L510 623C499.488 618.589 481.434 622 470 622M519 622L520 623L519 622z"/>
<path style="fill:#4140a6; stroke:none;" d="M463 625L463 632L464 632L463 625z"/>
<path style="fill:#060203; stroke:none;" d="M464 627L464 631C481.628 632.391 503.67 635.126 521 631C517.722 623.512 511.573 626.822 505 626.985C491.464 627.322 477.512 627.709 464 627z"/>
<path style="fill:#4140a6; stroke:none;" d="M522 632L522 633L534 633L522 632M535 632L535 633L539 633L535 632M540 632L540 633L544 633L540 632M545 632L545 633L549 633L545 632M550 632L550 633L554 633L550 632M555 632L555 633L574 633L555 632z"/>
<path style="fill:#dddddd; stroke:none;" d="M461 1500L924 1500L924 1414C924 1407.9 927.102 1388.84 921.566 1385.03C917.769 1382.41 909.426 1384 905 1384L862 1384L696 1384L654 1384C649.397 1384 641.086 1385.57 637.318 1382.4C633.83 1379.46 635 1373.04 635 1369C635 1357.13 633.244 1343.73 635.148 1332.02C636.502 1323.69 654.723 1327 661 1327L744 1327L876 1327L909 1327C912.597 1327 918.56 1328.03 921.397 1325.26C923.986 1322.72 923 1317.27 923 1314L923 1284C923 1280.15 921.563 1272.53 925.318 1270.03C928.287 1268.05 933.611 1269 937 1269L966 1269C969.855 1269 977.318 1270.43 979.821 1266.68C984.127 1260.23 981 1243.62 981 1236L981 1155L981 913C981 888.904 982 865.02 982 841C982 831.861 984.386 818.854 981.566 810.148C980.012 805.349 971.898 807 968 807L935 807C930.495 806.998 925.065 807.623 924.148 801.981C922.091 789.328 924 774.827 924 762C924 758.164 922.775 751.513 927.148 749.603C936.838 745.373 955.421 749 966 749C969.6 749 977.691 750.485 979.806 746.682C983.91 739.303 981 723.293 981 715C981 688.652 980.217 662.27 980 636C952.096 633.021 922.121 636 894 636C889.146 636 868.95 633.256 866.832 638.318C865.626 641.2 866.984 645.904 866.999 649C867.044 658.333 867 667.667 867 677C867 707.083 865 737.174 865 767L865 798C864.991 802.379 865.131 807.333 859.981 808.682C848.485 811.694 832.892 809 821 809C816.989 809 810.741 810.085 807.858 806.566C803.938 801.782 806 790.803 806 785L806 730C806 721.355 805.676 712.638 806.039 704C806.164 701.035 807.74 696.188 804.562 694.269C801.447 692.387 794.587 694 791 694L756 694L628 694L594 694C589.664 694 583.088 695.181 579.228 692.821C574.643 690.017 576 682.532 576 678L576 648C576 644.878 577.046 639.221 574.972 636.603C572.633 633.649 565.315 635 562 635C550.435 635 534.219 632.031 523.148 635.318C518.192 636.789 520 646.05 520 650L520 698L520 900L520 959C520 964.247 522.142 975.639 517.682 979.397C514.56 982.027 508.78 981 505 981L475 981C470.623 981 462.145 979.206 461.148 985.059C458.26 1002.01 461 1021.79 461 1039L461 1152L461 1500z"/>
<path style="fill:#d9092b; stroke:none;" d="M810 680L857 680L857 681L810 681L810 684L863 685L863 635C850.267 636.534 837.933 637.526 825 636.961C820.733 636.774 814.221 634.634 810.939 638.564C808.339 641.677 809.508 647.305 809.731 651C810.311 660.637 810 670.347 810 680z"/>
<path style="fill:#4140a6; stroke:none;" d="M578 637L578 676C578 679.476 576.522 687.532 579.603 689.972C582.85 692.544 591.071 691 595 691L635 691L753 691C768.807 691 791.038 695.114 806 691L806 690L579 690L579 652L578 637z"/>
<path style="fill:#d9092b; stroke:none;" d="M580 640L579 690L695 690C710.278 690 732.27 694.104 746.847 689.682C750.888 688.457 748.43 683.05 748.264 680C747.774 671.008 748.103 662 747.989 653C747.957 650.475 748.756 644.798 746.372 643.117C743.978 641.429 737.858 642.995 735 643L703 643C676.397 643 649.679 642 623 642C609.372 642 592.906 644.575 580 640z"/>
<path style="fill:#060203; stroke:none;" d="M739 646L744 648L739 646M740 650L740 680L742 680L742 650L740 650M741 681L740 682L743 684L741 681M579 687L580 688L579 687z"/>
<path style="fill:#d9092b; stroke:none;" d="M806 690C810.747 698.629 809 709.394 809 719L809 779C809 785.744 806.516 798.523 809.603 804.566C811.481 808.24 817.796 806.093 821 806.015C830.977 805.771 841.02 805.885 851 806.004C854.054 806.04 859.85 807.885 862.218 805.382C865.627 801.78 863 786.966 863 782C863 759.621 864 737.391 864 715C864 709.902 866.652 693.398 862.397 690.028C859.15 687.456 850.929 689 847 689C833.351 689 819.544 688.288 806 690z"/>
<path style="fill:#060203; stroke:none;" d="M926 752L925 805L979 805L979 766L978.382 752.607L965 751.999L926 752z"/>
<path style="fill:#cf5c70; stroke:none;" d="M924.333 804.667L924.667 805.333L924.333 804.667M925 806L925 807L964 807L981 809C982.757 804.339 970.883 806 968 806L925 806M641 808L641 809L676 809L689.397 810.603L691 823L691 858C695.108 848.211 692 831.634 692 821C692 817.48 693.118 811.321 689.682 809.028C686.332 806.792 679.843 808 676 808L641 808M691 863L690 863L690 866L653 866C648.428 866 641.29 867.305 637.228 864.821C633.281 862.407 634.002 856.959 634 853L634 822C634 817.606 632.963 812.617 637 810C631.614 808.79 633 817.593 633 821L633 851C633 854.811 632.005 860.436 634.028 863.852C638.052 870.648 660.912 867 668 867C674.06 867 688.717 869.88 691 863z"/>
<path style="fill:#4140a6; stroke:none;" d="M637 809L637 810L690 810L690 863C694.408 852.496 691 834.42 691 823C691 819.685 692.351 812.368 689.397 810.028C686.302 807.577 678.731 809 675 809L637 809M634 810L634 850L635.742 864.258L650 866L690 866L690 864L652 864L637.603 862.397L636 848L636 810L634 810z"/>
<path style="fill:#060203; stroke:none;" d="M636 810L636 849L637.603 862.972L652 864L690 864L690 810L636 810z"/>
<path style="fill:#cf5c70; stroke:none;" d="M981 864C977.385 894.609 981 928.063 981 959L981 1154L981 1232C981 1241.31 983.869 1256.31 980.258 1264.94C978.311 1269.59 973.195 1269 969 1269L937 1269C933.529 1269 925.485 1267.49 923.603 1271.32C919.067 1280.54 923 1300.7 923 1311C923 1314.93 924.187 1321.35 921.397 1324.57C917.698 1328.82 908.033 1327 903 1327L852 1327L693 1327L652 1327C648.071 1327 639.85 1325.46 636.603 1328.03C633.522 1330.47 635 1338.52 635 1342L635 1382L636 1382L636 1344C636 1340.12 634.593 1332.61 637.603 1329.6C640.992 1326.21 650.583 1328 655 1328L704 1328L863 1328L905 1328C909.503 1328 917.787 1329.57 921.682 1326.97C925.437 1324.47 924 1316.85 924 1313L924 1284C924 1280.44 923.123 1275.26 925.603 1272.32C928.242 1269.19 933.367 1270 937 1270C947 1270 957 1269.96 967 1270C971.111 1270.02 978.274 1271.85 980.972 1267.7C984.698 1261.97 982 1247.71 982 1241L982 1171L982 954L982 892C982 883.729 984.206 871.639 981 864M578.279 1038.03C572.822 1041.47 576 1055.39 576 1061C576 1068.96 576.442 1077.06 575.911 1085C575.661 1088.73 574.242 1093.36 577.514 1096.26C580.391 1098.8 585.467 1098 589 1098L619 1098C622.501 1097.99 629.607 1096.13 631.972 1099.45C633.99 1102.28 633 1107.72 633 1111L633 1140C633 1143.92 631.654 1151.37 635.434 1153.97C639.231 1156.59 647.574 1155 652 1155L695 1155L858 1155L906 1155C910.283 1155 919.938 1156.8 923.142 1153.4C925.899 1150.47 925 1144.66 925 1141L925 1108C924.998 1103.91 925.947 1096.78 920.867 1095.32C914.745 1093.55 906.354 1095 900 1095L855 1095L707 1095L660 1095C654.074 1095 644.634 1096.79 639.148 1094.4C634.414 1092.33 636 1084.13 636 1080L636 1051C636 1047.57 636.879 1042.42 634.821 1039.43C632.336 1035.82 625.75 1037 622 1037L591 1037C587.296 1037 581.556 1035.96 578.279 1038.03z"/>
<path style="fill:#4140a6; stroke:none;" d="M579.232 1039.03C574.22 1042.14 577 1056.71 577 1062C577 1068.78 573.392 1090.74 578.518 1095.25C581.478 1097.86 586.479 1096.1 590 1096.01C599.988 1095.77 610.009 1096 620 1096C623.747 1096 630.486 1094.82 632.972 1098.43C634.967 1101.33 634 1106.67 634 1110L634 1139C634 1142.85 632.563 1150.47 636.318 1152.97C640.213 1155.57 648.497 1154 653 1154L696 1154L858 1154L905 1154C909.196 1154 919.042 1155.81 922.127 1152.4C924.705 1149.54 923.017 1143.49 923.001 1140C922.95 1129.35 922.771 1118.65 923.015 1108C923.104 1104.11 924.933 1097.78 919.867 1096.32C913.748 1094.55 905.352 1096 899 1096L854 1096L706 1096L659 1096C653.074 1096 643.634 1097.79 638.148 1095.4C633.414 1093.33 635 1085.14 635 1081L635 1052C635 1048.61 635.954 1043.29 633.972 1040.32C631.569 1036.72 624.691 1038 621 1038L592 1038C588.267 1038 582.548 1036.97 579.232 1039.03z"/>
<path style="fill:#060203; stroke:none;" d="M633 1040L594 1040C590.269 1040 582.698 1038.58 579.603 1041.03C575.645 1044.16 578 1058.33 578 1063C578 1070.26 574.943 1086.56 579.028 1092.68C581.2 1095.94 586.659 1095 590 1095L620 1095C623.151 1095 629.739 1096.22 631.972 1093.4C634.424 1090.3 633 1082.73 633 1079L633 1040M636 1098L636 1137L637.603 1151.36L654 1152L702 1152L860 1152L903 1152L919.682 1151.88L922 1141L922 1110L919.682 1098.12L895 1098L829 1098L751 1098L636 1098z"/>
<path style="fill:#cf5c70; stroke:none;" d="M520 1264L521 1264L521 1228C521 1224.21 519.768 1217.61 522.028 1214.33C524.256 1211.1 530.672 1212.98 534 1213C544.322 1213.05 554.681 1213.22 565 1212.99C568.823 1212.9 573.575 1211.61 575.397 1216.06C579.305 1225.61 576 1242.69 576 1253C576 1256.56 577.096 1262.48 574.972 1265.57C572.486 1269.18 565.747 1268 562 1268C552.091 1268 528.136 1272.29 521 1265C520.879 1270.1 528.381 1269 532 1269L563 1269C566.435 1269 572.512 1270.11 575.397 1267.82C578.344 1265.49 577 1258.31 577 1255C577 1242.49 578.047 1229.47 576.941 1217C576.373 1210.6 571.161 1211 566 1211L535 1211C531.306 1211 524.479 1209.73 521.603 1212.6C518.728 1215.48 520 1222.31 520 1226L520 1264z"/>
<path style="fill:#4140a6; stroke:none;" d="M521 1215L560 1214L573.307 1215.6L574 1242L573.307 1265.09L560 1266L521 1266C526.591 1270.24 538.172 1268 545 1268C551.752 1268 568.987 1271.11 574.397 1266.82C577.208 1264.59 576 1258.14 576 1255L576 1225C576 1221.75 577.003 1216.12 574.397 1213.62C571.736 1211.06 565.364 1212.98 562 1213C552.034 1213.05 541.957 1213.4 532 1212.96C527.725 1212.77 523.65 1210.93 521 1215z"/>
<path style="fill:#060203; stroke:none;" d="M521 1215L522 1252L522.117 1265.38L533 1266L563 1266L573.933 1265.22L574 1244L573.933 1215.6L561 1214L521 1215z"/>
<path style="fill:#4140a6; stroke:none;" d="M521 1217L521 1263L522 1263C522 1250 526.01 1228.94 521 1217M520 1264L521 1265L520 1264z"/>
<path style="fill:#cf5c70; stroke:none;" d="M578 1272L579 1272C587.143 1265.83 609.839 1270 620 1270C623.84 1270 629.602 1269 632.397 1272.32C636.647 1277.36 634 1291.69 634 1298C634 1303.55 636.802 1320.56 631.682 1323.97C628.332 1326.21 621.843 1325 618 1325L584 1325C592.227 1329.74 612.304 1326 622 1326C624.961 1326 632.27 1327.33 634.278 1324.67C638.179 1319.48 635 1301.5 635 1295C635 1289.61 637.617 1274.28 633.667 1270.33C631.189 1267.86 625.198 1269 622 1269L590 1269C586.014 1269 579.013 1267.27 578 1272z"/>
<path style="fill:#4140a6; stroke:none;" d="M579 1325L580 1325L580 1286L580.832 1272.69L604 1272L630.477 1272.6L632 1286L631 1325C634.829 1322.52 634 1318.21 634 1314L634 1284C634 1280.5 635.131 1274.34 632.397 1271.6C629.812 1269.02 624.306 1270 621 1270L591 1270C587.9 1270 581.36 1268.78 579.19 1271.6C576.758 1274.76 578.908 1281.33 578.986 1285C579.244 1297.13 575.719 1313.58 579 1325z"/>
<path style="fill:#060203; stroke:none;" d="M580.757 1272.07C577.304 1274.72 580 1292.5 580 1297C580 1302.43 576.999 1319.3 580.067 1323.38C582.023 1325.98 589.144 1324.01 592 1324C601.332 1323.96 610.668 1323.96 620 1324C622.916 1324.01 628.072 1325.46 630.643 1323.88C634.597 1321.46 632 1303.53 632 1299C632 1293.47 634.866 1276.7 631.168 1272.62C628.89 1270.1 622.99 1271.96 620 1272C610.342 1272.11 600.658 1272.11 591 1272C588.322 1271.96 583.015 1270.33 580.757 1272.07M637 1382L853 1382L906 1382C910.921 1382 920.849 1380.11 924.397 1384.32C929.211 1390.03 926 1407.77 926 1415L926 1500L980 1500L980 1272L940 1272C936.759 1272 928.275 1269.97 926.042 1272.76C924.078 1275.21 925.961 1281.06 925.996 1284C926.131 1295.33 926.059 1306.67 925.999 1318C925.97 1323.48 925.184 1328.37 918.996 1329.66C898.435 1333.93 873.025 1330 852 1330L711 1330L657 1330C652.852 1330 641.833 1327.61 638.603 1330.04C635.637 1332.28 637 1339.76 637 1343L637 1382z"/>
<path style="fill:#cf5c70; stroke:none;" d="M1029 1271L1030 1272L1029 1271M578.333 1276.67L578.667 1277.33L578.333 1276.67M578 1279L578 1318L579 1318C579 1306.83 582.311 1289.27 578 1279M577 1320L577 1324L578 1324L577 1320M578 1324L579 1325L578 1324z"/>
<path style="fill:#4140a6; stroke:none;" d="M584 1324L584 1325L628 1325C616.537 1320.19 596.48 1324 584 1324z"/>
<path style="fill:#cf5c70; stroke:none;" d="M579.667 1325.33L580.333 1325.67L579.667 1325.33z"/>
<path style="fill:#4140a6; stroke:none;" d="M581 1325L581 1326L584 1326L581 1325z"/>
<path style="fill:#cf5c70; stroke:none;" d="M636 1382L637 1383L636 1382M637 1383L637 1384L922 1384L896 1383L838 1383L637 1383M922 1384C926.28 1395.74 924 1410.61 924 1423L924 1500L925 1500L925 1413C925 1406 928.162 1388.35 922 1384z"/>
</svg>
