<?xml version="1.0" standalone="yes"?>
<svg xmlns="http://www.w3.org/2000/svg" width="1500" height="1500">
<path style="fill:#030202; stroke:none;" d="M0 0L0 1500L286 1500L286 1329C272.868 1329 260.252 1331 247 1331C241.612 1331 234.615 1332.05 230.228 1328.1C224.896 1323.31 228 1305.74 228 1299L228 1214L185 1214C180.751 1214 173.2 1215.43 170.318 1211.43C165.979 1205.4 169 1189.25 169 1182L169 1104L169 851L169 781C169 772.736 166.36 758.922 170.148 751.444C173.01 745.794 179.684 747 185 747L228 747L228 663C228 656.444 224.88 638.495 229.603 633.589C233 630.061 240.591 631 245 631L286 631L286 547C286 540.435 282.864 522.24 288.318 517.742C292.073 514.645 299.474 516 304 516L343 516L343 475L345.434 459.742L361 458L401 458L401 419L402.603 403.318L417 401L458 401L458 361C458 356.54 456.625 349.098 459.742 345.434C464.383 339.979 481.412 343 488 343L548 343C554.294 343 566.012 345.274 571.667 342.397C575.037 340.682 573.001 332.187 573 329L573 299C573.002 295.041 572.281 289.593 576.228 287.179C580.088 284.819 586.664 286 591 286L626 286L756 286L795 286C798.994 286 806.258 284.67 809.397 287.742C812.54 290.82 811 298.986 811 303L811 343L896 343C902.621 343 920.587 339.875 925.142 345.434C928.257 349.236 927 356.439 927 361C927 374.323 927.671 387.779 926 401L967 401L982.397 403.318L984 419L984 458L1026 458C1030.49 458 1037.99 456.79 1040.82 461.279C1043.33 465.26 1042 472.488 1042 477C1042 489.419 1039.48 505.083 1043 517L1083 516L1097.26 518.434L1099 534L1099 574L1140 573.255L1155.26 575.514L1157 591L1157 632C1170.77 630.913 1184.18 632.021 1198 632C1202.11 631.994 1209.22 630.227 1212.4 633.568C1215.38 636.702 1214 644.031 1214 648L1214 685L1214 835L1214 1111L1214 1184C1214 1190.84 1216.83 1205.9 1212.97 1211.68C1210.47 1215.44 1202.85 1214 1199 1214L1170 1214C1166.93 1214 1161.31 1212.95 1158.74 1215.03C1155.58 1217.59 1157 1225.41 1157 1229L1157 1259C1157 1262.44 1157.92 1267.7 1155.4 1270.49C1152.52 1273.65 1147.71 1272.13 1144 1272.46C1133.72 1273.38 1123.33 1273 1113 1273C1109.82 1273 1103.29 1271.43 1100.6 1273.27C1097.63 1275.3 1099 1282.9 1099 1286C1099 1297.65 1101.56 1312.7 1098.68 1323.98C1096.95 1330.78 1089.68 1331 1084 1331C1070.28 1331.01 1056.31 1332.13 1043 1329C1040.03 1341.49 1042 1356.19 1042 1369C1042 1373.39 1043.41 1380.86 1040.97 1384.72C1038.14 1389.21 1030.48 1388 1026 1388L984 1388L984 1500L1500 1500L1500 0L0 0z"/>
<path style="fill:#79368f; stroke:none;" d="M459 401L418 401L402.858 402.858L401 418L401 458L361.015 458.65L344.742 459.742L343 476L342 517C329.385 514.435 314.857 515.831 302.004 516.011C298.163 516.065 290.834 515.263 287.742 517.989C282.914 522.245 286 540.89 286 547L286 632L229 632L228 673L228 747L181 747C178.855 747 164.635 749.464 171 753L171 754L169 755L169 756L171 756L171 757L171 758C166.645 761.839 171.838 773.338 170.545 778.83C167.413 792.129 169.997 806.454 170.946 820.015C172.077 836.176 171 852.796 171 869L171 1102C171 1130.09 174.238 1160.64 169.259 1188.17C168.36 1193.14 170.713 1199.53 169 1204L169 1205L169 1210L169 1211L169 1212L189 1214L228 1214L228 1305C228 1311.07 226.068 1321.13 228.6 1326.7C230.036 1329.86 234.694 1331.61 237 1329L238 1329L239 1331L240 1331L240 1329L241 1329L242 1329L254 1331L286 1329L286 1500L289 1500L289 1374L289 1343L290.603 1330.6L305 1329L344 1329L344 1500L346 1500L346 1375L346 1343C346 1339.16 347.208 1332.67 344.972 1329.32C342.8 1326.06 337.341 1327 334 1327L302 1327C297.964 1327 290.801 1328.4 288.742 1323.85C285.826 1317.41 288 1306 288 1299L288 1241C288 1234.78 290.906 1218.57 286.972 1213.6C284.853 1210.93 278.98 1212 276 1212L244 1212C239.543 1212 232.72 1212.99 230.603 1207.89C226.571 1198.18 230 1180.52 230 1170L230 1079L230 861L230 791C230 779.738 228.393 767.123 230.148 756.004C231.323 748.557 238.342 749.974 244 749.999C254.666 750.047 265.334 750.001 276 750C279.341 750 284.8 750.937 286.972 747.682C290.494 742.404 288 729.208 288 723L288 662C288 655.417 285.608 642.924 289.028 637.148C291.412 633.121 297.034 634 301 634L332 634C335.306 634 342.487 635.344 344.821 632.397C348.883 627.268 346 611.374 346 605L346 547C346 540.037 343.798 528.573 346.603 522.148C348.595 517.586 356.011 519 360 519L391 519C394.264 519 399.728 519.987 402.257 517.397C404.785 514.807 403.908 509.287 403.975 505.961C404.176 495.99 404.115 485.972 403.996 476C403.951 472.198 402.064 466.649 404.746 463.434C407.52 460.109 413.173 461 417 461L447 461C450.471 461 458.515 462.507 460.397 458.682C464.933 449.462 461 429.301 461 419C461 414.773 459.753 407.817 463.434 404.746C468.122 400.835 484.798 404 491 404L549 404C555.905 404 567.448 406.213 573.772 403.258C577.938 401.311 576.619 395.706 576.804 392C577.334 381.38 577.122 370.634 576.996 360C576.944 355.55 574.764 348.826 580.109 346.603C584.511 344.773 591.302 346 596 346L631 346L752 346L790 346C794.285 346 801.966 344.548 805.682 347.028C808.937 349.2 808 354.659 808 358L808 390C808 393.989 806.586 401.405 811.148 403.397C817.573 406.202 829.037 404 836 404L895 404C901.406 404 914.31 401.337 919.89 404.218C924.951 406.832 923.023 413.421 923.001 418C922.955 427.666 923 437.334 923 447C923 450.389 922.047 455.713 924.028 458.682C926.534 462.437 934.146 461 938 461L967 461C970.561 461 975.738 460.123 978.682 462.603C982.17 465.542 981 471.964 981 476L981 506C981 509.306 980.019 514.812 982.603 517.397C985.479 520.272 992.306 519 996 519L1025 519C1028.56 519 1033.74 518.123 1036.68 520.603C1040.17 523.542 1039 529.964 1039 534L1039 564C1039 567.306 1038.02 572.812 1040.6 575.397C1043.48 578.272 1050.31 577 1054 577C1063.33 577 1072.67 577.107 1082 576.996C1085.58 576.954 1090.45 575.429 1093.72 577.333C1098.72 580.247 1096.24 587.473 1096.04 592C1095.61 601.916 1095.79 612.039 1096.05 621.961C1096.13 625.025 1095.23 630.025 1097.6 632.397C1100.34 635.129 1106.49 634 1110 634L1141 634C1144.39 634 1149.72 633.127 1152.4 635.742C1155.28 638.561 1154 645.349 1154 649L1154 683L1154 820L1154 1106L1154 1181C1154 1187.92 1156.96 1203.78 1152.97 1209.57C1150.49 1213.18 1143.75 1212 1140 1212L1109 1212C1105.75 1212 1100.26 1211.01 1097.75 1213.6C1094.98 1216.47 1096.03 1223.33 1096 1227C1095.94 1236.33 1095.89 1245.67 1096 1255C1096.05 1258.63 1097.55 1263.44 1095.67 1266.77C1093.05 1271.4 1085.42 1270 1081 1270L1039 1270L1039 1312C1039 1316.19 1040.42 1324.08 1035.94 1326.51C1032.9 1328.16 1027.35 1327 1024 1327L996 1327C992.146 1327 984.534 1325.56 982.028 1329.32C980.046 1332.29 981 1337.61 981 1341L981 1370C981 1374.34 982.293 1381.34 977.852 1383.97C969.262 1389.06 947.944 1385 938 1385C934.534 1385 926.614 1383.53 924.179 1386.6C919.783 1392.15 923 1410.06 923 1417L923 1500L925 1500L925 1416C925 1410.35 922.032 1391.7 926.603 1387.91C929.558 1385.46 937.36 1387 941 1387L981 1387L981 1500L984 1500L984 1387C999.482 1389.87 1027.21 1391.54 1042 1386C1041.2 1372.45 1042 1358.59 1042 1345C1042 1341.52 1040.27 1333.4 1042.89 1330.64C1044.95 1328.47 1051.04 1331.2 1053.91 1330.87C1066.31 1329.45 1079.65 1333.2 1091.83 1330.74C1098.68 1329.35 1099 1323.83 1099 1318C1099.01 1304.12 1101.93 1286.31 1098 1273L1142 1272.29L1155.82 1269.58L1157 1258L1157 1229L1158.74 1215.6L1170 1214L1200 1214L1212.97 1212.26L1214 1186L1214 1115L1214 836L1214 683L1214 646L1212.4 633.028L1197 632L1157 632L1156 574C1142.35 573.416 1128.73 573.091 1115 573.152C1111.41 573.168 1102.72 575.051 1099.91 572.481C1097.47 570.247 1099 562.043 1099 559C1099 548.573 1102.88 528.66 1098.26 519.303C1096.05 514.84 1088.04 516 1084 516C1070.02 515.999 1055.89 515.308 1042 517C1041.24 503.76 1042 490.274 1042 477C1042 472.161 1043.44 464.641 1039.97 460.724C1036.42 456.712 1028.85 458.015 1024 458.004C1010.39 457.972 996.621 458.646 983 458L983.92 417L982.372 402.564L967 401L926 401C926.049 382.54 930.418 360.505 924 343L811 343L811 287C790.365 284.392 768.801 286 748 286L637 286L593 286C588.242 286 579.524 284.352 575.434 287.179C572.286 289.356 573.128 294.686 573.05 298C572.8 308.672 574.438 319.32 573.661 330C573.402 333.565 574.832 340.557 570.813 342.397C564.551 345.263 552.84 343 546 343L488 343C481.627 343 464.486 339.999 459.742 344.742C456.526 347.959 458 355.863 458 360C458 373.541 456.95 387.588 459 401z"/>
<path style="fill:#b530cd; stroke:none;" d="M807.667 286.333L808.333 286.667L807.667 286.333z"/>
<path style="fill:#030202; stroke:none;" d="M578 344L674 344L736 344L785 344L804.682 343.397L807 332L807 301L804.682 290.028L791 289L757 289L630 289L592 289L578.757 290.603L578 305L578 344z"/>
<path style="fill:#b530cd; stroke:none;" d="M573.333 293.667L573.667 294.333L573.333 293.667M573 306L573 317L574 317L573 306M573 321L573 331L574 331L573 321M573 333L573 337L574 337L573 333M924 344L924 346L926 346L926 344L924 344z"/>
<path style="fill:#fb6201; stroke:none;" d="M346 1500L462 1500L462 1417C462 1409.51 465.144 1392.71 460.821 1386.43C458.461 1383 452.568 1384 449 1384L418 1384C412.959 1384 405.47 1385.5 404.228 1378.98C401.211 1363.14 404 1344.14 404 1328L404 1221L404 887L404 752L404 713C404 708.053 402.658 700.736 404.603 696.113C406.682 691.173 413.771 692.993 418 693L449 693C452.568 693 458.461 693.995 460.821 690.566C462.879 687.577 462 682.429 462 679L462 650C462 646.306 460.728 639.479 463.603 636.603C466.188 634.019 471.694 635 475 635L505 635C508.855 635 516.318 636.434 518.821 632.682C520.862 629.623 520 624.484 520 621L520 592C519.998 587.971 518.209 580.722 522.243 578.179C528.094 574.491 541.251 577 548 577L614 577L836 577L896 577C902.357 577 914.267 574.721 919.852 578.028C924.474 580.765 923 588.492 923 593C923 603.301 919.067 623.462 923.603 632.682C925.485 636.507 933.529 635 937 635L967 635C970.42 635 975.779 634.062 978.527 636.603C981.599 639.444 980.001 646.24 980 650L980 679C980 682.561 979.123 687.738 981.603 690.682C984.242 693.814 989.367 693 993 693L1024 693C1028.66 692.993 1036.08 691.074 1037.68 697.045C1040.9 709.032 1038 725.574 1038 738L1038 827L1038 1114L1038 1221L1038 1252C1038 1256.09 1039.07 1262.03 1037.4 1265.85C1035.4 1270.41 1027.99 1269 1024 1269L993 1269C989.732 1269 984.277 1268.01 981.742 1270.6C979.127 1273.28 980 1278.61 980 1282L980 1312C980 1315.65 981.276 1322.44 978.397 1325.26C975.725 1327.87 970.387 1327 967 1327C957.002 1327 946.997 1327.11 937 1327C933.08 1326.95 925.754 1324.66 923.603 1329.28C919.263 1338.6 923 1357.71 923 1368C923 1371.88 924.407 1379.39 921.397 1382.4C918.256 1385.54 910.062 1384 906 1384L864 1384L748 1384C732.564 1384 710.82 1380.01 696.059 1384.43C690.515 1386.09 692 1393.51 692 1398L692 1429C692 1432.97 692.879 1438.59 688.852 1440.97C680.262 1446.06 658.944 1442 649 1442C645.382 1442 639.48 1440.92 636.318 1443.03C632.42 1445.63 634 1453.99 634 1458L634 1500L923 1500L923 1418C923 1410.38 919.873 1393.77 924.179 1387.32C926.682 1383.57 934.145 1385 938 1385L967 1385C970.389 1385 975.713 1385.95 978.682 1383.97C982.437 1381.47 981 1373.85 981 1370L981 1341C981 1337.44 980.123 1332.26 982.603 1329.32C985.677 1325.67 992.776 1327 997 1327L1025 1327C1028.29 1327.01 1033.62 1328.29 1036.57 1326.59C1040.55 1324.3 1039 1315.82 1039 1312L1039 1270L1082 1270C1086.16 1270 1093.97 1271.49 1096.1 1266.77C1097.7 1263.24 1096.11 1258.7 1096.01 1255C1095.79 1246.02 1095.9 1236.98 1096 1228C1096.05 1224.09 1095.29 1216.43 1098.45 1213.6C1101.26 1211.08 1106.54 1212 1110 1212L1140 1212C1143.42 1212 1150.52 1213.29 1152.97 1210.26C1156.9 1205.4 1154 1189.13 1154 1183L1154 1109L1154 818L1154 683L1154 649C1154 645.522 1155.3 638.621 1152.97 635.742C1150.41 632.576 1142.59 634 1139 634C1129.08 634 1107.71 638.065 1099.15 632.972C1095.15 630.591 1096.16 624.001 1096.04 620C1095.73 610.517 1095.27 600.446 1096.17 591C1096.54 587.095 1098.37 581.082 1095.14 577.858C1092.12 574.843 1086.68 576.8 1083 576.961C1072.71 577.411 1062.3 577.001 1052 577C1048.37 577 1043.24 577.814 1040.6 574.682C1038.12 571.738 1039 566.561 1039 563L1039 534C1039 530.306 1040.27 523.479 1037.4 520.603C1034.81 518.019 1029.31 519 1026 519L996 519C991.663 519 984.657 520.293 982.028 515.852C976.942 507.262 981 485.944 981 476C981 472.306 982.272 465.479 979.397 462.603C976.812 460.019 971.306 461 968 461L938 461C933.964 461 927.542 462.17 924.603 458.682C922.123 455.738 923 450.561 923 447C923 437.336 922.889 427.664 923.004 418C923.056 413.65 925.402 406.952 920.772 404.183C915.765 401.189 902.95 404 897 404L836 404C829.417 404 816.924 406.392 811.148 402.972C807.121 400.588 808 394.966 808 391L808 360C808 356.684 809.351 349.368 806.397 347.028C803.302 344.577 795.731 346 792 346L753 346L630 346L595 346C590.444 346 583.451 344.699 579.228 346.603C574.346 348.806 576.886 355.952 576.985 360C577.244 370.565 577.553 381.477 576.615 392C576.248 396.109 577.593 401.232 572.891 403.258C566.282 406.105 555.125 404 548 404L490 404C484.185 404 466.824 400.671 462.742 404.742C459.806 407.671 461 414.248 461 418L461 447C461 450.389 461.954 455.713 459.972 458.682C457.466 462.437 449.854 461 446 461L416 461C412.653 461 407.36 460.118 404.742 462.742C401.593 465.899 403.89 472.122 403.985 476C404.221 485.622 404.272 495.38 403.965 505C403.855 508.431 404.503 513.853 402.244 516.682C399.719 519.844 394.56 519 391 519L360 519C356.529 519 348.485 517.493 346.603 521.318C343.657 527.306 346 539.373 346 546L346 605C346 611.286 348.897 627.657 344.258 632.397C341.723 634.986 336.268 634 333 634L303 634C299.146 634 291.534 632.563 289.028 636.318C285.619 641.426 288 654.003 288 660L288 722C288 728.314 290.647 742.637 286.397 747.682C283.758 750.814 278.633 750 275 750C264.669 750.001 254.33 750.118 244 749.996C239.164 749.939 232.02 747.684 230.318 754.044C227.72 763.752 230 776.95 230 787L230 858L230 1088L230 1173C230 1182.67 226.627 1199.95 230.603 1208.77C232.642 1213.29 240.019 1212 244 1212L276 1212C279.341 1212 284.8 1211.06 286.972 1214.32C290.607 1219.77 288 1233.58 288 1240L288 1300C288 1306.66 285.68 1318.68 288.742 1324.68C290.688 1328.5 298.493 1327 302 1327L333 1327C336.633 1327 341.758 1326.19 344.397 1329.32C347.027 1332.44 346 1338.22 346 1342L346 1374L346 1500z"/>
<path style="fill:#030202; stroke:none;" d="M463.603 348.028L462 360L462 390L463.603 400.821L487 402L549 402L573.397 400.972L575 390L575 360L573.397 348.028L551 347L488 347L463.603 348.028M810 347L810 402L888 402C896.344 402 912.184 405.086 919.682 401.397C923.209 399.661 922 393.189 922 390C922 379.676 921.766 369.321 922.015 359C922.095 355.677 923.855 350.332 920.562 348.028C914.689 343.918 898.068 347 891 347L810 347z"/>
<path style="fill:#b530cd; stroke:none;" d="M926 347L926 350L927 350L926 347M926.333 353.667L926.667 354.333L926.333 353.667M926 357L926 362L927 362L926 357M926 365L926 373L927 373L926 365M926.333 389.667L926.667 390.333L926.333 389.667M926 392L926 398L927 398L926 392M458 395L458 399L459 399L458 395M458 400L459 401L458 400M403.667 401.333L404.333 401.667L403.667 401.333M929 401L930 402L929 401M401.333 403.667L401.667 404.333L401.333 403.667z"/>
<path style="fill:#030202; stroke:none;" d="M405 459L445 459L458.357 458.357L459 445L459 405L420 405L405.757 405.757L405 420L405 459M980 459L980 421L978.972 406.438L967 404.996L937 405L926.028 406.603L925 418L925 447L926.603 458.933L941 459L980 459z"/>
<path style="fill:#b530cd; stroke:none;" d="M983 406L984 407L983 406M983.333 413.667L983.667 414.333L983.333 413.667M983 450L984 451L983 450M983 454L983 458L984 458L983 454M356 458L357 459L356 458M359 458L359 459L365 459L359 458M390 458L391 459L390 458M396 458L397 459L396 458z"/>
<path style="fill:#fb6201; stroke:none;" d="M986 458L987 459L986 458z"/>
<path style="fill:#b530cd; stroke:none;" d="M987 458L988 459L987 458M1013 458L1013 459L1017 459L1013 458M1030 458L1031 459L1030 458M1039 459L1039 461L1041 461L1041 459L1039 459M1041 461L1042 462L1041 461z"/>
<path style="fill:#030202; stroke:none;" d="M348.603 463.028C344.348 466.398 347 482.902 347 488C347 494.223 344.094 510.43 348.028 515.397C350.261 518.216 356.849 517 360 517L389 517C391.992 517.005 397.839 518.48 400.397 516.731C404.676 513.806 402 495.86 402 491C402 484.777 404.906 468.57 400.972 463.603C398.739 460.784 392.151 462 389 462L360 462C356.879 462 351.221 460.954 348.603 463.028M984.603 463.028C980.348 466.398 983 482.902 983 488C983 494.415 979.949 510.346 983.117 515.667C985.061 518.932 991.865 517.016 995 517.001C1005 516.953 1015 517 1025 517C1028.12 517 1033.78 518.046 1036.4 515.972C1040.55 512.68 1038 496.956 1038 492C1038 485.162 1040.83 470.103 1036.97 464.318C1034.68 460.882 1028.52 462 1025 462L996 462C992.879 462 987.221 460.954 984.603 463.028z"/>
<path style="fill:#b530cd; stroke:none;" d="M1041 510L1042 511L1041 510M1041 513L1042 514L1041 513M289 516L289 517L292 517L289 516M294 516L295 517L294 516M296 516L297 517L296 516M330.667 516.333L331.333 516.667L330.667 516.333M334 516L334 517L337 517L334 516M340.667 516.333L341.333 516.667L340.667 516.333z"/>
<path style="fill:#fb6201; stroke:none;" d="M1042 516L1043 517L1042 516z"/>
<path style="fill:#b530cd; stroke:none;" d="M1044.67 516.333L1045.33 516.667L1044.67 516.333M1049 516L1050 517L1049 516M1094.67 516.333L1095.33 516.667L1094.67 516.333M286 518L287 519L286 518z"/>
<path style="fill:#030202; stroke:none;" d="M344 520L305 520C301.324 520 293.773 518.576 290.742 521.028C286.437 524.511 289 539.881 289 545L289 609C289 614.206 286.643 627.34 290.589 631.233C293.139 633.749 298.751 632.989 302.001 632.999L331 633C334.151 633 340.739 634.216 342.972 631.397C346.349 627.133 344 614.278 344 609L344 573L344 520M1041 520L1041 559L1041.07 573.397L1053 575L1082 575L1093.4 573.972L1095 563L1095 533L1093.56 521.028L1079 520L1041 520z"/>
<path style="fill:#b530cd; stroke:none;" d="M1098 571L1099 572L1098 571M1105 573L1105 574L1108 574L1105 573M1114.67 573.333L1115.33 573.667L1114.67 573.333M1133 573L1133 574L1141 574L1133 573M1142.67 573.333L1143.33 573.667L1142.67 573.333M1145 573L1146 574L1145 573M1150 573L1150 574L1153 574L1150 573M1156 576L1157 577L1156 576z"/>
<path style="fill:#79368f; stroke:none;" d="M462 1500L464 1500L464 1385L502 1385C505.95 1385 513.359 1383.4 516.682 1385.83C522.024 1389.75 519 1407.94 519 1414L519 1500L521 1500L521 1413C521 1406.4 524.34 1388.1 518.721 1383.86C514.693 1380.82 507.724 1382 503 1382C489.925 1382 477.016 1382.44 464 1383L464 694C477.654 694 491.351 693.68 505 694.015C509.627 694.128 516.876 696.632 519.972 691.721C521.911 688.646 521 683.469 521 680L521 651C521 647.185 519.356 638.526 524.148 637.028C532.319 634.473 545.36 637 554 637C574.355 637 594.611 636 615 636L816 636L888 636C896.515 636 911.026 633.186 918.852 636.603C923.786 638.758 921.446 645.896 921.594 650C921.94 659.56 922.743 669.45 921.725 678.996C921.287 683.107 919.82 689.259 923.434 692.397C926.309 694.893 931.488 694 935 694L965 694C968.321 694 975.682 692.51 977.972 695.523C980.027 698.227 979 703.813 979 707L979 735C979 769.087 981 803.629 981 838C981 930.687 979 1024.02 979 1117L979 1215C979 1230.37 981.329 1247.82 978.852 1262.98C977.809 1269.36 969.739 1267 965 1267L936 1267C932.485 1267 927.365 1266.11 924.228 1268.03C919.644 1270.83 921 1278.48 921 1283L921 1325L712 1325C693.975 1325 676.056 1326 658 1326C652.801 1326 641.681 1328.13 637.318 1325.09C633.578 1322.48 635 1314.92 635 1311L635 1282C635 1278.75 635.999 1273.31 633.972 1270.52C631.391 1266.97 623.755 1268.99 620 1269L591 1269C587.463 1269 582.234 1269.89 579.322 1267.4C575.884 1264.45 577.98 1257.95 577.999 1254C578.047 1244.12 582.05 1222.69 576.961 1214.13C574.576 1210.12 568.958 1211 565 1211L531 1211C527.23 1211 519.935 1209.51 518.434 1214.15C514.567 1226.09 518 1244.44 518 1257C518 1260.71 516.497 1268.3 521.148 1269.68C532.219 1272.97 548.435 1270 560 1270C564.032 1270 571.513 1268.61 574.307 1272.32C576.081 1274.67 575.417 1279.17 575.718 1282C576.798 1292.14 576.117 1302.81 575.996 1313C575.951 1316.78 573.964 1322.48 576.607 1325.68C579.633 1329.34 586.811 1328 591 1328L619 1328C622.484 1328 627.623 1327.14 630.682 1329.18C635.797 1332.59 633 1349.45 633 1355C633 1372.39 632 1389.64 632 1407C632 1416.17 633.702 1426.96 632.397 1435.94C631.578 1441.57 623.042 1440 619 1440L590 1440C586.339 1440 580.621 1438.99 577.434 1441.18C573.501 1443.89 575 1451.91 575 1456L575 1500L577 1500L577 1461C577 1456.48 575.641 1449.18 578.028 1445.15C580.27 1441.36 585.239 1442 589 1442L620 1442C623.649 1442 629.416 1441.05 631.55 1444.86C634.07 1449.37 633 1457.04 633 1462L633 1500C637.508 1489.26 634 1470.68 634 1459C634 1454.59 632.519 1446.8 636.318 1443.6C639.262 1441.12 644.439 1442 648 1442L677 1442C680.854 1442 688.466 1443.44 690.972 1439.68C692.954 1436.71 692 1431.39 692 1428L692 1400C692 1395.48 690.526 1387.92 695.148 1385.18C699.089 1382.85 705.601 1384 710 1384L746 1384L871 1384L906 1384C910.155 1384 916.878 1385.27 920.682 1383.4C924.507 1381.51 923 1373.47 923 1370L923 1341C923 1337.55 922.076 1332.33 924.028 1329.28C926.665 1325.16 933.909 1326.99 938 1327L967 1327C970.221 1327 975.685 1327.97 978.397 1325.82C981.471 1323.39 980 1315.47 980 1312L980 1283C980 1279.36 979.244 1274.35 981.742 1271.32C984.333 1268.18 989.394 1269 993 1269L1024 1269C1027.47 1269 1035.51 1270.51 1037.4 1266.68C1039.81 1261.78 1038 1252.4 1038 1247L1038 1199L1038 1026L1038 790L1038 723C1038 715.383 1040.56 702.198 1037.4 695.229C1035.34 690.69 1027.89 692.98 1024 692.999C1014 693.047 1004 693.001 994 693C990.129 693 985.323 693.687 982.318 690.682C978.955 687.319 980 681.319 980 677C980 667.336 979.89 657.664 980.004 648C980.041 644.867 981.497 640.136 979.782 637.318C977.479 633.537 969.715 635 966 635L937 635C933.611 635 928.287 635.953 925.318 633.972C921.563 631.466 923 623.854 923 620L923 590C923 586.694 923.981 581.188 921.397 578.603C918.971 576.178 914.101 577 911 577L884 577L777 577L585 577L538 577C533.585 577 524.117 575.244 520.757 578.742C518.08 581.529 519.994 588.451 520 592C520.016 602.084 523.999 623.107 518.821 631.852C516.192 636.293 509.35 635 505 635L475 635C471.879 635 466.221 633.954 463.603 636.028C460.522 638.468 462 646.524 462 650L462 679C462 682.591 462.776 687.606 460.258 690.566C457.441 693.877 451.859 693 448 693C438 693.001 427.999 693.047 418 692.999C414.106 692.98 406.662 690.69 404.603 695.229C402.588 699.674 404 707.194 404 712L404 749L404 882L404 1220L404 1328C404 1344.36 401.03 1363.92 404.228 1379.94C405.392 1385.77 413.554 1384 418 1384L448 1384C451.859 1384 457.441 1383.12 460.258 1386.43C465.185 1392.23 462 1409.69 462 1417L462 1500z"/>
<path style="fill:#030202; stroke:none;" d="M1147 577.533C1135.67 577.759 1124.35 578 1113 578C1109.47 578 1102.54 576.699 1099.6 579.028C1096.93 581.147 1098 587.02 1098 590L1098 620C1098 623.151 1096.78 629.739 1099.6 631.972C1102.38 634.175 1108.67 633 1112 633C1123.56 633 1135.48 633.842 1147 632.84C1154.13 632.219 1153 626.776 1153 621L1153 589C1153 583.965 1153.85 577.397 1147 577.533M921 579L762 579L655 579L561 579C551.188 579 532.108 575.278 523.318 579.603C519.791 581.339 521 587.812 521 591L521 622C521 625.447 519.858 631.424 523.318 633.566C529.466 637.372 542.015 635 549 635C571.364 635 593.609 634 616 634L833 634L894 634C900.627 634 912.694 636.343 918.682 633.397C922.507 631.515 921 623.471 921 620L921 579z"/>
<path style="fill:#b530cd; stroke:none;" d="M234 631L234 632L237 632L234 631M240 631L240 632L255 632L240 631M259 631L259 632L263 632L259 631z"/>
<path style="fill:#fb6201; stroke:none;" d="M263 631L263 632L267 632L263 631z"/>
<path style="fill:#b530cd; stroke:none;" d="M267 631L267 632L270 632L267 631M274 631L274 632L279 632L274 631M280.667 631.333L281.333 631.667L280.667 631.333M283 631L283 632L286 632L283 631M1161 631L1161 632L1165 632L1161 631M1166 631L1166 632L1169 632L1166 631M1171 631L1171 632L1179 632L1171 631M1206 631L1206 632L1209 632L1206 631M228.333 633.667L228.667 634.333L228.333 633.667z"/>
<path style="fill:#030202; stroke:none;" d="M233.434 636.028C230.164 638.283 231.527 642.758 231.83 646C232.66 654.878 232 664.086 232 673L232 728C232 732.234 229.954 744.082 233.603 746.972C238.71 751.017 255.589 748 262 748C267.352 748 281.131 750.475 285.382 746.972C287.824 744.96 286.081 739.706 286.015 737C285.771 727.012 286 716.991 286 707L286 654C286 649.913 287.939 638.833 284.397 636.028C279.151 631.873 261.599 635 255 635C249.529 635 238.068 632.831 233.434 636.028M1156 636L1156 860L1156 1013L1156 1100L1156 1177C1156 1185.34 1152.91 1201.18 1156.6 1208.68C1158.34 1212.21 1164.81 1211 1168 1211L1199 1211C1202.34 1211 1207.8 1211.94 1209.97 1208.68C1214.84 1201.39 1211 1180.72 1211 1172L1211 1073L1211 764L1211 675C1211 664.937 1214.42 647.372 1210.4 638.148C1208.4 633.586 1200.99 635 1197 635C1183.35 635 1169.54 634.288 1156 636M464 692L503 692L517.397 691.243L519 677L519 637L479 637L464.643 637.643L464 652L464 692z"/>
<path style="fill:#b530cd; stroke:none;" d="M464 694L464 1383C476.99 1382.73 489.947 1382 503 1382C507.899 1382 514.754 1380.91 518.707 1384.51C524.183 1389.5 521 1407.03 521 1414L521 1500L575 1500L575 1456C575 1451.47 573.643 1443.98 578.228 1441.18C586.95 1435.85 608.847 1440 619 1440C622.589 1440 631.551 1441.68 632.593 1436.85C634.253 1429.16 632 1418.05 632 1410C632 1391.63 633 1373.39 633 1355C633 1349.77 635.742 1332.62 631.397 1329.18C628.685 1327.03 623.221 1328 620 1328L591 1328C586.445 1328 579.666 1329.2 576.643 1324.85C574.477 1321.74 575.982 1316.57 575.999 1313C576.046 1303.36 576.337 1293.63 575.961 1284C575.837 1280.8 576.71 1274.02 574.382 1271.6C571.463 1268.57 563.814 1270 560 1270C548.519 1270 533.121 1272.72 522.059 1269.68C516.719 1268.22 518 1261.27 518 1257C518 1244.47 514.84 1227.05 518.434 1215.06C520.026 1209.74 526.659 1211 531 1211L564 1211C568.18 1211 573.585 1210.24 576.361 1214.15C581.99 1222.08 578.11 1244.46 577.996 1254C577.952 1257.74 575.635 1264.4 578.604 1267.4C581.174 1269.99 586.706 1269 590 1269L620 1269C623.961 1269 631.42 1267.37 633.972 1271.29C635.936 1274.31 635 1279.57 635 1283L635 1312C635 1315.64 633.523 1323.55 637.318 1325.73C641.722 1328.27 652.852 1326 658 1326C676.723 1326 695.307 1325 714 1325L921 1325L921 1284C921 1279.1 919.798 1272.02 924.228 1268.6C927.351 1266.19 932.311 1267 936 1267L965 1267C970.002 1267.01 978.304 1269.98 978.941 1262.98C981.772 1231.89 979 1199.24 979 1168L979 976L979 903C979 890.799 977.167 876.901 980 865L943 866L922 864C914.554 871.604 888.392 867.001 878 867C873.852 867 867.583 867.95 865.028 863.772C861.694 858.318 864 846.256 864 840C864 818.887 865 798.132 865 777C865 770.881 862.179 754.981 867.318 750.742C872.866 746.166 888.123 749 895 749L951 749C960.32 749 971.291 747.31 980 751C976.884 737.913 979 722.424 979 709C979 705.614 980.61 696.465 977.397 694.269C974.838 692.52 968.992 693.995 966 694L937 694C932.401 694 925.824 695.184 922.756 690.852C920.236 687.292 921.728 682.021 921.924 678C922.378 668.702 921.985 659.303 921.861 650C921.814 646.48 923.628 638.545 919.682 636.603C912.399 633.02 897.099 636 889 636L814 636L618 636C597.286 636 576.667 637 556 637C546.31 637 533.491 634.63 524.148 636.603C519.318 637.624 521 646.417 521 650C521 660.305 525.13 681.907 519.972 690.867C516.882 696.234 509.981 694.063 505 694.004C491.338 693.842 477.664 694 464 694z"/>
<path style="fill:#030202; stroke:none;" d="M924 637L924 677C924 680.466 922.529 688.386 925.603 690.821C931.013 695.105 948.248 692 955 692C960.602 692 973.007 694.28 977.397 690.142C980.001 687.686 979 682.214 979 679L979 649C979 645.977 980.24 639.122 977.397 637.067C974.599 635.045 966.451 637 963 637L924 637M407.603 695.028C405.082 697.025 406 702.197 406 705L406 734L406 853L406 1276L406 1355C406 1360.38 403.154 1378.45 407.603 1381.97C412.71 1386.02 429.589 1383 436 1383C441.828 1383 455.543 1385.4 460.397 1381.9C462.947 1380.06 462 1374.7 462 1372L462 1343L462 1223L462 799L462 723C462 716.995 464.919 700.317 460.972 695.642C456.839 690.747 438.728 694.928 433 694.996C426.964 695.068 412.499 691.15 407.603 695.028M983.318 695.028C980.314 696.086 981.005 700.509 981 703L981 729C981 764.505 983 800.256 983 836C983 938.714 981 1042.02 981 1145L981 1230C981 1239.08 977.596 1256.54 981.603 1264.68C983.416 1268.37 990.667 1267 994 1267C1005.17 1267 1023.44 1270.65 1033.85 1267.23C1037.44 1266.05 1036.26 1261.84 1036.09 1259C1035.58 1250.72 1036 1242.3 1036 1234L1036 1127L1036 818L1036 731C1036 722.674 1035.81 714.323 1036.01 706C1036.09 703.103 1037.45 699.049 1036.22 696.318C1034.44 692.389 1027.25 694.906 1024 694.985C1012.43 695.269 994.11 691.225 983.318 695.028z"/>
<path style="fill:#b530cd; stroke:none;" d="M171 748L172 749L171 748z"/>
<path style="fill:#fb6201; stroke:none;" d="M637 749L637 750L747 750L713 749L637 749M868 749L868 750L978 750L944 749L868 749M635 750L636 751L635 750z"/>
<path style="fill:#f9f5fa; stroke:none;" d="M636.434 751.028C632.917 753.454 634.675 758.542 634.911 762C635.563 771.587 635 781.391 635 791L635 846C635 850.751 632.416 860.879 636.434 864.254C641.42 868.441 660.323 865 667 865C672.657 865 686.85 867.573 691.397 863.972C694.351 861.632 693 854.315 693 851L693 821C693 817.732 692.014 812.277 694.603 809.742C697.275 807.127 702.613 808 706 808C716 807.999 726.001 807.953 736 808.001C740.25 808.021 747.856 810.289 749.566 804.867C753.11 793.632 750 776.786 750 765C750 761.306 751.272 754.479 748.397 751.603C744.099 747.306 728.768 750 723 750L660 750C654.114 750 641.398 747.603 636.434 751.028z"/>
<path style="fill:#fb6201; stroke:none;" d="M748 750L749 751L748 750M866 750L865 752L866 750z"/>
<path style="fill:#f9f5fa; stroke:none;" d="M867.318 751.028C863.716 753.431 865 760.309 865 764L865 795C865 798.46 864.081 803.747 866.603 806.552C869.52 809.795 876.126 808.006 880 808L909 808C912.507 808 917.697 807.104 920.566 809.603C924.306 812.861 922.118 818.785 922.015 823C921.769 833.031 922.13 843.009 922.625 853C922.785 856.235 920.986 860.758 923.604 863.397C928.817 868.65 950.795 865 958 865C962.875 865 973.641 867.439 977.718 864.958C981.98 862.363 980.002 854.151 980 850L980 806L980 766C980.001 762.176 981.891 754.661 979.127 751.603C975.252 747.316 959.459 750 954 750L891 750C885.003 750 872.426 747.619 867.318 751.028z"/>
<path style="fill:#030202; stroke:none;" d="M175.603 752.028C171.058 755.628 174 774.479 174 780L174 862L174 1111L174 1180C174 1187.61 171.232 1201.83 174.603 1208.68C176.339 1212.21 182.811 1211 186 1211L215 1211C218.389 1211 223.713 1211.95 226.682 1209.97C231.897 1206.49 229 1188.68 229 1183L229 1101L229 861L229 788C229 777.893 231.557 763.831 228.682 754.148C227.355 749.679 220.576 751 217 751L187 751C183.878 751 178.221 749.954 175.603 752.028z"/>
<path style="fill:#fb6201; stroke:none;" d="M749 751L750 752L749 751M634 752L635 753L634 752M980.333 752.667L980.667 753.333L980.333 752.667z"/>
<path style="fill:#b530cd; stroke:none;" d="M169.667 753.333L170.333 753.667L169.667 753.333z"/>
<path style="fill:#fb6201; stroke:none;" d="M750 753L750 805L751 805L751 770L750 753z"/>
<path style="fill:#b530cd; stroke:none;" d="M169 756L169 758L171 758L171 756L169 756z"/>
<path style="fill:#fb6201; stroke:none;" d="M980 756L980 860L981 860L981 788L980 756M634 758L634 858L635 858L635 789L634 758z"/>
<path style="fill:#b530cd; stroke:none;" d="M169 762L169 765L171 765L171 762L169 762M169 768L169 781L171 781L171 768L169 768M169 791L169 797L171 797L171 791L169 791z"/>
<path style="fill:#fb6201; stroke:none;" d="M749.333 806.667L749.667 807.333L749.333 806.667M865 806L866 807L865 806M866 807L869 809L869 808L866 807M695 808L696 809L695 808z"/>
<path style="fill:#79368f; stroke:none;" d="M696.148 808.832C691.738 810.469 693 817.333 693 821L693 852C693.004 855.446 692.014 861.73 694.052 864.721C696.475 868.277 703.32 867 707 867C718.305 867 737.459 870.727 747.891 866.397C752.426 864.514 751.993 859.067 752 855L752 823C752 819.541 753.137 813.429 750.972 810.473C748.672 807.333 741.389 808.999 738 809L708 809C704.502 808.994 699.433 807.612 696.148 808.832z"/>
<path style="fill:#fb6201; stroke:none;" d="M699 808L699 809L744 809C732.299 804.09 711.742 808 699 808M746.667 808.333L747.333 808.667L746.667 808.333z"/>
<path style="fill:#79368f; stroke:none;" d="M866.318 809.313L864 822L864 852L865.028 864.566L878 867L907 867L919.682 866.397L922 854L922 823L920.972 810.322L908 808.999L878 809L866.318 809.313z"/>
<path style="fill:#fb6201; stroke:none;" d="M871 808L871 809L916 809C904.299 804.09 883.742 808 871 808M920 808L921 809L920 808M693 809L694 810L693 809M921 809L922 810L921 809z"/>
<path style="fill:#030202; stroke:none;" d="M695 810L695 849L696.028 863.397L707 865L737 865L748.731 862.682L749 848L749 810L695 810M866 810L866 849L867.603 863.397L882 865L920 865L920 826L919.933 811.603L906 810L866 810z"/>
<path style="fill:#fb6201; stroke:none;" d="M922 811L922 818L923 818L922 811z"/>
<path style="fill:#b530cd; stroke:none;" d="M169 815L169 1186L171 1186L171 815L169 815z"/>
<path style="fill:#fb6201; stroke:none;" d="M922 851L922 857L923 857L922 851M693 860L694 861L693 860M980.333 861.667L980.667 862.333L980.333 861.667M634.333 862.667L634.667 863.333L634.333 862.667M922 863L923 864L922 863M635 864L636 865L635 864M692 864L693 865L692 864M923 864L924 865L923 864M979 864L980 865L979 864M636.667 865.333L637.333 865.667L636.667 865.333M642 865L642 866L691 866C678.348 860.691 655.788 865 642 865M924 865L924 866L973 866C960.348 860.691 937.788 865 924 865M978 865L979 866L978 865z"/>
<path style="fill:#79368f; stroke:none;" d="M635.318 1038.03C632.484 1039.92 633.006 1044.05 633 1047L633 1072L633 1175L633 1203C633.009 1207.32 632.757 1212 638.019 1212.85C650.672 1214.91 665.173 1213 678 1213C681.88 1213 689.386 1214.41 692.397 1211.4C696.138 1207.66 694 1195.93 694 1191L694 1135L694 1109C694 1106.14 693.096 1100.99 695.603 1098.91C697.842 1097.06 702.319 1097.99 705 1098L730 1098L826 1098L853 1098C856.226 1097.99 861.165 1096.87 863.062 1100.27C866.898 1107.15 864 1122.21 864 1130C864 1154.95 860.149 1183.38 864.148 1207.98C865.12 1213.96 871.33 1213 876 1213L909 1213C912.82 1213 919.198 1214.17 922.486 1211.82C928.587 1207.46 925 1184.9 925 1178L925 1076L925 1049C924.995 1045.65 925.628 1040.42 922.486 1038.18C918.5 1035.33 909.68 1037 905 1037L858 1037L695 1037L652 1037C647.497 1037 639.213 1035.43 635.318 1038.03z"/>
<path style="fill:#030202; stroke:none;" d="M637.318 1040.03C631.555 1043.87 635 1066.54 635 1073L635 1174C635 1181.3 630.982 1209.38 640.019 1210.85C647.327 1212.04 655.599 1211 663 1211C669.097 1211 685.883 1213.91 690.397 1209.4C694.364 1205.43 692 1192.27 692 1187L692 1125C692 1118.43 689.119 1102.59 693.603 1097.43C698.902 1091.34 720.425 1095 728 1095L827 1095C836 1095 845 1094.96 854 1095C857.644 1095.02 862.736 1094.73 864.972 1098.28C869.007 1104.68 866 1120.53 866 1128C866 1153.08 861.829 1182.22 866.148 1206.89C867.084 1212.23 873.941 1211 878 1211L908 1211C911.547 1211 917.493 1212.1 920.566 1209.97C923.797 1207.73 922.304 1203.21 922.089 1200C921.493 1191.07 922 1181.95 922 1173L922 1073C922 1065.07 921.458 1056.91 922.169 1049C922.438 1046.01 923.544 1042.09 920.566 1040.03C916.615 1037.29 907.624 1039 903 1039L856 1039L696 1039L654 1039C649.497 1039 641.213 1037.43 637.318 1040.03z"/>
<path style="fill:#b530cd; stroke:none;" d="M169 1202L169 1204L171 1204L171 1202L169 1202M169 1205L169 1210L171 1210L171 1205L169 1205z"/>
<path style="fill:#030202; stroke:none;" d="M232 1214L232 1297L232.746 1324.97L247 1326L286 1326L286 1243L285.382 1214.64L272 1214L232 1214M575 1268L575 1229L573.972 1214.6L562 1213L532 1213L521.042 1214.74L520.911 1223L521 1245L521.743 1266.97L536 1268L575 1268M1153 1214L1114 1214C1110.55 1214 1102.4 1212.05 1099.6 1214.07C1096.76 1216.12 1098 1222.98 1098 1226L1098 1255C1098 1258.14 1096.96 1263.75 1099.03 1266.4C1101.29 1269.3 1106.87 1268.21 1110 1268.07C1119.89 1267.64 1130.11 1267.61 1140 1268.04C1143.46 1268.19 1150.33 1270.63 1152.4 1266.57C1154.4 1262.63 1153 1255.33 1153 1251L1153 1214z"/>
<path style="fill:#b530cd; stroke:none;" d="M1212 1213L1213 1214L1212 1213z"/>
<path style="fill:#030202; stroke:none;" d="M925.318 1270.03C920.198 1273.44 923 1290.45 923 1296C923 1302.22 920.094 1318.43 924.028 1323.4C926.261 1326.22 932.849 1325 936 1325L966 1325C969.122 1325 974.779 1326.05 977.397 1323.97C981.652 1320.6 979 1304.1 979 1299C979 1292.16 981.833 1277.1 977.972 1271.32C975.679 1267.88 969.52 1269 966 1269L937 1269C933.611 1269 928.287 1268.05 925.318 1270.03z"/>
<path style="fill:#b530cd; stroke:none;" d="M1156.33 1269.67L1156.67 1270.33L1156.33 1269.67z"/>
<path style="fill:#030202; stroke:none;" d="M579.603 1272.03C575.446 1275.32 578 1291.04 578 1296C578 1302.41 574.983 1319.29 579.028 1324.4C581.261 1327.22 587.849 1326 591 1326L620 1326C623.122 1326 628.779 1327.05 631.397 1324.97C635.554 1321.68 633 1305.96 633 1301C633 1294.59 636.017 1277.71 631.972 1272.6C629.739 1269.78 623.151 1271 620 1271L591 1271C587.879 1271 582.221 1269.95 579.603 1272.03M1041 1326L1079 1326L1093.56 1324.97L1095 1313L1095 1283L1093.4 1272.03L1082 1271L1053 1271L1041.07 1272.6L1041 1287L1041 1326z"/>
<path style="fill:#b530cd; stroke:none;" d="M1154.67 1271.33L1155.33 1271.67L1154.67 1271.33M1103 1272L1103 1273L1110 1273L1103 1272M1113 1272L1113 1273L1129 1273L1113 1272M1140 1272L1140 1273L1144 1273L1140 1272M1148.67 1272.33L1149.33 1272.67L1148.67 1272.33M1151.67 1272.33L1152.33 1272.67L1151.67 1272.33M1098 1273L1099 1274L1098 1273z"/>
<path style="fill:#030202; stroke:none;" d="M636 1329L635 1440L690 1440L690 1383L854 1383L900 1383L918.682 1382.4L921 1370L921 1340L919.972 1328.6L902 1327L850 1327L636 1329z"/>
<path style="fill:#b530cd; stroke:none;" d="M237.333 1329.67L237.667 1330.33L237.333 1329.67M240 1329L240 1331L242 1331L242 1329L240 1329M262 1329L262 1331L266 1331L266 1329L262 1329M269 1329L269 1331L271 1331L271 1329L269 1329z"/>
<path style="fill:#030202; stroke:none;" d="M289 1500L344 1500L344 1329L305 1329L290.603 1330.03L289 1341L289 1372L289 1500M983.643 1330.03C980.564 1332.65 983 1347.84 983 1352C983 1358.79 979.763 1377.01 984.028 1382.4C986.261 1385.22 992.849 1384 996 1384L1025 1384C1028.31 1384 1033.81 1384.98 1036.4 1382.4C1040.36 1378.43 1038 1365.27 1038 1360C1038 1352.95 1040.94 1337.27 1036.97 1331.32C1034.68 1327.88 1028.52 1329 1025 1329L995 1329C991.983 1329 986.12 1327.92 983.643 1330.03z"/>
<path style="fill:#b530cd; stroke:none;" d="M1042.33 1329.67L1042.67 1330.33L1042.33 1329.67M1046.33 1329.67L1046.67 1330.33L1046.33 1329.67M1057 1329L1057 1331L1070 1331L1070 1329L1057 1329M1076 1329L1076 1331L1080 1331L1080 1329L1076 1329M1041.33 1331.67L1041.67 1332.33L1041.33 1331.67M1041 1335L1042 1336L1041 1335M1041.33 1382.67L1041.67 1383.33L1041.33 1382.67z"/>
<path style="fill:#030202; stroke:none;" d="M464 1385L464 1500L519 1500L519 1415C519 1408.79 522.111 1390.19 517.397 1385.76C514.462 1383 506.75 1385 503 1385L464 1385M925 1500L981 1500L981 1387L941 1387C937.459 1387 929.552 1385.25 926.603 1387.27C922.148 1390.31 925 1409.88 925 1415L925 1500z"/>
<path style="fill:#b530cd; stroke:none;" d="M984 1387L984 1388L987 1388L984 1387M1006 1387L1006 1388L1010 1388L1006 1387M1019 1387L1019 1388L1022 1388L1019 1387M1037 1387L1038 1388L1037 1387z"/>
<path style="fill:#030202; stroke:none;" d="M577 1500L633 1500L633 1461L631.691 1444.32L620 1442L589 1442L578.028 1444.32L577 1460L577 1500z"/>
</svg>
