<?xml version="1.0" standalone="yes"?>
<svg xmlns="http://www.w3.org/2000/svg" width="1500" height="1500">
<path style="fill:#020302; stroke:none;" d="M0 0L0 1500L402 1500L402 924L362 924C357.042 924 349.611 925.325 345.894 921.196C341.213 915.997 344.679 905.703 345.741 899.83C347.386 890.733 346 880.241 346 871L346 740C346 730.217 347.022 719.804 345.871 710.089C345.287 705.16 343.856 697.741 347.603 693.434C350.783 689.779 357.7 691 362 691L402 691L402 565L402 533C402 528.953 401.016 522.855 403.858 519.514C406.446 516.471 411.43 517.006 415 517L445 517C448.316 517 455.632 518.351 457.972 515.397C460.301 512.457 459 505.531 459 502C459 491.359 455.7 474.136 459.819 464.29C462.503 457.871 469.259 459 475 459L517 459L517 419L519.514 403.603L535 402L574 401L574 348L449 348C438.011 348 425.789 349.935 415 348.714C411.792 348.35 406.898 348.572 404.318 346.397C398.344 341.36 402 319.379 402 312L402 211L402 183C402.007 179.46 401.627 175.113 405.148 173.028C409.076 170.702 415.614 172.153 420 171.961C431.022 171.478 441.923 171 453 171L574 171C578.406 158.664 576 143.025 576 130C576 125.302 574.461 117.084 579.228 114.179C583.583 111.525 591.128 113.992 596 114L639 114L800 114L847 114C851.638 114 860.597 112.296 864.566 115.028C868.346 117.629 867 125.079 867 129L867 159C867 162.333 866.104 167.784 868.742 170.382C870.952 172.558 876.118 171.641 879 171.845C888.924 172.547 899.053 172 909 172C913.687 172 921.201 170.621 923.397 176.059C927.377 185.914 924 203.376 924 214C924 243.998 923.807 274.002 924.001 303.999C924.073 315.197 931.018 334.008 924.392 344.366C921.31 349.183 914.936 348 910 348L880 348C876.879 348 871.221 346.954 868.603 349.028C865.649 351.367 867 358.685 867 362C867 375.037 868 387.943 868 401C880.908 403.396 894.899 402 908 402C912.385 402 919.863 400.594 923.026 404.394C928.385 410.832 924.552 418.059 924.054 425.039C923.55 432.101 925.774 438.202 925.981 445.004C926.085 448.437 922.927 455.208 925.898 457.686C929.076 460.336 936.149 459 940 459C950.201 459 968.457 455.46 977.699 459.858C983.587 462.66 983 469.551 983 475L983 517L1021 517L1036.68 518.742L1039 531L1039 562L1041 691L1166 691L1197 691C1201.11 691 1207.13 690.046 1210.57 692.858C1213.9 695.591 1213 701.19 1213 705C1213 716.052 1212 726.948 1212 738L1212 872C1212 884.376 1213 896.61 1213 909C1213 912.944 1214.11 919.286 1210.57 922.062C1203.27 927.774 1184.75 923 1176 923L1081 923C1070.94 923 1061.03 923.999 1051 924C1047.6 924 1041.88 923.009 1039.86 926.573C1037.07 931.476 1039 941.482 1039 947L1039 998L1039 1186L1039 1247C1039 1254.37 1043.17 1263.68 1036.43 1269.4C1033.02 1272.3 1026.17 1271 1022 1271L983 1271C978.476 1295.37 982 1323.22 982 1348L982 1500L1500 1500L1500 0L0 0z"/>
<path style="fill:#f9fcf8; stroke:none;" d="M574 171L451 171C439.941 171 428.999 171.716 418 171.985C414.103 172.081 407.721 170.756 404.318 173.028C401.263 175.066 402.001 179.85 402 183L402 211L402 313L402 338C402.006 340.95 401.486 345.076 404.318 346.972C413.945 353.417 438.676 348 450 348L574 348L574 402C588.149 405.234 604.372 403 619 403C623.657 403 632.023 401.6 634.972 406.279C636.911 409.354 636 414.531 636 418L636 446C636 449.386 634.517 457.482 637.603 459.806C640.297 461.835 645.857 460.041 649 460.004C658.664 459.889 668.336 460 678 460L765 460C776.234 460 792.137 463.079 802.852 460.477C807.674 459.306 806 450.656 806 447L806 418C806 414.311 805.193 409.351 807.603 406.228C811.301 401.439 819.715 403 825 403C840.522 403 855.695 403.25 871 402L871 401L868 401C868 387.944 867 375.03 867 362C867 358.309 865.716 351.431 869.318 349.028C872.287 347.046 877.611 348 881 348L910 348C914.484 348 921.454 349.406 924.392 345.137C931.047 335.467 924.41 315.616 924.018 304.996C922.856 273.426 924 241.594 924 210C924 201.49 927.727 181.443 922.972 174.318C920.466 170.563 912.854 172 909 172C899.104 172 888.844 172.767 879 171.718C876.221 171.422 871.725 172.087 869.434 170.307C866.262 167.843 867.001 162.512 867 159L867 128C867 124.474 868.433 116.566 864.566 114.603C860.198 112.387 851.821 114 847 114L803 114L645 114C628.667 114 612.332 114.078 596 113.999C591.025 113.975 582.831 111.153 578.434 114.179C574.501 116.885 576 124.91 576 129C576 143.027 577.199 157.385 574 171z"/>
<path style="fill:#c09775; stroke:none;" d="M578.603 174.028C575.784 176.261 577 182.849 577 186C577 196.552 577.829 207.494 576.83 218C576.46 221.891 574.532 228.279 579.228 230.397C584.15 232.615 592.669 231 598 231L642 231L798 231L847 231C851.417 231 861.008 232.786 864.397 229.397C867.131 226.663 866 220.503 866 217L866 186C866 182.62 867.277 175.486 863.566 173.603C859.198 171.387 850.821 173 846 173L802 173L645 173L597 173C592.487 173 582.294 171.105 578.603 174.028z"/>
<path style="fill:#be2f33; stroke:none;" d="M579 175L580 176L579 175z"/>
<path style="fill:#020302; stroke:none;" d="M580.618 176.117L579.985 186L579.996 217L581.322 228.227L599 228L644 228L794 228L843 228L861.397 227.883L863 217L863 187L860.682 175.773L843 176L798 176L648 176L598 176L580.618 176.117z"/>
<path style="fill:#be2f33; stroke:none;" d="M583 175L583 176L851 176L826 175L772 175L583 175z"/>
<path style="fill:#18951a; stroke:none;" d="M851.667 175.333L852.333 175.667L851.667 175.333z"/>
<path style="fill:#be2f33; stroke:none;" d="M853 175L853 176L859 176L853 175M862 175L863 176L862 175z"/>
<path style="fill:#18951a; stroke:none;" d="M863 176L863 180L864 180L863 176z"/>
<path style="fill:#be2f33; stroke:none;" d="M579 180L579 224L580 224C580 211.52 583.81 191.463 579 180M863.333 225.667L863.667 226.333L863.333 225.667M583 228L583 229L859 229L834 228L778 228L583 228M862 228L863 229L862 228z"/>
<path style="fill:#f9fcf8; stroke:none;" d="M547 401L547 402L565 402L547 401z"/>
<path style="fill:#c09775; stroke:none;" d="M517 459L477 459C472.76 459 465.384 457.576 461.92 460.514C457.721 464.075 459 471.145 459 476L459 517L419 517L403.858 518.858L402 531L402 563L402 691L361 691L347.028 693.434L346 707L346 741L346 870L344.054 908.039L345.894 921.852L361 924L402 924L402 950L403 950C403 944.601 405.961 925.275 401.527 922.028C398.748 919.993 393.243 921 390 921L362 921C357.04 921 349.213 922.529 348.148 915.981C345.427 899.241 348 879.975 348 863L348 753L348 712C348 707.779 346.523 699.963 349.028 696.333C351.22 693.154 357.526 694.949 360.83 694.883C371.2 694.677 381.622 695.005 392 695C395.532 694.998 400.941 695.734 402.802 691.852C404.188 688.962 403.005 684.146 403 681L403 654L403 560C403 550.202 399.247 530.679 404.028 522.062C406.848 516.981 414.197 518.998 419 519C429.298 519.004 449.466 522.932 458.682 518.397C462.637 516.451 461 507.605 461 504L461 475C461 471.439 460.123 466.262 462.603 463.318C465.542 459.83 471.964 461 476 461L506 461C509.073 461 514.694 462.047 517.258 459.972C519.982 457.768 519 452.062 519 449C519.001 438.335 519.119 427.664 518.996 417C518.936 411.74 517.272 405.064 524.015 403.318C530.915 401.531 539.888 403 547 403C566.836 403 586.141 405 606 405C611.682 405 629.492 402.103 632.972 407.318C634.954 410.287 634 415.611 634 419L634 447C634 450.921 632.654 458.371 636.434 460.972C641.406 464.395 654.108 462 660 462L721 462L782 462C787.997 462 800.574 464.381 805.682 460.972C809.437 458.466 808 450.854 808 447L808 419C808 415.611 807.046 410.287 809.028 407.318C812.444 402.198 829.45 405 835 405C856.517 405 877.483 403 899 403C906.072 403 917.748 400.637 923 406C923.159 399.296 901.917 402 897 402C876.177 402 855.789 403 835 403C828.049 403 815.266 400.557 809.148 404.179C805.363 406.42 806.002 411.226 806 415L806 446C806 449.868 807.631 458.464 802.852 460.088C792.961 463.448 775.611 460 765 460L677 460C667.335 460 657.664 459.893 648 460.004C645.003 460.038 640.058 461.451 637.603 459.218C634.976 456.829 636 451.163 636 448L636 418C636 413.793 637.58 406.032 632.852 403.894C625.568 400.598 612.901 403 605 403C585.017 403 565.989 402 546 402C540.103 402 523.097 399.107 518.858 403.603C515.634 407.023 517 414.715 517 419L517 459z"/>
<path style="fill:#18951a; stroke:none;" d="M403 690L405 690L405 560L405 530C405.009 525.677 404.757 521.004 410.019 520.148C421.414 518.296 434.449 520 446 520C449.503 520 455.663 518.87 458.397 521.603C463.23 526.437 460 545.413 460 552L460 638L460 679C460 685.4 458.687 692.618 467.001 692.981C498.652 694.36 530.343 691.848 562 692.001C646.905 692.41 732.017 692 817 692L929 692C943.64 692 964.815 695.961 978.772 691.682C983.196 690.326 982 683.55 982 680L982 645L982 555C982 547.403 978.567 528.296 983.603 522.318C986.398 519.001 992.16 520 996 520C1007.29 520 1022.06 517.457 1032.98 520.318C1038.13 521.667 1037.99 526.621 1038 531L1038 561L1038 690L1039 690L1039 563L1039 532C1039 528.403 1040.03 522.44 1037.26 519.603C1033.98 516.251 1026.06 518.235 1022 518.714C1012.85 519.795 1003.21 519.001 994 519C990.839 519 985.998 519.802 983.487 517.397C980.354 514.396 981.987 506.89 981.999 502.999C982.033 492.593 985.669 473.705 981.397 464.228C979.274 459.521 971.134 461 967 461L924 461C923.522 447.706 924 434.309 924 421C924 416.596 925.382 409.156 922.821 405.318C920.222 401.423 912.012 403 908 403C893.95 403 878.84 401.431 865 404L865 405L899 405C904.211 405 916.469 402.758 920.477 406.603C923.158 409.176 922.004 414.665 922 418L922 447C922 450.306 922.981 455.812 920.397 458.397C916.099 462.694 900.768 460 895 460L830 460C820.838 460 809.143 463.101 809 451L808 451C807.941 467.713 784.229 462 772 462L670 462C660.154 462 641.003 465.773 634 458L606 460L550 460L522.318 458.972L520 447L520 417L522.318 406.028L538 405L577 405C566.521 398.723 544.081 403 532 403C527.225 403 519.851 401.826 518.523 408.019C516.147 419.108 519 434.476 519 446C519 449.921 520.346 457.371 516.566 459.972C513.481 462.096 507.557 461 504 461L475 461C471.611 461 466.287 460.046 463.318 462.028C459.563 464.534 461 472.146 461 476L461 505C461 508.389 461.954 513.713 459.972 516.682C457.569 520.284 450.691 519 447 519C436.676 519 426.321 519.238 416 518.985C412.377 518.897 407.354 517.108 404.603 520.322C401.96 523.409 403 529.245 403 533L403 565L403 690z"/>
<path style="fill:#f9fcf8; stroke:none;" d="M923 403L924 404L923 403z"/>
<path style="fill:#020302; stroke:none;" d="M521.603 406.028C518.927 408.147 520 414.02 520 417L520 447C520 450.151 518.784 456.739 521.603 458.972C525.867 462.349 538.722 460 544 460L607 460C612.657 460 626.85 462.573 631.397 458.972C634.073 456.853 633 450.98 633 448C633 438.061 632.41 427.916 633.089 418C633.324 414.578 635.519 408.48 631.682 406.269C626.754 403.429 613.792 406 608 406C587.615 406 567.389 405 547 405C541.154 405 526.29 402.316 521.603 406.028z"/>
<path style="fill:#18951a; stroke:none;" d="M578 405L578 406L629 406C615.873 400.491 592.311 405 578 405M631.667 405.333L632.333 405.667L631.667 405.333M808 408L809 408L812 406L808 408z"/>
<path style="fill:#020302; stroke:none;" d="M809 406L809 444C809 447.732 807.577 455.302 810.028 458.397C813.398 462.652 829.902 460 835 460L898 460C903.278 460 916.133 462.349 920.397 458.972C924.652 455.602 922 439.098 922 434C922 428.276 925.01 410.772 921.218 406.603C918.219 403.306 909.044 405 905 405C889.284 405 873.651 405.602 858 405.985C842.046 406.376 824.718 403.757 809 406z"/>
<path style="fill:#18951a; stroke:none;" d="M814 405L814 406L864 406C851.111 400.591 828.049 405 814 405M633 406L634 407L633 406z"/>
<path style="fill:#be2f33; stroke:none;" d="M808.333 408.667L808.667 409.333L808.333 408.667z"/>
<path style="fill:#f9fcf8; stroke:none;" d="M924 408L924 421L926 421L926 408L924 408z"/>
<path style="fill:#18951a; stroke:none;" d="M808 410L808 450L809 450C809 438.566 812.411 420.512 808 410z"/>
<path style="fill:#be2f33; stroke:none;" d="M633 414L633 450L634 450C634 439.613 637.011 423.56 633 414z"/>
<path style="fill:#f9fcf8; stroke:none;" d="M924 439L924 442L926 442L926 439L924 439z"/>
<path style="fill:#c09775; stroke:none;" d="M924 442L924 450L926 450L926 442L924 442z"/>
<path style="fill:#18951a; stroke:none;" d="M633 450L634 451L633 450z"/>
<path style="fill:#be2f33; stroke:none;" d="M808 450L809 451L808 450z"/>
<path style="fill:#f9fcf8; stroke:none;" d="M924 450L924 453L926 453L926 450L924 450z"/>
<path style="fill:#be2f33; stroke:none;" d="M633 451L633 454L634 454L633 451z"/>
<path style="fill:#18951a; stroke:none;" d="M633.333 454.667L633.667 455.333L633.333 454.667z"/>
<path style="fill:#c09775; stroke:none;" d="M923.333 455.667L923.667 456.333L923.333 455.667z"/>
<path style="fill:#be2f33; stroke:none;" d="M633.333 456.667L633.667 457.333L633.333 456.667z"/>
<path style="fill:#c09775; stroke:none;" d="M924 457L924 461L979 461L979 459C962.337 459 939.618 462.984 924 457M979.667 461.333L980.333 461.667L979.667 461.333z"/>
<path style="fill:#020302; stroke:none;" d="M464.318 463.028C459.198 466.444 462 483.45 462 489C462 495.486 459.135 511.386 463.858 516.397C466.454 519.15 472.596 518 476 518L505 518C508.122 518 513.779 519.046 516.397 516.972C520.652 513.602 518 497.098 518 492C518 485.714 520.899 469.651 516.972 464.599C514.741 461.73 508.241 462.042 505 462.004C495.336 461.889 485.665 462 476 462C472.611 462 467.287 461.046 464.318 463.028M925 463L925 501L924.768 515.721L937 518L967 518L978.258 516.972L980 505L980 474L977.682 463.028L963 462L925 463z"/>
<path style="fill:#c09775; stroke:none;" d="M981 462L982 463L981 462M982 464L981 511L983 499L982 464z"/>
<path style="fill:#f9fcf8; stroke:none;" d="M982 511L982 515L983 515L982 511z"/>
<path style="fill:#c09775; stroke:none;" d="M981 515C983.992 520.427 990.526 519 996 519C1009.38 519 1022.68 518 1036 518L1036 517C1019.34 517 996.617 520.984 981 515z"/>
<path style="fill:#f9fcf8; stroke:none;" d="M458 516L459 517L458 516z"/>
<path style="fill:#c09775; stroke:none;" d="M1037 518L1038 519L1037 518M1038.33 519.667L1038.67 520.333L1038.33 519.667z"/>
<path style="fill:#020302; stroke:none;" d="M461 692L460 662L460 606L460 562L460 533L458.972 521.603L448 520L418 520L406.028 521.603L405 532L405 557L405 654L405 681L406.028 691.397L420 693L461 692M981 692C993.79 695.045 1008.88 693 1022 693C1025.83 693 1033.31 694.411 1036.26 691.397C1038.7 688.9 1038 684.169 1038 681L1038 653L1038 558C1038 549.49 1041.73 529.443 1036.97 522.318C1034.68 518.882 1028.52 520 1025 520L994 520C990.659 520 985.2 519.063 983.028 522.318C981.046 525.287 982 530.611 982 534L982 564L982 609C982 635.669 985.868 665.779 981 692z"/>
<path style="fill:#f9fcf8; stroke:none;" d="M1039.67 676.333L1040.33 676.667L1039.67 676.333z"/>
<path style="fill:#c09775; stroke:none;" d="M1039 677C1039 681.47 1036.87 691.218 1041.24 693.972C1048.71 698.68 1068.23 695 1077 695L1172 695C1180.99 695 1190.01 695.191 1199 694.985C1201.66 694.925 1206.18 693.616 1208.31 695.782C1210.75 698.272 1209 706.678 1209 710L1209 750L1209 864C1209 881.05 1211.46 900.103 1209.26 916.941C1208.7 921.185 1204.36 920.976 1201 920.999C1191.67 921.063 1182.33 921 1173 921L1070 921C1063.34 921 1039.41 917.402 1039 926C1051.62 921.163 1069.5 923 1083 923L1167 923C1177.71 923 1188.35 923.987 1199 924C1202.62 924.004 1208.34 924.743 1211.26 922.062C1214.08 919.463 1213 913.431 1213 910C1213 898.945 1212 888.023 1212 877L1212 743C1212 730.276 1213 717.699 1213 705C1213 701.28 1214.19 694.744 1210.57 692.318C1207.06 689.968 1201 691 1197 691L1164 691L1041 691L1041 677L1039 677z"/>
<path style="fill:#be2f33; stroke:none;" d="M404 690C396.919 699.295 374.729 695.137 364 694.745C360.718 694.625 351.212 692.901 349.028 695.607C346.689 698.504 348 705.501 348 709L348 745L348 874L348 907C348 910.328 346.825 916.615 349.028 919.397C351.468 922.478 359.524 921 363 921C373.64 921 396.498 916.673 404 925L405 925C412.328 918.082 433.252 922 443 922C477.627 922 512.316 923 547 923L908 923C939.411 923 970.837 922 1002 922C1012.4 922 1029.29 918.714 1038 925C1045.7 916.457 1070.05 921 1081 921L1171 921C1180.5 921 1199.19 924.641 1207.68 920.397C1211.06 918.706 1209.09 912.953 1209.01 910C1208.75 899.346 1209 888.657 1209 878L1209 743C1209 731 1208.94 718.999 1209 707C1209.02 703.916 1211.21 696.402 1207.68 694.782C1204.78 693.451 1200.12 694.959 1197 694.996C1188.67 695.095 1180.33 695 1172 695L1081 695C1069.38 695 1045.91 699.598 1038 690C1028.8 696.639 1010.02 693 999 693C964.737 693 930.341 692 896 692L535 692C503.712 692 472.304 693 441 693C430.393 693 412.87 696.404 404 690z"/>
<path style="fill:#f9fcf8; stroke:none;" d="M344 702L344 707L346 707L346 702L344 702M1212.33 720.667L1212.67 721.333L1212.33 720.667M1212.33 888.667L1212.67 889.333L1212.33 888.667M344 902L344 904L346 904L346 902L344 902z"/>
<path style="fill:#020302; stroke:none;" d="M405 1500L460 1500L460 1107L460 984C460 964.777 456.546 941.707 461 923C448.21 919.955 433.118 922 420 922C416.534 922 408.614 920.529 406.179 923.603C401.341 929.711 405 950.307 405 958L405 1054L405 1500z"/>
<path style="fill:#18951a; stroke:none;" d="M460 1500L925 1500L925 1413C925 1406.71 928.072 1388.35 922.436 1384.18C918.559 1381.31 909.599 1383 905 1383L861 1383L694 1383L653 1383C649.024 1383 640.614 1384.63 637.603 1381.51C634.885 1378.7 636 1372.56 636 1369C636 1357.47 635.04 1345.48 636.059 1334C636.77 1325.99 646.112 1328 652 1328L703 1328L858 1328L902 1328C907.406 1328 915.837 1329.59 920.852 1327.4C925.414 1325.4 924 1317.99 924 1314L924 1282C924 1278.29 923.003 1272.62 927.148 1270.74C937.027 1266.27 956.174 1270 967 1270C970.966 1270 976.588 1269.12 978.972 1273.15C981.594 1277.58 980 1286.01 980 1291L980 1336L980 1500L982 1500L982 1322C982 1306.62 979.682 1289.19 982.148 1274.02C983.072 1268.34 989.165 1268.1 993 1271L994 1271C998.047 1267.93 1005.95 1267.93 1010 1271L1011 1271L1037.68 1268.68L1039 1243L1039 1177L1039 925L1038 925L1038 1153L1038 1227C1038 1238.56 1039.68 1251.57 1037.85 1262.98C1036.87 1269.08 1031.77 1268.22 1027 1268.04C1016.7 1267.64 1006.31 1268 996 1268C992.309 1268 985.431 1269.28 983.028 1265.68C980.918 1262.52 982 1256.62 982 1253L982 1221C982 1180.85 977.584 1137.85 982.286 1098C984.03 1083.21 983 1067.89 983 1053C983 1049.09 984.68 1039.8 981.258 1037.03C977.364 1033.88 965.826 1036 961 1036L906 1036C876.901 1036 849.095 1039.06 820 1039C813.945 1038.99 808.918 1036.2 803 1036.02C766.411 1034.88 729.608 1036 693 1036L693 1037L748 1037L790 1037C794.426 1037 802.769 1035.41 806.566 1038.03C810.179 1040.51 809 1047.25 809 1051L809 1083C809 1086.84 809.999 1092.6 806.682 1095.4C801.91 1099.42 788.942 1097 783 1097L718 1097C712.031 1097 696.892 1099.71 692.742 1094.68C689.645 1090.93 691 1083.53 691 1079C691 1065.58 688.884 1050.09 692 1037C682.044 1040.11 671.355 1039 661 1039L608 1039C600.922 1039 585.038 1041.95 579.293 1037.41C575.727 1034.6 576.995 1028.95 577 1025C577.014 1013.69 573.267 994.55 577.603 984.109C579.886 978.613 591.009 980.137 596 980.015C615.308 979.543 634.685 980 654 980L896 980L961 980C965.355 980 979.299 982.368 981.397 977.812C986.036 967.737 982 947.116 982 936C982 931.588 983.249 925.24 977.941 923.573C967.369 920.251 952.061 923 941 923L859 923L589 923C558.309 923 527.622 922 497 922C488.3 922 469.75 918.491 462.318 923.318C459.259 925.305 460.001 929.869 460 933L460 958L460 1063L460 1500z"/>
<path style="fill:#020302; stroke:none;" d="M981 924C984.045 936.79 982 951.882 982 965C982 968.856 983.376 976.34 979.968 979.111C976.108 982.25 963.849 980 959 980L901 980L674 980L601 980C595.568 980 579.145 977.635 577.318 984.109C573.974 995.956 577.054 1012.67 576.999 1025C576.982 1028.93 575.302 1035.42 579.282 1037.97C584.555 1041.35 596.88 1039 603 1039L663 1039C675.628 1039 687.803 1036.15 700 1036C734.042 1035.58 769.024 1033.99 803 1036.04C807.9 1036.34 812.008 1038.91 817 1039C844.172 1039.46 870.015 1036 897 1036L958 1036C963.685 1036 975.759 1033.72 980.566 1037.03C984.179 1039.51 983 1046.25 983 1050L983 1086C982.981 1136.24 982 1186.68 982 1237C982 1243.6 978.873 1261.15 983.028 1266.4C985.261 1269.22 991.849 1268 995 1268C1004.66 1268 1014.34 1267.89 1024 1268C1027.43 1268.04 1032.62 1269.75 1035.68 1267.81C1040.5 1264.75 1038 1250.04 1038 1245L1038 1176L1038 992L1038 943C1038 937.935 1039.75 928.702 1036.82 924.318C1034.32 920.566 1026.86 922 1023 922C1010.66 922 992.224 918.599 981 924z"/>
<path style="fill:#f9fcf8; stroke:none;" d="M1063 923L1064 924L1063 923z"/>
<path style="fill:#18951a; stroke:none;" d="M403 925L403 1500L405 1500L405 925L403 925z"/>
<path style="fill:#f9fcf8; stroke:none;" d="M402 950L402 956L403 956L402 950z"/>
<path style="fill:#c09775; stroke:none;" d="M692.603 1038.03C689.649 1040.37 691 1047.68 691 1051L691 1084C691 1087.57 690.001 1093.61 693.434 1095.97C698.571 1099.51 711.901 1097 718 1097L782 1097C787.768 1097 803.099 1099.69 807.397 1095.4C810.131 1092.66 809 1086.5 809 1083L809 1051C809 1047.58 810.286 1040.48 807.258 1038.03C802.675 1034.32 787.762 1037 782 1037L716 1037C710.532 1037 697.009 1034.54 692.603 1038.03M865.607 1038.03L864.003 1051L864 1084L866.434 1095.97L890 1097L954 1097L979.486 1095.97L982 1084L982 1051L979.486 1038.03L955 1037L891 1037L865.607 1038.03z"/>
<path style="fill:#f9fcf8; stroke:none;" d="M975.891 1038.86C951.462 1034.95 922.819 1039 898 1039C890.146 1039 875.385 1036.13 868.318 1039.6C864.635 1041.42 866 1048.67 866 1052L866 1084C866 1087.54 864.954 1093.74 869.148 1095.36C874.91 1097.57 886.614 1095 893 1095L952 1095C958.046 1095 972.735 1097.95 977.682 1094.81C981.134 1092.62 980 1086.45 980 1083L980 1050C979.999 1046.21 980.956 1039.67 975.891 1038.86M694.603 1040.03L693 1052L693 1084L695.303 1094.95L718 1095L781 1095L805.411 1094.25L807 1083L807 1052L805.397 1040.03L781 1039L718 1039L694.603 1040.03z"/>
<path style="fill:#020302; stroke:none;" d="M522.529 1213.04C518.252 1216.11 521 1233 521 1238C521 1243.8 517.922 1262.17 521.693 1266.4C524.179 1269.18 530.673 1268 534 1268L563 1268C566.122 1268 571.779 1269.05 574.397 1266.97C578.652 1263.6 576 1247.1 576 1242C576 1235.22 578.846 1220.03 574.972 1214.32C572.647 1210.89 566.447 1212.96 563 1213C553.391 1213.11 543.595 1213.46 534 1212.92C530.746 1212.74 525.421 1210.96 522.529 1213.04z"/>
<path style="fill:#f9fcf8; stroke:none;" d="M1039.67 1257.33L1040.33 1257.67L1039.67 1257.33z"/>
<path style="fill:#c09775; stroke:none;" d="M1039 1258L1039 1264L1041 1264L1041 1258L1039 1258M982 1273L983 1273L993 1271L993 1269C988.476 1269 983.654 1268.02 982 1273M994 1269L994 1271L1010 1271L1010 1269L994 1269M1011 1269L1011 1271L1030 1271L1030 1269L1011 1269z"/>
<path style="fill:#020302; stroke:none;" d="M579.742 1271.03C575.54 1274.43 578 1289.03 578 1294C578 1301.24 574.938 1317.59 579.028 1323.68C581.387 1327.2 587.513 1325.47 591 1325.21C600.451 1324.51 610.573 1324.45 620 1325.39C623.333 1325.72 629.748 1327 632.397 1324.39C636.369 1320.49 634 1307.22 634 1302C634 1294.74 637.057 1278.44 632.972 1272.32C630.679 1268.88 624.52 1270 621 1270L591 1270C587.927 1270 582.306 1268.95 579.742 1271.03M925 1500L980 1500L980 1334L980 1290C980 1285.28 981.689 1276.39 978.972 1272.32C976.679 1268.88 970.52 1270 967 1270C956.475 1270 935.694 1265.96 926.318 1270.74C922.501 1272.69 924 1280.49 924 1284L924 1316C923.998 1320.14 924.609 1325.51 919.941 1327.4C914.485 1329.6 905.825 1328 900 1328L856 1328L703 1328L652 1328C646.697 1328 636.721 1325.74 636.059 1333.02C634.956 1345.14 636 1357.83 636 1370C636 1373.33 634.815 1379.82 637.603 1382.31C640.436 1384.83 649.332 1383 653 1383L695 1383L862 1383L905 1383C909.691 1383 917.588 1381.52 921.697 1384.18C928.101 1388.32 925 1406.4 925 1413L925 1500z"/>
<path style="fill:#f9fcf8; stroke:none;" d="M982 1273L983 1274L982 1273M402 1421L402 1428L403 1428L402 1421z"/>
<path style="fill:#c09775; stroke:none;" d="M402 1428L402 1500L403 1500L403 1451L402 1428z"/>
</svg>
