<?xml version="1.0" standalone="yes"?>
<svg xmlns="http://www.w3.org/2000/svg" width="1500" height="1500">
<path style="fill:#010202; stroke:none;" d="M0 0L0 1500L402 1500C402 1330.95 403 1162.06 403 993L403 860L403 825C402.994 821.341 403.901 813.687 401.735 810.603C398.275 805.676 381.2 808.858 376 808.985C369.818 809.137 354.45 805.917 349.434 809.067C345.469 811.557 347 820.066 347 824C347 838.108 348.107 851.98 347 866C333.133 867.753 318.974 867 305 867C300.663 867 292.957 868.458 289.434 865.397C284.198 860.847 287 845.345 287 839L287 763L287 710C287 705.075 285.109 695.338 290.228 692.434C294.354 690.093 300.454 691 305 691C316.266 691 327.757 690.339 339 691.044C343.536 691.328 346.693 693.375 347.656 698.004C349.955 709.058 347 722.654 347 734C347 737.568 345.751 744.434 348.742 747.103C351.669 749.714 359.325 748 363 748L402 748C402 692.092 402.91 635.884 403 580C403.021 566.827 404.078 553.113 402.83 540C402.297 534.402 399.983 525.197 403.858 520.318C406.778 516.641 413.869 518 418 518C428.395 518 438.652 517.745 449 517.209C452.346 517.036 456.635 518.754 459.397 516.103C462.702 512.929 459.992 507.878 460.165 504.116C460.661 493.317 457.335 473.924 461.603 464.148C463.595 459.586 471.01 461 475 461C488.489 461 503.235 458.001 516 461C521.036 449.116 518 431.787 518 419C518 414.382 516.336 406.036 521.148 403.322C527.142 399.94 539.245 402 546 402L606 402L828 402L894 402C901.177 402 914.543 399.444 920.852 403.179C925.641 406.015 924 414.317 924 419C924 431.27 920.331 450.409 927 461C940.185 455.948 953.693 461.058 966.999 460.999C972.067 460.977 979.815 458.076 981.683 465.058C984.585 475.909 982 490.76 982 502C982 505.846 980.583 513.428 983.603 516.393C985.987 518.733 990.955 517.528 994 517.754C1004.26 518.516 1014.71 518 1025 518C1028.99 518 1036.4 516.586 1038.4 521.148C1040.17 525.211 1039 531.642 1039 536L1039 570L1039 690L1039 732C1039 735.905 1037.49 743.857 1040.89 746.682C1044.24 749.461 1051.94 748 1056 748L1094 748L1094 710C1094 705.524 1092.68 698.425 1095.32 694.533C1098.27 690.178 1104.46 691 1109 691L1141 691C1145.82 691 1150.67 690.43 1153.85 694.773C1159 701.813 1154 721.158 1154 730C1154 741.166 1155.98 752.09 1156 763C1156.04 783.927 1154 804.197 1154 825C1154 835.225 1161.1 855.345 1153.85 864.057C1149.12 869.75 1134.69 867 1128 867C1120.28 867 1103.88 870.082 1097.47 865.347C1093.57 862.46 1094 857.296 1094 853C1094 843.036 1089.94 820.993 1096 813L1096 812C1087.31 804.61 1064.28 809 1053 809C1048.98 809 1041.33 807.531 1039.51 812.344C1035.26 823.604 1039 842.945 1039 855L1039 954L1039 1167L1039 1233C1039 1242.93 1041 1255.3 1038.7 1264.96C1037.31 1270.79 1031.97 1270.99 1027 1271L996 1271C992.492 1271 984.688 1269.5 982.742 1273.32C980.333 1278.04 982 1286.8 982 1292L982 1337L982 1500L1500 1500L1500 0L0 0z"/>
<path style="fill:#819d1f; stroke:none;" d="M516 461L496.985 460.946L467 461L467 462L505 462C508.923 462 516.221 463.343 518.821 459.566C521.014 456.38 520 450.661 520 447C520 437.003 519.181 426.928 519.626 417C519.951 409.726 518.597 403.709 528 403C519.173 399.401 518 407.346 518 414C517.999 429.044 520.501 446.575 516 461M529 402L529 403L579 403C566.111 397.591 543.049 402 529 402M588 402L588 403L862 403L837 402L781 402L588 402M867 402L867 403C880.724 403 894.295 404.005 908 404C912.365 403.998 920.201 402.133 922.397 407.193C926.712 417.137 923 436.15 923 447C923 450.854 921.563 458.467 925.318 460.972C928.287 462.954 933.611 462 937 462L966 462C970.013 461.994 977.289 460.147 979.806 464.282C981.722 467.43 980.045 472.51 980.004 476C979.889 485.664 980 495.336 980 505C980 508.726 978.956 514.52 981.603 517.566C984.47 520.866 990.112 520 994 520C1004 520.001 1014 520.047 1024 519.999C1029.21 519.974 1034.96 517.814 1038 523L1039 523C1037.87 516.207 1030.46 518 1025 518C1014.74 518 1004.2 518.685 994 517.59C991.05 517.274 986.789 518.296 984.318 516.357C980.628 513.462 982 506.098 982 502C982 490.632 984.8 475.062 981.683 464.144C979.727 457.295 971.716 460.946 966.999 460.995C954.533 461.124 938.965 454.774 927 461C921.653 449.052 924 434.007 924 421C924 416.574 925.586 408.231 922.972 404.434C920.264 400.499 912.087 402 908 402L867 402z"/>
<path style="fill:#2d42e2; stroke:none;" d="M519 414L520 414C520.143 401.899 531.838 405 541 405L609 405L842 405L900 405C906.715 405 917 402.894 922 408C923.588 401.104 906.192 404 902 404C880.067 403.999 858.01 403 836 403L593 403C580.515 403 567.367 404.738 555 403.911C546.095 403.315 531.513 400.189 523.059 403.603C518.7 405.364 519.014 410.069 519 414z"/>
<path style="fill:#010202; stroke:none;" d="M521.603 406.028C518.927 408.147 520 414.02 520 417L520 448C520 451.55 518.804 458.326 523.228 459.682C531.42 462.193 543.434 460 552 460L616 460L827 460L897 460C901.956 460 917.679 462.554 920.972 458.397C923.046 455.779 922 450.122 922 447C922 437 921.956 427 922.001 417C922.016 413.611 923.62 407.399 919.757 405.603C913.332 402.617 901.042 405 894 405L833 405L615 405L546 405C540.343 405 526.15 402.427 521.603 406.028z"/>
<path style="fill:#2d42e2; stroke:none;" d="M922 409L922 446C922 449.691 923.284 456.569 919.682 458.972C914.235 462.607 900.418 460 894 460L827 460L606 460L546 460C538.007 460 527.156 461.98 520 458L515 462L515 463C522.287 470.136 518 494.091 518 504C518 507.691 519.284 514.569 515.682 516.972C512.332 519.208 505.843 518 502 518C489.742 518 473.401 520.831 462 516L458 520L460 544L460 596L460 790L460 1500L924 1500L924 1414C924 1407.79 927.101 1389.29 922.397 1384.86C918.811 1381.48 911.347 1383.59 907 1383.87C893.758 1384.7 880.268 1384 867 1384L703 1384C686.286 1384 668.601 1385.65 652 1383.71C647.856 1383.23 638.822 1385.37 636.465 1381.06C634.829 1378.07 636 1372.32 636 1369C636 1359.67 636.044 1350.33 635.999 1341C635.983 1337.57 634.222 1331.38 638.163 1329.6C643.104 1327.38 651.65 1329 657 1329L700 1329L857 1329L902 1329C907.666 1329 916.601 1330.69 921.852 1328.4C926.586 1326.33 925 1318.13 925 1314L925 1285C925 1281.61 924.046 1276.29 926.028 1273.32C928.431 1269.72 935.309 1271 939 1271C951.523 1271 968.358 1268.07 980 1273L979 1269C965.425 1269.71 951.605 1269 938 1269C934.146 1269 926.534 1267.56 924.028 1271.32C922.046 1274.29 923 1279.61 923 1283L923 1312C923 1317.11 924.407 1325 917.981 1326.68C911.68 1328.33 903.497 1327 897 1327L852 1327L708 1327L657 1327C651.718 1327 641.88 1328.87 637.318 1325.82C633.566 1323.32 635 1315.86 635 1312L635 1283C635 1279.57 635.879 1274.42 633.821 1271.43C631.221 1267.66 623.923 1269 620 1269L590 1269C586.694 1269 581.188 1269.98 578.603 1267.4C575.869 1264.66 577 1258.5 577 1255L577 1224C577 1220.66 577.885 1215.35 575.258 1212.74C572.215 1209.72 565.79 1211.95 562 1212C552.336 1212.11 542.664 1212 533 1212C528.999 1212 523.62 1212.8 520.553 1209.61C517.09 1206 519 1196.62 519 1192L519 1145L519 955L519 771L519 718C519 711.555 517.003 701.104 519.603 695.148C521.595 690.586 529.011 692 533 692L564 692C567.21 692 572.788 693.008 575.243 690.397C577.843 687.631 576.017 681.447 576.001 678C575.953 668.001 575.999 658 576 648C576 644.112 575.134 638.47 578.434 635.603C581.307 633.106 586.489 634 590 634L620 634C623.471 634 631.515 635.507 633.397 631.682C637.933 622.463 634 602.301 634 592C634 587.811 632.661 580.759 636.318 577.742C640.708 574.121 650.66 576 656 576L707 576L850 576C871.512 576 896.872 572.256 917.985 576.228C924.843 577.519 924 584.568 924 590C924.001 600.331 924.118 610.67 923.996 621C923.957 624.281 922.251 629.731 924.757 632.397C927.351 635.156 933.6 634 937 634L968 634C971.606 634 976.667 633.177 979.258 636.318C982.491 640.238 981 648.266 981 653L981 697L981 868L981 951C981 957.338 984.09 975.279 977.852 978.972C972.267 982.279 960.357 980 954 980L893 980L670 980L602 980C596.425 980 582.188 977.43 577.742 981.028C573.235 984.675 576 1001.59 576 1007C576 1013.32 572.989 1030.27 577.028 1035.26C579.988 1038.92 590.776 1037 595 1037C612.342 1037 629.032 1039.21 646 1039.96C673.33 1041.17 699.724 1037 727 1037C739.967 1037 752.295 1039.98 765 1040C781.266 1040.03 797.107 1037.48 813 1037.02C828.975 1036.55 846.092 1035.62 862 1037.1C867.848 1037.65 872.986 1039.97 879 1040C913.525 1040.17 947.315 1037 982 1037L981 1207L981 1251L982.028 1267.4L995 1269L1031 1269L1031 1268L997 1268C993.497 1268 987.337 1269.13 984.603 1266.4C982.019 1263.81 983 1258.31 983 1255L983 1225L983 1103L983 692C983 652.28 982 612.722 982 573C982 556.615 978.114 534.362 984 519L980 516C969.798 521.674 950.53 518 939 518C935.306 518 928.479 519.272 925.603 516.397C923.019 513.812 924 508.306 924 505L924 476C924 472.48 922.882 466.321 926.318 464.028C931.95 460.27 946.337 463 953 463L953 462C946.284 462 930.645 464.885 925.318 460.397C921.67 457.323 923 450.224 923 446C923 435.366 926.108 418.789 922 409M519 418L519 425L520 425L519 418M519 431L520 432L519 431M519 435L520 436L519 435z"/>
<path style="fill:#819d1f; stroke:none;" d="M461 465L462 465L465 462L461 465z"/>
<path style="fill:#2d42e2; stroke:none;" d="M465.667 461.333L466.333 461.667L465.667 461.333M974 461L974 462L977 462L974 461M462 462L462 464L464 462L462 462z"/>
<path style="fill:#010202; stroke:none;" d="M464.318 463.028C459.198 466.444 462 483.45 462 489C462 495.515 459.244 510.28 463.078 515.772C465.405 519.105 471.511 518 475 518L505 518C508.122 518 513.779 519.046 516.397 516.972C520.652 513.602 518 497.098 518 492C518 485.446 520.875 469.878 516.972 464.469C514.516 461.065 508.483 462.997 505 462.875C495.325 462.536 485.728 462 476 462C472.611 462 467.287 461.046 464.318 463.028z"/>
<path style="fill:#2d42e2; stroke:none;" d="M501 462L501 463L510 463L501 462M511 462L511 463L514 463L511 462z"/>
<path style="fill:#010202; stroke:none;" d="M952.999 462.556C946.617 463.047 930.606 460.066 925.603 464.028C922.784 466.261 924 472.849 924 476L924 506C924 508.98 922.927 514.853 925.603 516.972C928.543 519.301 935.469 518 939 518C950.767 518 964.308 519.88 975.891 517.852C981.234 516.916 980 510.059 980 506L980 476C980 472.611 980.954 467.287 978.972 464.318C975.493 459.104 958.584 462.125 952.999 462.556z"/>
<path style="fill:#2d42e2; stroke:none;" d="M955 462L955 463L958 463L955 462M960 462L961 463L960 462M978 462L980 464L980 462L978 462M980 464L980 470L981 470L980 464M461 465L461 468L462 468L461 465z"/>
<path style="fill:#819d1f; stroke:none;" d="M461 468C461 480.165 460.469 492.127 459.715 504.116C459.458 508.184 462.986 512.769 458.682 516.067C455.743 518.32 451.404 516.889 448 517.174C437.986 518.012 428.066 518 418 518C414.022 518 405.852 516.416 403.318 520.318C400.464 524.712 402 532.978 402 538L403 538C403.089 533.713 402.32 524.496 405.357 521.322C408.594 517.939 414.852 519.979 419 519.999C429.633 520.05 449.128 523.763 458.772 519.258C463.077 517.246 462 510.865 462 507C462.001 495.842 465.307 478.265 461 468z"/>
<path style="fill:#2d42e2; stroke:none;" d="M462 512L463 513L462 512M294 866L294 865C285.993 860.322 290 840.562 290 832L290 731C290 722.022 290.335 712.971 289.961 704C289.797 700.086 288.461 695.47 293.059 693.603C298.257 691.493 306.452 693 312 693C318.749 693 338.458 689.664 343.397 694.603C346.131 697.337 345 703.497 345 707L345 738C345 741.306 344.019 746.812 346.603 749.397C349.744 752.537 357.938 751 362 751C375.734 751 390.471 749.488 404 752C408.922 735.349 405 712.386 405 695L405 575L405 534C405 527.387 403.745 520.63 412 520C403.506 516.578 403.875 525.426 403.385 531C402.281 543.55 403 556.402 403 569L403 705C403 716.043 403.866 727.019 403.996 738C404.036 741.327 404.915 746.815 401.682 748.972C397.088 752.038 386.361 750 381 750C373.503 750 353.773 753.44 347.908 748.126C345.006 745.496 346.999 737.572 347 734C347.004 724.309 346.779 714.683 346.427 705.011C346.314 701.898 347.617 698.168 346.247 695.214C344.256 690.92 337.841 692 334 692L302 692C298.497 692 292.337 690.87 289.603 693.603C284.349 698.857 288 720.764 288 728L288 829C288 838.341 283.38 862.74 294 866M1031 519L1031 520L1038 522L1031 519z"/>
<path style="fill:#010202; stroke:none;" d="M404 752C391.506 749.026 376.812 751 364 751C359.397 751 351.086 752.572 347.318 749.397C344.186 746.758 345 741.633 345 738L345 707C345 703.684 346.351 696.368 343.397 694.028C337.873 689.653 318.974 693 312 693C306.338 693 297.394 691.309 292.148 693.603C288.217 695.323 289.519 699.658 289.83 703C290.657 711.879 290 721.085 290 730L290 831C290 838.599 290.538 846.43 289.83 854C289.538 857.126 288.124 861.699 291.434 863.782C295.416 866.288 306.223 864 311 864C318.66 864 326.342 863.83 334 864.015C336.676 864.079 341.053 865.476 343.397 863.782C346.365 861.636 345 854.17 345 851L345 820C345 816.367 344.186 811.242 347.318 808.603C350.932 805.558 358.596 807 363 807C374.701 807 393.591 810.555 404 805C408.466 829.056 405 856.537 405 881L405 1031L405 1500L460 1500L460 737L460 589L460 544C460 537.738 461.505 529.241 459.683 523.231C458.387 518.957 451.445 520.012 447.999 520.001L418 520C414.878 520 409.221 518.954 406.603 521.028C403.4 523.565 405 532.368 405 536L405 579L405 695C405 713.003 408.172 734.475 404 752z"/>
<path style="fill:#2d42e2; stroke:none;" d="M455 520L456 521L455 520z"/>
<path style="fill:#010202; stroke:none;" d="M1038 806L1078 807L1094.68 808.603L1097 823L1097 864C1113.33 866.331 1136.67 866.331 1153 864L1153 739L1153 707C1153 703.672 1154.18 697.385 1151.97 694.603C1149.74 691.784 1143.15 693 1140 693C1129.47 693 1108.69 688.962 1099.32 693.742C1095.37 695.756 1097 704.357 1097 708L1097 737C1097 740.561 1097.88 745.738 1095.4 748.682C1092.2 752.481 1084.41 751 1080 751C1066.58 751 1051.09 748.884 1038 752C1036.05 697.896 1038 643.217 1038 589L1038 543C1038 537.334 1039.69 528.399 1037.4 523.148C1035.58 518.987 1029.67 520 1026 520L996 520C992.564 520 986.488 518.895 983.603 521.179C980.936 523.292 982 529.03 982 532L982 564C982 606.726 983 649.288 983 692L983 1104L983 1220L983 1252C983 1255.9 981.841 1262.1 983.603 1265.68C985.416 1269.37 992.667 1268 996 1268C1006.27 1268 1016.75 1267.4 1027 1268.09C1031.4 1268.38 1036.87 1269.85 1037.85 1263.96C1042.39 1236.6 1038 1204.77 1038 1177L1038 997L1038 806z"/>
<path style="fill:#2d42e2; stroke:none;" d="M1038 523L1038 526L1039 526L1038 523z"/>
<path style="fill:#819d1f; stroke:none;" d="M1038 526L1038 690L1038 733C1038 736.929 1036.46 745.15 1039.03 748.397C1041.37 751.351 1048.68 750 1052 750C1064.15 750 1081.23 753.134 1092.85 749.682C1097.66 748.254 1096 739.83 1096 736C1096 724.107 1093.31 708.515 1096.32 697.019C1097.93 690.862 1105.06 692 1110 692C1123.31 692 1141.64 688.76 1154 694C1150.2 690.119 1145.13 691 1140 691L1108 691C1103.77 691 1097.26 690.034 1094.86 694.533C1092.7 698.572 1094 705.548 1094 710L1094 748L1055 748C1050.93 748 1044.07 749.28 1040.89 746.107C1037.58 742.789 1039 735.259 1039 731L1039 691L1039 575C1039 561.224 1043.31 538.645 1038 526z"/>
<path style="fill:#7f8bec; stroke:none;" d="M982 1269C976.632 1246.45 981 1218.19 981 1195C981 1142.28 982 1089.69 982 1037C947.339 1037 913.478 1040.41 879 1040C873.363 1039.93 868.495 1037.62 863 1037.1C846.444 1035.56 828.625 1036.53 812 1037.02C796.761 1037.46 781.605 1040.03 766 1040C756.121 1039.98 746.985 1037 737 1037C706.549 1037 676.315 1042.05 646 1039.91C629.906 1038.78 614.437 1037 598 1037C592.718 1037 582.88 1038.87 578.318 1035.82C574.887 1033.53 576 1027.52 576 1024L576 992C576.001 988.353 575.138 982.448 579.228 980.603C585.761 977.658 597.877 980 605 980L666 980L881 980L954 980C959.767 980 975.099 982.694 979.397 978.397C982.13 975.663 981 969.503 981 966L981 934L981 803L981 682L981 650C981 646.048 982.129 639.776 979.821 636.318C977.318 632.566 969.855 634 966 634L937 634C933.581 634 928.221 634.937 925.473 632.397C922.643 629.779 923.984 624.42 923.999 621C924.044 611 924 601 924 591C924 587.077 925.343 579.779 921.566 577.179C917.117 574.117 907.195 576 902 576L851 576L704 576L659 576C652.592 576 644.227 574.585 638.059 576.434C632.515 578.095 634 585.51 634 590L634 622C634 625.341 634.937 630.8 631.682 632.972C628.713 634.954 623.389 634 620 634L591 634C587.349 634 580.561 632.724 577.742 635.603C575.127 638.275 576 643.613 576 647L576 677C576.002 681.026 577.798 688.425 573.757 690.972C570.676 692.914 565.474 692 562 692L534 692C530.524 692 522.468 690.522 520.028 693.603C516.538 698.009 519 711.533 519 717L519 782L519 1034L519 1163L519 1197C518.994 1200.62 517.561 1206.49 519.897 1209.57C522.464 1212.95 528.306 1212 532 1212C542.331 1212 552.67 1212.12 563 1212C566.799 1211.95 572.387 1210.12 575.258 1213.44C577.789 1216.36 577 1221.43 577 1225L577 1254C577 1257.48 575.522 1265.53 578.603 1267.97C581.221 1270.05 586.879 1269 590 1269L620 1269C624.352 1269 631.136 1267.84 633.821 1272.23C639.043 1280.77 635 1302.07 635 1312C635 1315.47 633.529 1323.39 636.603 1325.82C640.433 1328.85 650.352 1327 655 1327L703 1327L857 1327L901 1327C906.406 1327 914.837 1328.59 919.852 1326.4C924.586 1324.33 923 1316.13 923 1312L923 1283C923 1279.44 922.123 1274.26 924.603 1271.32C927.804 1267.52 935.594 1269 940 1269C952.603 1269 970.049 1272.28 982 1269z"/>
<path style="fill:#819d1f; stroke:none;" d="M402 588L402 594L403 594L402 588M292 691L292 692L344 692L327 691L292 691z"/>
<path style="fill:#2d42e2; stroke:none;" d="M692 749L692 748C678.781 750.454 664.418 749 651 749C647.238 749 639.609 750.43 636.757 747.397C634.157 744.632 635.983 738.447 635.999 735C636.049 724.699 636.39 714.292 635.961 704C635.778 699.634 634.534 694.758 640.019 693.318C646.318 691.665 654.505 693 661 693L706 693L850 693L900 693C905.148 693 915.261 691.077 919.682 694.028C922.937 696.2 922 701.659 922 705L922 736C922 739.52 923.118 745.679 919.682 747.972C916.148 750.331 909.065 749 905 749C891.677 749 878.221 749.671 865 748C873.687 755.493 897.857 751 909 751C912.854 751 920.466 752.437 922.972 748.682C927.169 742.393 924 725.467 924 718C924 712.305 926.688 696.943 922.397 692.742C918.848 689.269 909.555 691 905 691L859 691L693 691L651 691C646.738 691 638.932 689.52 635.514 692.603C632.299 695.503 633.002 701.124 633 705C632.996 715.664 632.876 726.337 633.011 737C633.057 740.643 632.116 747.381 635.515 749.821C638.972 752.302 645.969 751 650 751C662.051 751 681.191 754.624 692 749z"/>
<path style="fill:#819d1f; stroke:none;" d="M288 692L288 694L290 692L288 692M344.667 692.333L345.333 692.667L344.667 692.333z"/>
<path style="fill:#2d42e2; stroke:none;" d="M1097 693L1097 694L1152 693L1136 692L1097 693z"/>
<path style="fill:#819d1f; stroke:none;" d="M346.333 693.667L346.667 694.333L346.333 693.667z"/>
<path style="fill:#010202; stroke:none;" d="M637.319 694.028C633.856 696.354 635.813 701.621 635.961 705C636.422 715.545 636.422 726.455 635.961 737C635.805 740.57 633.439 747.213 638.228 748.682C643.392 750.266 650.622 749 656 749C671.423 749 686.783 747.074 702 747.001C752.331 746.758 802.669 746.997 853 747C869.256 747.001 885.559 749 902 749C906.513 749 916.706 750.895 920.397 747.972C923.073 745.853 922 739.98 922 737L922 705C922 701.424 923.321 694.645 918.852 693.318C912.783 691.516 904.314 693 898 693L853 693L707 693L657 693C651.867 693 641.72 691.072 637.319 694.028z"/>
<path style="fill:#2d42e2; stroke:none;" d="M1152 693L1153 694L1152 693z"/>
<path style="fill:#819d1f; stroke:none;" d="M287 694L287 864L288 864L288 745C288 730.7 292.506 707.121 287 694z"/>
<path style="fill:#2d42e2; stroke:none;" d="M1096 694L1096 749L1097 749L1097 712L1096 694M1153 694L1153 864L1112 864L1097 866C1110.65 864.751 1124.29 864.978 1138 865C1141.57 865.006 1149.35 867.267 1152.26 864.968C1154.99 862.809 1154 857.029 1154 854L1154 825L1154 734C1154 722.58 1157.41 704.504 1153 694z"/>
<path style="fill:#819d1f; stroke:none;" d="M347 696L347 713L348 713L347 696M1154 696L1154 708L1156 708L1156 696L1154 696M402 724L402 748L352 748L352 750L389 750C392.531 750 399.457 751.301 402.397 748.972C406.872 745.428 403.952 728.525 402 724z"/>
<path style="fill:#2d42e2; stroke:none;" d="M1037 731L1037 736L1038 736L1037 731M1037 737L1037 742L1038 742L1037 737z"/>
<path style="fill:#819d1f; stroke:none;" d="M346 743C346.293 746.842 346.936 748.814 351 749L351 748L346 743z"/>
<path style="fill:#2d42e2; stroke:none;" d="M1037.33 746.667L1037.67 747.333L1037.33 746.667M694 747L694 748L864 748C850.879 742.494 827.3 747 813 747L694 747z"/>
<path style="fill:#d8dcf8; stroke:none;" d="M697.019 749.769C688.76 750.635 692 767.998 692 774L692 842C692 847.503 688.986 861.629 694.279 864.972C699.06 867.992 709.499 866 715 866L740 866C742.76 865.999 747.051 866.694 749.127 864.397C751.705 861.545 750.017 855.494 750.001 852C749.953 842 750 832 750 822C750 818.439 749.123 813.262 751.603 810.318C754.542 806.83 760.964 808 765 808C776.857 808 789.188 807.016 800.996 808.059C808.868 808.754 807.009 816.17 807 822L807 851C807 854.72 806.002 860.42 808.179 863.682C810.58 867.28 817.308 866 821 866C833.827 866 848.328 867.909 860.981 865.852C869.216 864.513 866 847.18 866 841L866 774C866 768.986 868.461 754.607 864.397 751.104C861.559 748.659 856.396 749.961 853 749.996C842.669 750.102 832.332 750 822 750L737 750C723.985 750 709.919 748.415 697.019 749.769z"/>
<path style="fill:#2d42e2; stroke:none;" d="M1038 749C1038.92 753.218 1048.07 751 1052 751L1095 751L1095 750C1076.99 750 1055.53 753.173 1038 749M1095 749L1096 750L1095 749z"/>
<path style="fill:#819d1f; stroke:none;" d="M1154 754L1154 801L1156 801L1156 754L1154 754z"/>
<path style="fill:#2d42e2; stroke:none;" d="M403 805C392.591 810.555 373.701 807 362 807C357.935 807 350.852 805.669 347.318 808.028C343.563 810.534 345 818.146 345 822L345 851C345 854.243 346.007 859.748 343.972 862.527C341.672 865.668 334.389 864.001 331 864L295 864L295 865L330 865.17L345.106 864.397L346.914 850L347 808C365.006 808 386.472 804.827 404 809C398.256 828.432 403 855.695 403 876L403 1021C403 1180.85 404 1340.48 404 1500L405 1500L405 990L405 856L405 821L403 805M1038 809L1039 809L1052 808L1082 808L1094.97 810.318L1096 825L1096 863C1097.98 859.567 1097 854.016 1097 850L1097 820C1097 816.203 1098.48 809.009 1093.97 807.333C1082.74 803.157 1063.04 807 1051 807C1047.03 807 1038.96 804.537 1038 809z"/>
<path style="fill:#819d1f; stroke:none;" d="M1039 807L1038 856L1038 953L1038 1263L1039 1263L1039 931L1039 844C1039 836.147 1035.64 818.07 1040.32 811.573C1043.08 807.735 1049.93 809 1054 809L1091 809L1039 807M347 808L347 811L348 811L349 808L347 808M353 808L353 809L382 809L353 808M389 808L389 809L403 811C402.392 806.162 392.99 808 389 808M1092 808L1092 809L1096 812L1092 808z"/>
<path style="fill:#2d42e2; stroke:none;" d="M752 810L752 811L757 810L752 810M801 809L801 810L804 810L801 809z"/>
<path style="fill:#010202; stroke:none;" d="M754 865L805 864L805 810L768 810L753.618 811.028L753 824L754 865z"/>
<path style="fill:#2d42e2; stroke:none;" d="M805 810L805 864L806 864L806 828L805 810z"/>
<path style="fill:#819d1f; stroke:none;" d="M346 811L346 814L347 814L346 811M402 813L402 817L403 817L402 813M1094 813L1094 863L1096 863L1096 813L1094 813z"/>
<path style="fill:#2d42e2; stroke:none;" d="M752 815L752 866C764.935 867.599 778.88 865.938 792 866.001C796.507 866.023 802.233 868.219 805 864C789.361 864 768.985 860.57 754 865L752 815z"/>
<path style="fill:#819d1f; stroke:none;" d="M1154 837L1154 863L1156 863L1156 837L1154 837M347 847L347 862L348 862L347 847M346 863L345 866L346 863M1096 863L1096 866L1097 866L1096 863M288 864C290.959 868.564 298.096 867 303 867L344 867L344 866L288 864M1153.33 864.667L1153.67 865.333L1153.33 864.667M1098 866L1098 867L1152 867L1134 865L1098 866z"/>
<path style="fill:#010202; stroke:none;" d="M578 1036L650 1038L980 1036L980 996C980.001 992.197 981.973 984.517 977.837 982.407C972.293 979.58 960.255 982 954 982L893 982L673 982L606 982C599.772 982 585.604 979.224 580.318 982.269C576.523 984.454 578 992.36 578 996L578 1036z"/>
<path style="fill:#d8dcf8; stroke:none;" d="M579.148 1038.74C574.789 1040.71 576 1047.12 576 1051L576 1082C576 1085.66 574.986 1091.38 577.179 1094.57C579.664 1098.18 586.25 1097 590 1097C601.404 1097 621.4 1100.91 631.856 1096.4C636.596 1094.35 635.094 1088.05 635.014 1084C634.811 1073.67 635 1063.33 635 1053C635 1049.38 636.082 1043.48 633.972 1040.32C631.569 1036.72 624.691 1038 621 1038C609.665 1038 589.483 1034.07 579.148 1038.74M694.318 1038.74C690.646 1040.61 692 1047.63 692 1051C692 1061.33 692.048 1071.67 691.999 1082C691.981 1085.79 690.395 1091.43 692.873 1094.68C695.57 1098.22 702.119 1097 706 1097C717.178 1097 737.64 1100.99 747.772 1096.26C752.077 1094.25 751 1087.87 751 1084L751 1053C750.999 1049.47 751.973 1043.39 749.771 1040.34C747.239 1036.84 740.728 1038 737 1038L707 1038C703.288 1038 697.724 1037.01 694.318 1038.74M810.148 1038.74C805.789 1040.71 807 1047.12 807 1051L807 1082C807 1085.62 805.918 1091.52 808.028 1094.68C810.431 1098.28 817.309 1097 821 1097C832.352 1097 852.464 1100.93 862.852 1096.4C867.224 1094.49 866 1087.84 866 1084L866 1053C866 1049.38 867.082 1043.48 864.972 1040.32C862.569 1036.72 855.691 1038 852 1038C840.665 1038 820.483 1034.07 810.148 1038.74M925.317 1038.74C921.689 1040.58 922.045 1047.57 922.004 1051C921.877 1061.66 922 1072.34 922 1083C922 1086.56 920.959 1092.47 923.742 1095.26C926.677 1098.19 933.244 1097 937 1097C947.944 1097 967.812 1100.89 977.772 1096.4C982.089 1094.45 981 1087.82 981 1084L981 1053C981 1049.38 982.082 1043.48 979.972 1040.32C977.569 1036.72 970.691 1038 967 1038C956.204 1038 934.943 1033.87 925.317 1038.74z"/>
<path style="fill:#010202; stroke:none;" d="M520 1214L520 1252C520 1255.98 518.675 1263.09 521.179 1266.47C523.399 1269.47 528.831 1268.04 532 1268C541.996 1267.9 552.004 1267.95 562 1268C565.064 1268.02 571.737 1269.9 573.972 1267.24C577.471 1263.09 575 1249.27 575 1244C575 1237.55 578.136 1219.67 573.972 1214.62C571.794 1211.98 564.107 1213.99 561 1214C547.736 1214.02 533.061 1212.14 520 1214z"/>
<path style="fill:#2d42e2; stroke:none;" d="M1038 1263L1038 1266L1039 1266L1038 1263z"/>
<path style="fill:#819d1f; stroke:none;" d="M1038.33 1266.67L1038.67 1267.33L1038.33 1266.67M402 1267L402 1500L404 1500L403.015 1334L403.001 1289L402 1267z"/>
<path style="fill:#2d42e2; stroke:none;" d="M1037 1267L1034 1271L1037 1267z"/>
<path style="fill:#819d1f; stroke:none;" d="M980 1500L982 1500L982 1331L982 1288L983.742 1272.6L997 1271L1034 1271L1034 1269L995 1269L981.029 1270.6L981 1287L980.925 1334L980 1500z"/>
<path style="fill:#010202; stroke:none;" d="M579.357 1272.03C575.316 1274.89 578 1292.15 578 1297C578 1303.22 575.094 1319.43 579.028 1324.4C581.261 1327.22 587.849 1326 591 1326L620 1326C623.073 1326 628.694 1327.05 631.258 1324.97C635.665 1321.41 633 1305.27 633 1300C633 1293.78 635.906 1277.57 631.972 1272.6C629.739 1269.78 623.151 1271 620 1271L591 1271C587.697 1271 582.211 1270.01 579.357 1272.03M924 1500L980 1500L980 1334L980 1290C980 1285.5 981.571 1277.21 978.972 1273.32C976.679 1269.88 970.52 1271 967 1271C956.699 1271 936.538 1267.07 927.318 1271.6C923.493 1273.49 925 1281.53 925 1285L925 1317C924.998 1321.14 925.609 1326.51 920.941 1328.4C915.485 1330.6 906.825 1329 901 1329L857 1329L703 1329L652 1329C648.173 1329 636.443 1326.96 635.488 1332.15C633.398 1343.49 636.005 1358.3 636 1370C635.999 1373.37 634.34 1380.55 637.473 1382.82C640.674 1385.14 647.187 1383.31 651 1383.72C666.047 1385.31 681.868 1384 697 1384L861 1384C875.662 1384 890.336 1384.18 904.996 1383.99C909.761 1383.93 917.675 1381.7 921.682 1384.86C927.127 1389.15 924 1407.58 924 1414L924 1500z"/>
<path style="fill:#2d42e2; stroke:none;" d="M980 1277L980 1313L981 1313C981 1302.61 984.011 1286.56 980 1277M980 1316L980 1329L981 1329L980 1316M980 1330L980 1406L981 1406L981 1354L980 1330M980 1412L980 1418L981 1418L980 1412M980 1423L980 1439L981 1439L980 1423M980 1442L980 1449L981 1449L980 1442M980 1452L980 1491L981 1491C981 1479.83 984.311 1462.27 980 1452z"/>
</svg>
